STARTFONT 2.3
FONT -FontForge-Pacifico-Book-R-Normal--18-180-72-72-P-105-ISO10646-1
SIZE 18 72 72  4
FONTBOUNDINGBOX 41 37 -11 -9
COMMENT "Generated by fontforge, http://fontforge.sourceforge.net"
COMMENT "Copyright 2018 The Pacifico Project Authors (https://github.com/googlefonts/Pacifico)"
STARTPROPERTIES 41
FOUNDRY "FontForge"
FAMILY_NAME "Pacifico"
WEIGHT_NAME "Book"
SLANT "R"
SETWIDTH_NAME "Normal"
ADD_STYLE_NAME ""
PIXEL_SIZE 18
POINT_SIZE 180
RESOLUTION_X 72
RESOLUTION_Y 72
SPACING "P"
AVERAGE_WIDTH 105
CHARSET_REGISTRY "ISO10646"
CHARSET_ENCODING "1"
FONTNAME_REGISTRY ""
CHARSET_COLLECTIONS "ISO8859-2 ISO8859-5 ISO8859-9 ISO8859-4 ISO10646-1"
BITS_PER_PIXEL 4
FONT_NAME "Pacifico-Regular"
FACE_NAME "Pacifico Regular"
COPYRIGHT "Copyright 2018 The Pacifico Project Authors (https://github.com/googlefonts/Pacifico)"
FONT_VERSION "3.001"
FONT_ASCENT 14
FONT_DESCENT 4
UNDERLINE_POSITION -2
UNDERLINE_THICKNESS 1
X_HEIGHT 8
CAP_HEIGHT 15
DEFAULT_CHAR 1
RAW_ASCENT 800
RAW_DESCENT 200
NORM_SPACE 5
RELATIVE_WEIGHT 40
RELATIVE_SETWIDTH 50
SUPERSCRIPT_X 0
SUPERSCRIPT_Y 6
SUPERSCRIPT_SIZE 10
SUBSCRIPT_X 0
SUBSCRIPT_Y 1
SUBSCRIPT_SIZE 10
AVG_LOWERCASE_WIDTH 84
AVG_UPPERCASE_WIDTH 147
ENDPROPERTIES
CHARS 1514
STARTCHAR NULL.dup1
ENCODING 0
SWIDTH 0 0
DWIDTH 0 0
BBX 1 1 0 0
BITMAP
00
ENDCHAR
STARTCHAR nonmarkingreturn
ENCODING 13
SWIDTH 265 0
DWIDTH 5 0
BBX 1 1 0 0
BITMAP
00
ENDCHAR
STARTCHAR space
ENCODING 32
SWIDTH 265 0
DWIDTH 5 0
BBX 1 1 0 0
BITMAP
00
ENDCHAR
STARTCHAR exclam
ENCODING 33
SWIDTH 340 0
DWIDTH 6 0
BBX 7 16 0 0
BITMAP
0000AF70
0003FF60
0007FF30
000AFE00
000DF900
001FF500
004FF100
007FB000
00AF7000
00CF2000
00CB0000
00000000
0BE70000
5FFD0000
5FFD0000
1CE50000
ENDCHAR
STARTCHAR quotedbl
ENCODING 34
SWIDTH 510 0
DWIDTH 9 0
BBX 8 6 2 10
BITMAP
3DD13ED0
8FF29FF1
AFE0BFD0
CFA0DFA0
EF70EF60
BD20CD20
ENDCHAR
STARTCHAR numbersign
ENCODING 35
SWIDTH 700 0
DWIDTH 13 0
BBX 13 12 0 0
BITMAP
00001610063000
0000AF705FC000
0000EF409F9000
07FFFFFFFFFE20
07FFFFFFFFFF20
001CF717FC1000
000FF30AF90000
004FF21DF61000
3FFFFFFFFFF500
3FFFFFFFFFF500
01FF30BF800000
02E900AD100000
ENDCHAR
STARTCHAR dollar
ENCODING 36
SWIDTH 524 0
DWIDTH 9 0
BBX 9 17 0 -3
BITMAP
0000052000
00000E6000
00000F4000
003BEFE700
02EFEFFF60
07FA6E6FA0
09F87C1C50
06FFDA0000
00AFFE8100
0005EFFC10
0950E9EF60
4FC1F3AF60
2FFAF8EF20
07FFFFE600
002AE51000
0009B00000
0009800000
ENDCHAR
STARTCHAR percent
ENCODING 37
SWIDTH 896 0
DWIDTH 16 0
BBX 16 15 0 0
BITMAP
0029A50000193000
03EFFF5000AF9000
0BF5CFB15CFF4000
1FE09FFFFFFB0000
1FD02FFEDFF30000
0EF36F70DFA00000
07FFFD16FF200000
006A811EF9049940
0000007FE15FFFF4
000001EF70EF37FA
000008FE13FB02FD
00001EF605FA02FC
00008FD003FC07F9
0000EF5000DFCFE2
0000CA00002CFC30
ENDCHAR
STARTCHAR ampersand
ENCODING 38
SWIDTH 851 0
DWIDTH 15 0
BBX 15 19 0 -2
BITMAP
000007DEC5000000
0000AFFFFF400000
0004FF62AFA00000
0009FB005FC00000
000BF9006FB00000
000AFB01DF600000
0006FF3CFD100000
0001FFFFD2000000
0002EFFC20000000
004EFFFC00001870
03FFC7FF9000AFC0
0BFD10AFF506FF40
1FF7001DFE7FF800
2FF60003FFFFA000
0EFD4126DFFE1000
05FFFFFFFFFF9000
003AEFEB61DFF600
00000000003FFA00
0000000000037200
ENDCHAR
STARTCHAR quotesingle
ENCODING 39
SWIDTH 290 0
DWIDTH 5 0
BBX 4 6 2 10
BITMAP
3DD1
8FF2
AFE0
CFA0
EF70
BD20
ENDCHAR
STARTCHAR parenleft
ENCODING 40
SWIDTH 613 0
DWIDTH 11 0
BBX 13 21 1 -3
BITMAP
0000006CEEB400
00001BFFFFFF30
0000BFF724BE20
0006FF40000100
001EF900000000
007FF200000000
00DFA000000000
03FF5000000000
07FF1000000000
0BFB0000000000
0EF80000000000
1FF60000000000
3FF40000000000
4FF20000000000
5FF10000000000
5FF10000000000
4FF20000000000
2FF50006D00000
0CFC229FF10000
04FFFFFF500000
004CEEA2000000
ENDCHAR
STARTCHAR parenright
ENCODING 41
SWIDTH 613 0
DWIDTH 11 0
BBX 13 21 -2 -3
BITMAP
000003BEEA2000
00007FFFFFE200
0003FF823EF900
0002E50007FE00
0000000005FF20
0000000004FF30
0000000004FF20
0000000005FF20
0000000006FF00
0000000008FD00
000000000BFB00
000000000EF800
000000003FF400
000000008FE000
00000000DFA000
00000004FF4000
0000000CFC0000
0000007FF40000
3E9328FF800000
5FFFFFF9000000
05CFEB40000000
ENDCHAR
STARTCHAR asterisk
ENCODING 42
SWIDTH 520 0
DWIDTH 9 0
BBX 8 8 2 10
BITMAP
0007E100
3E4AF100
4FEBB7E4
03CFFFE4
AFFFF800
BC6FBFB0
008F3BB0
007D1000
ENDCHAR
STARTCHAR plus
ENCODING 43
SWIDTH 700 0
DWIDTH 13 0
BBX 11 12 1 0
BITMAP
000005500000
00001FE00000
00003FD00000
00005FB00000
00006FA00000
4EFFFFFFFF30
6FFFFFFFFF30
0333DF633200
0000DF300000
0000FF100000
0001FE000000
0001E9000000
ENDCHAR
STARTCHAR comma
ENCODING 44
SWIDTH 257 0
DWIDTH 5 0
BBX 4 7 0 -3
BITMAP
0371
1FF7
4FF7
5FF3
6FC0
9F60
8C00
ENDCHAR
STARTCHAR hyphen
ENCODING 45
SWIDTH 403 0
DWIDTH 7 0
BBX 6 3 1 4
BITMAP
489BC5
DFFFF7
686530
ENDCHAR
STARTCHAR period
ENCODING 46
SWIDTH 257 0
DWIDTH 5 0
BBX 4 4 0 0
BITMAP
1CE6
6FFC
7FFB
2DE4
ENDCHAR
STARTCHAR slash
ENCODING 47
SWIDTH 509 0
DWIDTH 9 0
BBX 10 18 0 0
BITMAP
00000000BB
00000006FE
0000000DF9
0000006FF2
000000DF90
000006FF20
00000DF900
00006FF200
0000DF9000
0006FF2000
000DF90000
006FF20000
00DF900000
06FF200000
0DF9000000
6FF2000000
BF90000000
9D10000000
ENDCHAR
STARTCHAR zero
ENCODING 48
SWIDTH 543 0
DWIDTH 10 0
BBX 10 11 0 0
BITMAP
0007EFE600
009FFFFF60
04FF41BFC0
0AF9004FF1
0EF5002FF2
0FF3003FF1
1FF3005FE0
0FF5009FA0
0CFC25FF40
05FFFFF900
005DFD7000
ENDCHAR
STARTCHAR one
ENCODING 49
SWIDTH 376 0
DWIDTH 7 0
BBX 5 12 1 0
BITMAP
003740
6EFFE0
EFFFD0
54BFA0
00DF80
00FF60
02FF50
04FF30
05FF10
07FE00
09FD00
05E700
ENDCHAR
STARTCHAR two
ENCODING 50
SWIDTH 560 0
DWIDTH 10 0
BBX 10 11 0 0
BITMAP
0019EFE910
00CFFFFFA0
05FE319FF0
07F9006FF1
03B4009FC0
000003FF50
00003EF900
0006EF9000
04CFE61110
1FFFFFFFF3
1EFFFFFFE2
ENDCHAR
STARTCHAR three
ENCODING 51
SWIDTH 520 0
DWIDTH 9 0
BBX 9 11 0 0
BITMAP
005CFFD800
06FFFFFF70
0DF812DFA0
0BD100DF80
00004AFD10
0008FFD200
00038CFD10
3D4000EF70
7FC316FF70
3FFFFFFE10
03BEFD9200
ENDCHAR
STARTCHAR four
ENCODING 52
SWIDTH 577 0
DWIDTH 10 0
BBX 10 12 0 0
BITMAP
0000650000
0008FD0000
001EF60000
008FD01DC0
01EF606FC0
06FD00AF90
0CF700DF60
1FFFFFFFFB
0DFFFFFFFB
001114FF20
000004FE00
000002EA00
ENDCHAR
STARTCHAR five
ENCODING 53
SWIDTH 518 0
DWIDTH 9 0
BBX 9 12 0 0
BITMAP
0000111100
04DFFFFFD0
08FFFFFFC0
00EF300000
03FE000000
06FFED8100
05FFFFFD10
000238FF60
0D9000CF80
2FF615FF50
0DFFFFFC00
029DFD9100
ENDCHAR
STARTCHAR six
ENCODING 54
SWIDTH 541 0
DWIDTH 10 0
BBX 10 11 0 0
BITMAP
0005CFFB20
007FFFFFD0
03FF714EF3
09FA000360
0DF9DFE600
0FFFFFFF40
1FFC22DFA0
0EF700AFA0
0BFC24EF70
04FFFFFD10
005CFE9100
ENDCHAR
STARTCHAR seven
ENCODING 55
SWIDTH 497 0
DWIDTH 9 0
BBX 10 12 0 0
BITMAP
0011111110
1DFFFFFFF3
1EFFFFFFF3
000008FE50
00008FE300
0004FF4000
000CFA0000
004FF40000
008FE00000
00BFC00000
00BFA00000
007E400000
ENDCHAR
STARTCHAR eight
ENCODING 56
SWIDTH 512 0
DWIDTH 9 0
BBX 9 11 0 0
BITMAP
003BEFE800
02EFFFFF70
08FD219FB0
08FB009F90
04FFAAFD10
009FFFF300
07FC7DFE20
2FE101CF80
3FF413DF70
1DFFFFFE10
02ADFD9200
ENDCHAR
STARTCHAR nine
ENCODING 57
SWIDTH 541 0
DWIDTH 10 0
BBX 10 11 0 0
BITMAP
002AFFD600
01EFFFFF40
08FE31BFC0
0AF9007FE0
0AFD23DFF1
04FFFFFFF0
006DEB9FD0
174000BF90
3FE428FF20
0DFFFFF600
02AEEB4000
ENDCHAR
STARTCHAR colon
ENCODING 58
SWIDTH 257 0
DWIDTH 5 0
BBX 5 9 0 0
BITMAP
04ED20
0CFF70
0CFF60
06EB10
000000
1CE600
6FFC00
7FFB00
2DE400
ENDCHAR
STARTCHAR semicolon
ENCODING 59
SWIDTH 257 0
DWIDTH 5 0
BBX 5 12 0 -3
BITMAP
04ED20
0CFF70
0CFF60
06EB10
000000
037100
1FF700
4FF700
5FF300
6FC000
9F6000
8C0000
ENDCHAR
STARTCHAR less
ENCODING 60
SWIDTH 700 0
DWIDTH 13 0
BBX 11 9 1 1
BITMAP
000000001630
0000015BFF90
0004AEFFFA20
08EFFFB61000
6FFE72000000
5FFFC7100000
028EFFFA4000
00005BFFFB00
00000028DA00
ENDCHAR
STARTCHAR equal
ENCODING 61
SWIDTH 700 0
DWIDTH 13 0
BBX 11 7 1 2
BITMAP
1DFFFFFFFF60
2FFFFFFFFF60
011111111100
000000000000
7FFFFFFFFD00
9FFFFFFFFD00
011111111000
ENDCHAR
STARTCHAR greater
ENCODING 62
SWIDTH 700 0
DWIDTH 13 0
BBX 11 9 1 1
BITMAP
045100000000
0FFE93000000
07DFFFC61000
0004AFFFE810
0000017EFF50
000039EFFE10
038DFFFB6100
8FFFC7200000
9D8300000000
ENDCHAR
STARTCHAR question
ENCODING 63
SWIDTH 476 0
DWIDTH 9 0
BBX 9 16 1 0
BITMAP
018DFDA200
0BFFFFFD10
3FE419FF40
5FB004FF40
1A6009FE10
00005FF600
0005FF8000
003EF70000
00CF600000
02FB000000
03E4000000
0000000000
4ED2000000
BFF7000000
CFF6000000
5EB1000000
ENDCHAR
STARTCHAR at
ENCODING 64
SWIDTH 1015 0
DWIDTH 18 0
BBX 18 20 0 -6
BITMAP
00000028CEFFD93000
000008FFFFFFFFF800
0001CFFA51014AFF60
000BFE400000006FE1
007FF4000000000CF6
01EF80007DE31007F8
07FE100AFFFFB006FA
0CF9007FF78FA006F9
1FF500EF70AF7009F8
3FF304FF10DF400DF4
4FF106FD02FF205FE0
4FF105FE19FF43EF70
2FF302FFFFCFFFFA00
0EF7005DE71BED7000
09FD10000000000000
02EFB1000000005600
005FFD6210148DFF00
0004EFFFFFFFFFD500
000017BEFFFC950000
000000001100000000
ENDCHAR
STARTCHAR A
ENCODING 65
SWIDTH 786 0
DWIDTH 14 0
BBX 16 16 1 0
BITMAP
0000016ADEFDB700
00006EFFFFFFFF10
000AFFE954469600
009FFA1002A90000
05FFA00007FF2000
0DFE10000AFE0000
4FF600000DFA0000
9FF200001FF70000
CFD000005FF40000
EFB00000AFF20000
FFA00001EFF00000
EFC00006FFE00021
BFF1001EFFE002D6
6FFC56DEAFF75DF3
0BFFFFF63FFFFF60
008DEC5005DEC500
ENDCHAR
STARTCHAR B
ENCODING 66
SWIDTH 827 0
DWIDTH 15 0
BBX 16 17 0 -1
BITMAP
000159CEEFEC9300
03AFFFFFFFFFFF70
5FFFB7421137EFF4
8E81120000004FF8
0002EF5000002FF9
0005FF3000008FF4
0008FE00014AFF90
000CFA05FFFFD600
000FF707FFFD3000
003FF40024CFF300
006FF200002FF900
008FF000001FF900
00AFD000008FF500
00CFC2235BFFC000
00DFFFFFFFFB1000
00EFFFFEC8300000
00CD500000000000
ENDCHAR
STARTCHAR C
ENCODING 67
SWIDTH 686 0
DWIDTH 12 0
BBX 14 16 1 0
BITMAP
000039DFEA2000
0007FFFFFFD100
008FFB425FF600
04FF90000CF900
0CFD00000DF800
3FF600000EF400
7FF20000023000
AFE00000000000
BFD00000000000
CFC00000000000
BFE00000000000
8FF40000000000
2FFC1000000053
08FFD621248EF8
008FFFFFFFFFD2
00039CEFEC8400
ENDCHAR
STARTCHAR D
ENCODING 68
SWIDTH 836 0
DWIDTH 15 0
BBX 15 16 0 0
BITMAP
00048CEFEC820000
04CFFFFFFFFE6000
1FFE842137EFF600
1C700100002DFE10
0003FF300005FF60
0007FF100001FF90
000BFC000000EFA0
000EF8000000FFA0
002FF5000001FF90
005FF2000005FF60
008FF000000AFF20
00AFD000004FFA00
00CFB00003EFE100
00EFA235AFFE4000
00FFFFFFFFC20000
008DEFED94000000
ENDCHAR
STARTCHAR E
ENCODING 69
SWIDTH 686 0
DWIDTH 12 0
BBX 15 16 0 0
BITMAP
000028CEFEA30000
0005FFFFFFFF4000
003FFD6214DFB000
009FF300009FC000
00AFF10000AF9000
005FFA3100361000
0005EFFF80000000
003BFFFF70000000
04EFD62100000000
1DFC100000000000
4FF5000000000000
6FF4000000000000
4FF9000000001740
0DFFA421247BFF80
02DFFFFFFFFFFC20
0006ADEFEDB73000
ENDCHAR
STARTCHAR F
ENCODING 70
SWIDTH 712 0
DWIDTH 13 0
BBX 17 16 0 0
BITMAP
000037BCEFFFEECB60
002CFFFFFFFFFFFFB0
01DFC63CFB11123410
05FD000DF900000000
06FC000FF800000000
03FF101FF700000000
0055003FF500000000
00003EFFFFFFF50000
00003FFFFFFFF40000
0000008FF111000000
000000AFD000000000
000000DFA000000000
C70003FF6000000000
EF724DFE1000000000
6FFFFFF60000000000
04BEEB400000000000
ENDCHAR
STARTCHAR G
ENCODING 71
SWIDTH 811 0
DWIDTH 15 0
BBX 16 25 1 -9
BITMAP
000029DFEC500000
0007FFFFFFF60000
008FFC523CFE0000
03FFA00005FF1000
0CFD100005FF1000
3FF6000006FB0000
8FF2000000310000
AFE0000000000000
BFD0000011110000
CFC00007FFFF7000
BFE00007FFFF8000
8FF4000000CF6000
2FFC100000EF42C7
08FFD62137FF6EF5
008FFFFFFFFFFE40
00039DEECBFFB100
000000003EFA0000
00000003EFF60000
0000002ECDF30000
000001DD2FE00000
000007F44FA00000
00000DD0AF500000
00000FC4FD000000
00000EFFF5000000
000005DE60000000
ENDCHAR
STARTCHAR H
ENCODING 72
SWIDTH 873 0
DWIDTH 16 0
BBX 19 17 -1 0
BITMAP
000000000000005EE500
0006CEC2000003FFFE00
01BFFFFA00000CF88F20
0BF92AFE00004FE07F10
3F8006FF1000AF809E00
180006FF0000EF40DA00
000008FE0004FF18F300
00000AFC0007FE9F7000
00001CFB112AFFE60000
002EFFFFFFFFFB100000
003EFFFFEC9EF8000000
00006FF2000EF8000000
00009FE0000EF9000000
0000DFB0000CFC0004D0
0001FF700007FF626ED0
0004FF300001DFFFFD20
0003EA0000002BEE9100
ENDCHAR
STARTCHAR I
ENCODING 73
SWIDTH 495 0
DWIDTH 9 0
BBX 11 16 -1 0
BITMAP
001BFFFFFFC0
001FFFFFFFB0
000019FE1100
00000BFC0000
00000DFA0000
00000FF80000
00002FF50000
00005FF30000
00007FF10000
00009FD00000
0000CFB00000
0000EF900000
0001FF700000
0004FF610000
1CFFFFFFC000
3EFFFFFFA000
ENDCHAR
STARTCHAR J
ENCODING 74
SWIDTH 743 0
DWIDTH 13 0
BBX 13 18 1 -2
BITMAP
0017ADEFEEC930
05EFFFFFFFFFB0
3FFA52112CFD30
9F9000000DFB00
AF7000000EF900
8FB000001FF700
2D8000003FF400
000000018FF200
0000007EFFE000
00003DFFEFB000
0005FFB2DF8000
003FF801FF4000
00CFA005FE0000
03FF200AF90000
05FF003FF30000
04FF32DF900000
01EFFFFC100000
003CFE91000000
ENDCHAR
STARTCHAR K
ENCODING 75
SWIDTH 937 0
DWIDTH 17 0
BBX 20 16 0 0
BITMAP
0005ADFED920001CE300
00AFFFFFFF90007FF300
07FE621CFD2000DFD000
0BF7000DFA0005FF6000
0BF6001FF7001DFC0000
07FA003FF501BFE20000
0052005FF46DFD300000
000009FFFFFF91000000
00000AFFFFF910000000
000000BFB6FFB0000000
000000DF909FF4000000
170001FF702FFB000060
7F5005FF300AFF4006F2
6FE43DFD0003FFD58FD0
1DFFFFF400009FFFFE20
019EFC40000008EEA200
ENDCHAR
STARTCHAR L
ENCODING 76
SWIDTH 673 0
DWIDTH 12 0
BBX 16 16 -1 0
BITMAP
00000006BEFD7000
000001CFFFFFF800
00000CFF722AFF10
00006FF60003FF30
0000BFE00004FF20
0000EFA00004FC00
0001FF8000002100
0002FF6000000000
0003FF5000000000
0004FF3000000000
0005FF2000000000
0006FF0000000031
08DFFE83000001E6
8FFFFFFFD7325DF2
AFFFFAEFFFFFFF50
3CFD50059DEEB300
ENDCHAR
STARTCHAR M
ENCODING 77
SWIDTH 1232 0
DWIDTH 22 0
BBX 25 16 0 0
BITMAP
005CEB1007DEA1006DFC300000
09FFFF60BFFFF808FFFFC00000
7FB2CF97F829FC4F92AFF10000
EB00AF9E8005FDCA006FF20000
7100BFCD1006FEF2008FF10000
0000DFF70008FFA000BFE00000
0000FFF2000AFF5000EFB00000
0002FFC0000DFE0002FF800000
0004FF80000FFB0005FF500000
0006FF40003FF80008FF100000
0009FF10005FF5000AFE000000
000BFD00008FF2000CFB000100
000DFB0000AFF0000DFB001C70
000FF90000CFD0000BFE33CF40
001FF70000DFA00005FFFFF700
000CE200009E5000006DEC5000
ENDCHAR
STARTCHAR N
ENCODING 78
SWIDTH 884 0
DWIDTH 16 0
BBX 19 16 0 0
BITMAP
005CEC2004BEE9000000
09FFFF805FFFFF800000
7FA2CFA3FB33EFC00000
EB00AFABB000BFD00000
7100CFBF2000CFC00000
0000DFE90000EFA00000
0000FFF30003FF700000
0002FFD00006FF400000
0004FF800009FF100000
0006FF50000CFD000000
0009FF10000EFA000000
000BFE00001FF7000100
000DFB00002FF7002E30
000FF900000FFB24EE10
001FF7000009FFFFE400
000CE20000019DEA2000
ENDCHAR
STARTCHAR O
ENCODING 79
SWIDTH 816 0
DWIDTH 15 0
BBX 14 16 1 0
BITMAP
000039DFDA4000
0008FFFFFFF700
008FFB414DFF40
04FF900002EFC0
0CFD0000009FF2
2FF70000006FF4
7FF20000004FF5
AFE00000005FF4
BFD00000006FF2
CFC00000009FE0
BFD0000000DFA0
9FF2000005FF50
4FF800002EFB00
0CFF8226EFD200
02DFFFFFFD2000
0017CEEC700000
ENDCHAR
STARTCHAR P
ENCODING 80
SWIDTH 805 0
DWIDTH 14 0
BBX 15 19 0 -3
BITMAP
0000005BEFEA4000
00002CFFFFFFF700
0003EFB4226EFF30
001DF9000004FF90
008FB02DD000EFC0
01EF208FF000EFB0
06FB00AFD002FF80
0AF600DFB009FF30
0DF300FF83AFF800
0FF0AEFFFFFF8000
2FE09FFFED930000
2FD008FF10000000
2FD00AFD00000000
1FF00CFB00000000
0EF30FF800000000
09FA4FF500000000
02FFFFF200000000
005EFF9000000000
0001540000000000
ENDCHAR
STARTCHAR Q
ENCODING 81
SWIDTH 816 0
DWIDTH 15 0
BBX 15 22 1 -6
BITMAP
000039DFDA300000
0007FFFFFFF70000
007FFB414DFF4000
03FF900002EFC000
0CFD0000009FF200
2FF70000006FF400
7FF20000004FF500
AFE00000005FF400
BFD00000006FF300
CFC0000000AFF000
CFD0000000EFB000
AFF2000006FF5000
5FF900003EFD0000
0DFF9337EFE30000
02DFFFFFFE300000
0018DFFF81000000
000006FFB0000000
000000BFF4000010
0000004FFB0004C0
0000000CFF715E90
00000003FFFFFD10
000000004DFEA100
ENDCHAR
STARTCHAR R
ENCODING 82
SWIDTH 880 0
DWIDTH 16 0
BBX 18 16 1 0
BITMAP
000018CEFEA4000000
0006EFFFFFFF800000
007FF94226EFF30000
04FE4053006FF70000
0DF607FD003FF80000
4FC00BFC004FF50000
9F700EF900BFD10000
CF302FF74BFE400000
EF16FFFFFFB2000000
FF05FFFFFD30000000
FF008FE3EFE1000000
EF10BFB05FF8000010
BF40DF900DFE1003F1
5FC4FF7005FFB25ED0
0BFFFF2000BFFFFE30
019EE7000019EEA200
ENDCHAR
STARTCHAR S
ENCODING 83
SWIDTH 693 0
DWIDTH 12 0
BBX 13 16 0 0
BITMAP
00005BDFEB6000
000BFFFFFFFA00
008FF83139FF40
00EF900000EF60
01FF600000EF60
00FFC10000BD10
009FFD50000000
001BFFFD710000
00006DFFFE4000
0000004BFFF300
1CC000005FFA00
5FF000000BFC00
5FF100000DFA00
2FFB4224BFF500
08FFFFFFFF8000
004ADEFDA30000
ENDCHAR
STARTCHAR T
ENCODING 84
SWIDTH 697 0
DWIDTH 13 0
BBX 17 16 0 0
BITMAP
00038BDEFFFFFFEB10
02CFFFFFFFFFFFFF20
0CFC631BFD11122200
3FE0000DFB00000000
5FC0001FF800000000
2FF2004FF500000000
0680006FF300000000
0000009FF000000000
000000BFD000000000
000000DFA000000000
000001FF8000000000
000003FF6000000000
000005FF4000000000
000007FF2000000000
000009FF1000000000
000005EA0000000000
ENDCHAR
STARTCHAR U
ENCODING 85
SWIDTH 890 0
DWIDTH 16 0
BBX 19 16 0 0
BITMAP
005CED4000003EA00000
09FFFFD000008FF00000
7FB39FF10000AFE00000
EB007FF10000CFC00000
71009FF00000FFA00000
0000CFC00003FF800000
0000EF900006FF500000
0003FF60000AFF300000
0006FF30001EFF100000
0009FE00006FFD000000
000CFB0000DEFB000000
000EF90006ECFA000210
001FF8004E8CFB004F40
000FFE79FD1CFF89FE20
000AFFFFE308FFFFF400
0001AEEA20008DEB3000
ENDCHAR
STARTCHAR V
ENCODING 86
SWIDTH 763 0
DWIDTH 14 0
BBX 15 16 2 0
BITMAP
1CE20002AED40000
4FF4000CFFFD0000
7FF3004FB3FF3000
8FF1007F50EF4000
AFE0008F40FF2000
BFD0007F63FF0000
BFC0003FD8FB0000
CFB0000BFFF92100
BFC00001CFFFFF40
BFC00000AFEDFE20
9FE00004FF300000
7FF1001DFA000000
4FF701BFD1000000
0EFFADFE30000000
07FFFFE400000000
008EEA2000000000
ENDCHAR
STARTCHAR W
ENCODING 87
SWIDTH 1217 0
DWIDTH 22 0
BBX 23 16 2 0
BITMAP
1CE2000007E800019ED50000
5FF400000EFA000AFFFF2000
7FF200002FF8002FD2EF5000
8FF000005FF6005F70CF6000
AFE000008FF4006F60DF5000
BFD00000CFF4005F91FF3000
CFC00001FFF3001FE7FE0000
CFB00005FFF20008FFFB2100
CFB0000AFFF30000AFFFFF60
CFB0001EFFF300008FEDEE40
AFD0007FBEF40001EF600000
8FF001DF5DF6000BFC000000
5FF509FD0AFB008FF3000000
1FFEBFF406FFBBFF60000000
09FFFF8001EFFFF700000000
00AED600004DEB4000000000
ENDCHAR
STARTCHAR X
ENCODING 88
SWIDTH 712 0
DWIDTH 13 0
BBX 17 16 -1 0
BITMAP
0019EEA200007EA000
02DFFFFD0006FF8000
0BF62AFF503FFB0000
094001EFA1DFD10000
000000AFEBFE200000
0000005FFFF4000000
0000002FFF70000000
0000003FFC00000000
000001DFFF00000000
00000CFFFF40000000
0000AFF5FF80000000
0008FF70CFC0000100
005FFA007FF1004F10
03FFD1002FFA25ED00
1DFE200009FFFFE300
2ED40000019DEA2000
ENDCHAR
STARTCHAR Y
ENCODING 89
SWIDTH 851 0
DWIDTH 15 0
BBX 18 22 0 -6
BITMAP
005CED4000003EC000
08FFFFD000008FF100
6FC39FF10000AFE000
EC107FF10000CFC000
82009FF00000EFA000
0000CFD00003FF8000
0000EFA00007FF6000
0003FF70000CFF4000
0005FF40003FFF2000
0007FF1000AEFF0000
0008FF1005FBFD0000
0006FF716FA9FB0000
0001EFFFFC1BFC9DF3
00003CED838EFFFFC1
00000002AFFFF94100
0000006FFB7FF20000
000007FD405FE00000
00003FE2009FA00000
00008F9002EF500000
00009FC12CFC000000
00006FFFFFD2000000
000007EFE910000000
ENDCHAR
STARTCHAR Z
ENCODING 90
SWIDTH 721 0
DWIDTH 13 0
BBX 16 16 0 0
BITMAP
0004ADEFEDC97200
01BFFFFFFFFFFE00
08FE731123DFE800
0DF6000006FF7000
0DF400001EFD0000
0AF800009FF40000
01720003FFA00000
0000000CFE100000
0000008FF6000000
000004FFC0000000
00001DFF30000000
0000AFF700000041
19EFFFE3000003E4
8FFFFFFFC6226EE1
AFFFFBEFFFFFFE30
3CFC4015ADEEA200
ENDCHAR
STARTCHAR bracketleft
ENCODING 91
SWIDTH 405 0
DWIDTH 7 0
BBX 8 20 1 -2
BITMAP
004DFFFB
00AFFFFC
00DF9110
00FF7000
02FF5000
04FF3000
06FF1000
08FE0000
0AFC0000
0CFA0000
0EF80000
1FF60000
3FF40000
4FF20000
6FF10000
8FE00000
AFC00000
CFFFFB00
7FFFFB00
00111000
ENDCHAR
STARTCHAR backslash
ENCODING 92
SWIDTH 509 0
DWIDTH 9 0
BBX 7 18 2 0
BITMAP
AC000000
FF400000
DF800000
9FC00000
5FF10000
1FF50000
0CF90000
08FD0000
04FF2000
00EF6000
00BFA000
007FE000
003FF300
000EF700
000AFB00
0006FF10
0002FF30
0000AC10
ENDCHAR
STARTCHAR bracketright
ENCODING 93
SWIDTH 405 0
DWIDTH 7 0
BBX 8 20 -1 -2
BITMAP
009FFFF8
00BFFFFD
00011BFB
00000CFA
00000EF8
00001FF6
00003FF4
00005FF2
00007FF0
00009FD0
0000BFB0
0000CF90
0000EF70
0001FF50
0003FF30
0005FF10
0007FE00
AFFFFC00
BFFFF600
01110000
ENDCHAR
STARTCHAR asciicircum
ENCODING 94
SWIDTH 700 0
DWIDTH 13 0
BBX 10 10 1 1
BITMAP
00001BC000
00007FF300
0001EFF800
0008F9FC00
002FE1CF20
009F708F60
02FE103FB0
0AF7000EE1
3FE1000AF4
4E500004E3
ENDCHAR
STARTCHAR underscore
ENCODING 95
SWIDTH 354 0
DWIDTH 6 0
BBX 7 3 -1 -2
BITMAP
01111100
4FFFFFB0
3FFFFFA0
ENDCHAR
STARTCHAR grave
ENCODING 96
SWIDTH 600 0
DWIDTH 11 0
BBX 4 6 2 10
BITMAP
8E20
CF90
5FE1
09F7
01DD
003D
ENDCHAR
STARTCHAR a
ENCODING 97
SWIDTH 470 0
DWIDTH 8 0
BBX 11 9 0 0
BITMAP
0006DE310000
009FFFFC0000
06FF78FB0000
0DF80AF80000
3FF10DF50010
5FE01FF309B0
4FF39FF59F80
1EFFFCFFFB00
05DE71BE9000
ENDCHAR
STARTCHAR b
ENCODING 98
SWIDTH 473 0
DWIDTH 9 0
BBX 10 18 1 0
BITMAP
0007EC1000
006FFF8000
00EE4FA000
06F81FA000
0CF43F7000
1FF18F3000
5FC0DB0000
8FA5F30000
AF8D900000
DFCFFC1000
EFFBFFA000
FFB0FFF134
FF50CFFFFD
EF402FFFD7
DF502FD000
9FC2AF8000
3FFFFD1000
05DFB20000
ENDCHAR
STARTCHAR c
ENCODING 99
SWIDTH 368 0
DWIDTH 7 0
BBX 9 9 0 0
BITMAP
003BEB1000
04FFFF8000
0DFA4F9000
3FF14F5000
5FE0020030
5FE00009E0
3FF824BFA0
0BFFFFFB10
019EFC6000
ENDCHAR
STARTCHAR d
ENCODING 100
SWIDTH 515 0
DWIDTH 9 0
BBX 12 18 0 0
BITMAP
00000002CD30
0000000CFFB0
0000005F9CE0
000000AF4AE0
000000EF1BC0
000003FD0DA0
000005FB1F60
000008F96F20
000009F8AC00
0006DFF8F600
00AFFFFDE100
06FF6DFF8000
0EF70DFE1000
3FF10CF80011
5FE00BF601C8
4FF36FFB2BF5
1EFFFBFFFF80
04DE906ED600
ENDCHAR
STARTCHAR e
ENCODING 101
SWIDTH 393 0
DWIDTH 7 0
BBX 10 9 0 0
BITMAP
004CEC3000
04FFFFC000
0DF83FE000
3FE03FB000
5FD8EE3021
5FFE9204E5
2FF8239FE2
0AFFFFFE40
008DFD9200
ENDCHAR
STARTCHAR f
ENCODING 102
SWIDTH 371 0
DWIDTH 7 0
BBX 9 24 0 -6
BITMAP
000009E900
0000AFFF30
0004FC7F50
000BF55F50
002FE17F40
007FB0BE10
00CF71FA00
01FF47F300
04FF2E9000
06FDAD1000
09FEF40000
0BFF600000
0DF8000000
0EF6EFFF70
0FF9FFFD30
0FF7F31000
1FF4F50000
1FF3E70000
0FF4D80000
0EF4C90000
0CF5C80000
0AF8E70000
06FFF20000
00BF800000
ENDCHAR
STARTCHAR g
ENCODING 103
SWIDTH 479 0
DWIDTH 9 0
BBX 11 18 0 -9
BITMAP
0006DE320000
009FFFFB0000
06FF78FA0000
0DF80AF80000
3FF20DF50110
5FE01FF35E80
4FE29FFAFF40
1EFFFFFFD300
05DE9FFA1000
0004EFA00000
004EFF600000
03ECDF300000
1DD2FE000000
6F44FA000000
CD0AF5000000
FD4FD0000000
DFFF50000000
4DE600000000
ENDCHAR
STARTCHAR h
ENCODING 104
SWIDTH 502 0
DWIDTH 9 0
BBX 12 18 0 0
BITMAP
00007EC10000
0005FFF80000
000DE4FB0000
005F91FA0000
00BF43F70000
00EF17F30000
04FD0DB00000
07FA7F300000
09FAE8000000
0BFFC4CE3000
0DFE5FFF6000
0EF5DFFF4000
0FF9F4FF1000
0FFE83FE0031
0FFF26FB03E5
1FFC08FC4DE2
0FF806FFFE40
0CC201CEB300
ENDCHAR
STARTCHAR i
ENCODING 105
SWIDTH 246 0
DWIDTH 4 0
BBX 7 13 0 0
BITMAP
00BE8000
04FFD000
01CE6000
00000000
03EA0000
08FA0000
0BF80000
0EF50000
1FF20130
2FF10BB0
1FF4AF70
0DFFFA00
04DE8000
ENDCHAR
STARTCHAR j
ENCODING 106
SWIDTH 254 0
DWIDTH 5 0
BBX 12 22 -5 -9
BITMAP
0000004DD300
000000AFF700
0000005EC200
000000000000
0000004EA000
0000008FB000
000000AF9000
000000CF7000
000000DF5011
000000FF34E7
000001FF8FE3
000003FFFC20
000005FF9100
00002DF90000
0003EFF60000
002ECDF30000
01DD2FE00000
07F45FA00000
0DC0AF500000
1FC4FD000000
0EFFF5000000
05EE60000000
ENDCHAR
STARTCHAR k
ENCODING 107
SWIDTH 525 0
DWIDTH 9 0
BBX 11 18 1 0
BITMAP
0007EC100000
005FFF800000
00DE4FB00000
05F91FA00000
0BF43F700000
0EF17F200000
4FD0DA000000
7FA7E2000000
9FAE60000000
BFFA4CE70000
DFC5FFFF2000
EF4DB4FF3000
FFAE14FE1000
FFF75EF60140
FFF4FF500BB0
FFC2FF72AF70
DF80CFFFFA00
8E202AED8000
ENDCHAR
STARTCHAR l
ENCODING 108
SWIDTH 326 0
DWIDTH 6 0
BBX 8 18 1 0
BITMAP
0007EC10
005FFF70
00DE5FA0
05F91FA0
0BF42F90
1FF14F70
4FC08F30
7F90CE00
AF72F800
CF58F200
EF5E9000
EFCF2000
FFF80000
EFD10020
DF6004F2
9FB25ED1
3FFFFE30
06EEA200
ENDCHAR
STARTCHAR m
ENCODING 109
SWIDTH 744 0
DWIDTH 13 0
BBX 16 9 0 0
BITMAP
02DA06EC01AE8000
08F96FFF1CFFB000
0BF7EFFE8FFF9000
0EFBD5FCE8BF7000
0FFE66FFD0DF4013
1FFE17FF80FF10BA
1FFB09FF32FF4AF7
0EF608FD01FFFF90
09D103E7008ED700
ENDCHAR
STARTCHAR n
ENCODING 110
SWIDTH 496 0
DWIDTH 9 0
BBX 12 9 0 0
BITMAP
02DA05DE2000
08F94FFF4000
0BF6EFFF2000
0EFAE5FF0000
0FFE75FC0030
1FFF17F904F3
1FFB09FB4EE1
0EF608FFFE30
09D102CEB300
ENDCHAR
STARTCHAR o
ENCODING 111
SWIDTH 451 0
DWIDTH 8 0
BBX 11 9 0 0
BITMAP
004CEC500000
04FFFFF30000
0DF97FFA1310
3FF14FFFFF70
5FD008FFFC30
5FE007F80000
2FF63EF20000
0AFFFF800000
019EE8000000
ENDCHAR
STARTCHAR p
ENCODING 112
SWIDTH 481 0
DWIDTH 9 0
BBX 14 18 -3 -9
BITMAP
00008E49EC2000
0000DFDFFFA000
0000DFE47FE000
0000DF704FE000
0000DF607FC002
0001EF50CF707E
0008FF58FF27FB
001EFFEFFFFFD1
007EEFEB7EE910
00D9EF30000000
04F4FF20000000
08E1FF00000000
0CB2FD00000000
0F84FA00000000
1F77F700000000
2F9BF200000000
0EFFB000000000
06EC2000000000
ENDCHAR
STARTCHAR q
ENCODING 113
SWIDTH 500 0
DWIDTH 9 0
BBX 12 18 0 -8
BITMAP
0000007F6000
0006CEEF6000
009FFFFF3000
06FF87FE0000
0DF809FA0000
3FF20DF60000
5FE02FF5EFF5
4FF3AFE7FFE2
1EFFFFC6F100
05DDAFA5F100
0000BF85F100
0000DF65F000
0000DF56E000
0000EF58D000
0000DF6BA000
0000BFBE6000
00007FFF1000
00001CE50000
ENDCHAR
STARTCHAR r
ENCODING 114
SWIDTH 455 0
DWIDTH 8 0
BBX 11 9 0 0
BITMAP
02DA05DE2000
08F95FFF4000
0BF7EEFF2000
0EFAE3FF29A0
0FFE62FFFF80
1FFF10BFF800
1FFB00021000
0EF600000000
09D100000000
ENDCHAR
STARTCHAR s
ENCODING 115
SWIDTH 427 0
DWIDTH 8 0
BBX 11 9 -1 0
BITMAP
00006E800000
0001EF400000
0006FF200000
000DFFB00000
007F8FF70160
03FA09FD0BF0
0DD5ACFFCFB0
1C3AFFFFFE20
0004DFFEA200
ENDCHAR
STARTCHAR t
ENCODING 116
SWIDTH 393 0
DWIDTH 7 0
BBX 10 17 0 0
BITMAP
00003CE300
0001DFFA00
0009F6EC00
001ED0EB00
006F91F900
00AF66F300
00DF4EA000
01FFCD1000
CFFFFFFE00
DFFFFFFA00
06FC110000
06FC000000
06FD000010
04FF0002E5
01FF924DF3
009FFFFF60
0008EEB400
ENDCHAR
STARTCHAR u
ENCODING 117
SWIDTH 462 0
DWIDTH 8 0
BBX 11 9 0 0
BITMAP
02DB00CC0000
07FA04FC0000
0BF709F90000
0EF40EF60000
0FF25FF30120
1FF1CFF01C90
2FFDDFF3BF50
0EFF7EFFF800
05EA06ED6000
ENDCHAR
STARTCHAR v
ENCODING 118
SWIDTH 449 0
DWIDTH 8 0
BBX 11 9 0 0
BITMAP
0DD006E90000
1FF13FFD0000
1FF15FFA1410
1FF23FFFFF70
0FF39FEFFC20
0EF6FE100000
0DFEF7000000
0BFFC0000000
03EC20000000
ENDCHAR
STARTCHAR w
ENCODING 119
SWIDTH 700 0
DWIDTH 13 0
BBX 15 9 0 0
BITMAP
0DD003E701CE3000
1FF10AF909FF6000
1FF11FF90CFF3340
1FF27FFA0AFFFFE0
0FF3DFFB2FFEFE70
0EF8FAFBAF800000
0DFEF4FEFE100000
0BFF90FFF5000000
03EC108E80000000
ENDCHAR
STARTCHAR x
ENCODING 120
SWIDTH 529 0
DWIDTH 10 0
BBX 12 9 0 0
BITMAP
01BEC24CE700
06FFFDFFFB00
05E4EFF4E600
0000BFC00000
0630CF900015
7F80EF9000BC
AF87FFE32AF8
8FFFEFFFFFA0
1BEB24CFD700
ENDCHAR
STARTCHAR y
ENCODING 121
SWIDTH 479 0
DWIDTH 9 0
BBX 12 18 -1 -9
BITMAP
002DB00CC000
007FA04FC000
00BF709FA000
00EF40EF7000
00FF25FF5022
01FF1CFF34E8
02FFDEFF8FE3
00EFFAFFFC20
005EA5FF9000
00003EF90000
0003EFF50000
003ECDF20000
01DD2FE00000
08F45F900000
0DC0AF400000
1FC4FD000000
0EFFF5000000
05EE60000000
ENDCHAR
STARTCHAR z
ENCODING 122
SWIDTH 445 0
DWIDTH 8 0
BBX 10 9 1 0
BITMAP
BFFFFFF600
CFFFFFF600
014CFE8000
07FF910000
5FF4000041
CFA00005F5
CFD3139FE1
6FFFFFFD30
05CEEC7100
ENDCHAR
STARTCHAR braceleft
ENCODING 123
SWIDTH 490 0
DWIDTH 9 0
BBX 10 20 1 -2
BITMAP
000018DFD3
0000BFFFE4
0004FF8200
0007FE0000
0009FD0000
000BFB0000
000DF90000
016FF50000
BFFF900000
DFFF400000
03DFC00000
008FE00000
009FD00000
00AFB00000
00CF900000
00EF800000
00EF700000
00CFC31000
006FFFF600
0006DFD400
ENDCHAR
STARTCHAR bar
ENCODING 124
SWIDTH 326 0
DWIDTH 6 0
BBX 6 24 0 -6
BITMAP
0005E8
0009F9
000BF8
000DF6
000FF4
002FF2
003FF0
006FD0
008FB0
00AF90
00CF70
00EF50
01FF30
03FF10
05FD00
07FB00
0AF900
0CF700
0EF500
1FF300
2FF100
4FF000
6FD000
4E8000
ENDCHAR
STARTCHAR braceright
ENCODING 125
SWIDTH 490 0
DWIDTH 9 0
BBX 10 20 -1 -2
BITMAP
008EEC4000
00BFFFF200
00015FF700
00000DF900
00000EF700
00001FF600
00003FF400
00002FF810
00000AFFF9
00000AFFF8
00007FF510
0000CFA000
0000EF7000
0001FF6000
0002FF4000
0003FF3000
0006FF1000
013DFB0000
9FFFF30000
8EEB400000
ENDCHAR
STARTCHAR asciitilde
ENCODING 126
SWIDTH 700 0
DWIDTH 13 0
BBX 11 5 1 3
BITMAP
005610001610
08FFE710AF60
3FF9FFD8FF20
8F803DFFF900
2600019EA100
ENDCHAR
STARTCHAR uni00A0
ENCODING 160
SWIDTH 265 0
DWIDTH 5 0
BBX 1 1 0 0
BITMAP
00
ENDCHAR
STARTCHAR exclamdown
ENCODING 161
SWIDTH 340 0
DWIDTH 6 0
BBX 7 17 -1 -8
BITMAP
0004ED20
000BFF70
000CFF70
0006EC10
00000000
0008C000
000EE000
004FC000
008FA000
00CF7000
01FF4000
05FF2000
09FE0000
0DFB0000
2FF80000
5FF40000
5EB00000
ENDCHAR
STARTCHAR cent
ENCODING 162
SWIDTH 466 0
DWIDTH 8 0
BBX 8 14 0 -3
BITMAP
00002500
00007C00
00009A00
002AEFB1
03EFFEF9
0BF6E6FA
1FF1F5E4
3FE2F000
2FF4E05A
0CFDD7FA
03EFFFD2
002CC610
000C7000
000C4000
ENDCHAR
STARTCHAR sterling
ENCODING 163
SWIDTH 525 0
DWIDTH 9 0
BBX 10 11 0 0
BITMAP
0003BFFD40
002EFFFFF2
00AFD32DF6
00EF4004A2
03FF211000
5FFFFFF200
6FFFFFE100
06FC000000
08FB111100
7FFFFFFFE1
7FFFFFFFC0
ENDCHAR
STARTCHAR currency
ENCODING 164
SWIDTH 700 0
DWIDTH 13 0
BBX 9 9 2 1
BITMAP
9C5CEB5D70
6FFFFFFF40
0DE527FA00
2F9000BF00
4F60008F20
2F8000AF00
0DE416FA00
5FFFFFFE30
9C6CEB6D70
ENDCHAR
STARTCHAR yen
ENCODING 165
SWIDTH 497 0
DWIDTH 9 0
BBX 10 12 0 0
BITMAP
1630000173
5FE1000BF9
2FF6005FE2
09FD01EF70
02FF48FC00
00AFCFF300
003FFF8000
1EFFFFFF20
023CFA3200
3EFFFFFE00
023FF73200
000DE20000
ENDCHAR
STARTCHAR brokenbar
ENCODING 166
SWIDTH 326 0
DWIDTH 6 0
BBX 6 24 0 -6
BITMAP
0005E7
0009F9
000BF7
000DF5
000FF4
002FF2
004FF0
006FD0
008FB0
00AF80
002610
000000
000000
005300
05FD00
07FC00
09FA00
0BF800
0DF600
0FF400
2FF200
4FF000
6FD000
5E7000
ENDCHAR
STARTCHAR section
ENCODING 167
SWIDTH 607 0
DWIDTH 11 0
BBX 9 16 1 0
BITMAP
0006CFEA10
008FFFFFB0
01FF614FF0
03FE000FF0
01FF600970
00DFFC5000
08FBEFFC10
0DF217FF80
0DF8007FA0
08FFD6BF60
007EFFFA00
39216DFB00
AF5004FE00
AFA328FD00
5FFFFFF600
05CEEC5000
ENDCHAR
STARTCHAR dieresis
ENCODING 168
SWIDTH 600 0
DWIDTH 11 0
BBX 7 3 2 10
BITMAP
3EB06E80
8FF1CFC0
5EA08E60
ENDCHAR
STARTCHAR copyright
ENCODING 169
SWIDTH 647 0
DWIDTH 12 0
BBX 11 12 1 6
BITMAP
0007CEDA3000
01BD634AF500
09D16DE67E20
2F44E46D0C80
6E0B803808D0
7D0E500006E0
6E0D600007D0
3F39C13A0BA0
0BB1AEC35F30
02DB3017F700
0019FFFD5000
000002100000
ENDCHAR
STARTCHAR ordfeminine
ENCODING 170
SWIDTH 393 0
DWIDTH 7 0
BBX 7 7 1 8
BITMAP
005CE730
06FDAF90
1FE28F70
7F90BF50
8F71FF30
6FDCFF30
1BE8CE10
ENDCHAR
STARTCHAR guillemotleft
ENCODING 171
SWIDTH 615 0
DWIDTH 11 0
BBX 11 7 0 1
BITMAP
0008E401AE20
03CFF45EFD20
3FFC36FFA100
7FE20AFD0000
1DFD33EFC100
01BFE33DFD10
0009D202CC10
ENDCHAR
STARTCHAR logicalnot
ENCODING 172
SWIDTH 700 0
DWIDTH 13 0
BBX 11 7 1 0
BITMAP
011111111000
4FFFFFFFFE20
5FFFFFFFFF40
00000001FF20
00000002FF10
00000004FE00
00000002E900
ENDCHAR
STARTCHAR uni00AD
ENCODING 173
SWIDTH 403 0
DWIDTH 7 0
BBX 6 3 1 4
BITMAP
489BC5
DFFFF7
686530
ENDCHAR
STARTCHAR registered
ENCODING 174
SWIDTH 647 0
DWIDTH 12 0
BBX 11 12 1 6
BITMAP
0007CEDA3000
01BD634AF500
09D3CFD47E20
2F41C67D0C80
6E00E49A08D0
7D01FF9106E0
6E04D8C007D0
3F36C1E50BA0
0BB470665F30
02DB3017F700
0019FFFD5000
000002100000
ENDCHAR
STARTCHAR macron
ENCODING 175
SWIDTH 600 0
DWIDTH 11 0
BBX 7 3 2 10
BITMAP
01111100
3FFFFF30
4FFFFE20
ENDCHAR
STARTCHAR degree
ENCODING 176
SWIDTH 385 0
DWIDTH 7 0
BBX 7 6 1 10
BITMAP
02CFD300
0CFFFE00
3F919F30
3F92AF20
0EFFFC00
03CFB200
ENDCHAR
STARTCHAR plusminus
ENCODING 177
SWIDTH 700 0
DWIDTH 13 0
BBX 10 11 1 0
BITMAP
00000CC000
00002FE000
00236FC331
07FFFFFFFB
06FFFFFFF8
00009F7000
0000BF5000
0000AE1000
0233333320
2FFFFFFFF1
2EFFFFFFC0
ENDCHAR
STARTCHAR uni00B2
ENCODING 178
SWIDTH 450 0
DWIDTH 8 0
BBX 8 9 1 6
BITMAP
03BEEA10
1EE9CFA0
6F704FD0
3B207FB0
0001EF50
002CF900
07EF7000
AFFDBBA0
CFFFFFD1
ENDCHAR
STARTCHAR uni00B3
ENCODING 179
SWIDTH 450 0
DWIDTH 8 0
BBX 8 9 1 6
BITMAP
02AEEC40
1EFABFE0
3F702FF1
0302AFA0
004FFB00
0017DF90
8D004FE0
9FB9DFA0
19DFD910
ENDCHAR
STARTCHAR acute
ENCODING 180
SWIDTH 600 0
DWIDTH 11 0
BBX 5 6 4 10
BITMAP
003E60
00BFA0
02FF40
08F800
0EC000
1D3000
ENDCHAR
STARTCHAR uni00B5
ENCODING 181
SWIDTH 462 0
DWIDTH 8 0
BBX 11 14 0 -5
BITMAP
02DB00CC0000
07FA04FC0000
0BF709F90000
0EF40EF60000
1FF25FF30120
2FF1CFF01C90
4FFDDFF3BF50
5FFF8EFFF800
6FFB16ED6000
7FB000000000
7FA000000000
7FA000000000
7FA000000000
5E7000000000
ENDCHAR
STARTCHAR paragraph
ENCODING 182
SWIDTH 739 0
DWIDTH 13 0
BBX 12 16 1 0
BITMAP
0017CEFFEC70
03EFFFFFFFF6
0DFFFFF83FF9
2FFFFFF51FF7
2FFFFFF33FF5
0BFFFFF05FF2
01BFFFD07FF0
0002CFB0AFC0
0000DF80CFA0
0001FF60FF70
0003FF42FF50
0005FF24FF30
0007FF07FF10
0009FD08FF00
000BFC0AFD00
0007F706F800
ENDCHAR
STARTCHAR periodcentered
ENCODING 183
SWIDTH 257 0
DWIDTH 5 0
BBX 5 4 0 3
BITMAP
08EA00
1FFF20
2FFF20
09E800
ENDCHAR
STARTCHAR cedilla
ENCODING 184
SWIDTH 600 0
DWIDTH 11 0
BBX 6 6 1 -5
BITMAP
0AFC40
0CFFE1
002BF3
012CF1
CFFFA0
AFE910
ENDCHAR
STARTCHAR uni00B9
ENCODING 185
SWIDTH 450 0
DWIDTH 8 0
BBX 6 9 1 6
BITMAP
016BEA
1EFFFB
0859F9
000AF7
000CF5
000EF3
001FF1
003FE0
002E90
ENDCHAR
STARTCHAR ordmasculine
ENCODING 186
SWIDTH 408 0
DWIDTH 7 0
BBX 7 7 1 8
BITMAP
01AED700
0CFBEF40
4FA06F90
7F705FA0
6F908F70
2FFAFE10
05DEB300
ENDCHAR
STARTCHAR guillemotright
ENCODING 187
SWIDTH 615 0
DWIDTH 11 0
BBX 11 7 0 1
BITMAP
0BC202DA1000
0CFE32EFC200
01BFE42DFD20
000BFB01EF80
019FF82CFF40
1DFE63EFD300
1DB203E91000
ENDCHAR
STARTCHAR onequarter
ENCODING 188
SWIDTH 955 0
DWIDTH 17 0
BBX 16 16 1 -1
BITMAP
016BEA0000000000
1EFFFB0002E60000
0859F9000BF80000
000AF7005FE10000
000CF500DF600000
000EF307FD000000
001FF11EF4000000
003FE09FB00BE000
002E93FF206FB120
00000BF900DF3DE0
00005FE105FA3FC0
0000CF600BF46F90
0000AC001FFBDFD6
000000001DFFFFF8
000000000000BF30
0000000000009D10
ENDCHAR
STARTCHAR onehalf
ENCODING 189
SWIDTH 1024 0
DWIDTH 18 0
BBX 17 16 1 -1
BITMAP
016BEA000000000000
1EFFFB0002E6000000
0859F9000BF8000000
000AF7005FE1000000
000CF500DF60000000
000EF307FD00000000
001FF11EF400000000
003FE09FB007DFD600
002E93FF207FC9FF30
00000BF900CE10BF70
00005FE1008800DF50
0000CF60000007FD00
0000AC0000006FE300
00000000002BFC3000
0000000003EFFBBB50
0000000004FFFFFF70
ENDCHAR
STARTCHAR threequarters
ENCODING 190
SWIDTH 1035 0
DWIDTH 19 0
BBX 18 16 1 -1
BITMAP
02AEEC400000000000
1EFABFE0000AC00000
3F702FF1005FE00000
0302AFA000DF700000
004FFB0007FD000000
0017DF901EF4000000
8D004FE09FB0000000
9FB9DFA3FF305E6000
19DFD91BF900DF3300
0000005FE106F97F50
000000DF700DF2BF40
000005FD005FA0EF10
000004E400AFDBFFA1
00000000008FFFFFD1
00000000000005FA00
00000000000003E600
ENDCHAR
STARTCHAR questiondown
ENCODING 191
SWIDTH 476 0
DWIDTH 9 0
BBX 9 17 -1 -8
BITMAP
000005EC10
00000DFF50
00000DFF50
000007EB00
0000000000
000009A000
00002FB000
0000AF8000
0007FE1000
008FF50000
07FF700000
3FFA000000
9FF101EA00
BFD002FE00
AFE429FB00
4FFFFFF400
05CEEB4000
ENDCHAR
STARTCHAR Agrave
ENCODING 192
SWIDTH 786 0
DWIDTH 14 0
BBX 16 22 1 0
BITMAP
0000055000000000
00001FF800000000
00000BFFA0000000
0000007EFB000000
000000018E200000
0000000000000000
0000016ADEFDB700
00006EFFFFFFFF10
000AFFE954469600
009FFA1002A90000
05FFA00007FF2000
0DFE10000AFE0000
4FF600000DFA0000
9FF200001FF70000
CFD000005FF40000
EFB00000AFF20000
FFA00001EFF00000
EFC00006FFE00021
BFF1001EFFE002D6
6FFC56DEAFF75DF3
0BFFFFF63FFFFF60
008DEC5005DEC500
ENDCHAR
STARTCHAR Aacute
ENCODING 193
SWIDTH 786 0
DWIDTH 14 0
BBX 16 22 1 0
BITMAP
0000000000002600
000000000004EF60
00000000005FFE30
0000000006FF9200
000000000BB30000
0000000000000000
0000016ADEFDB700
00006EFFFFFFFF10
000AFFE954469600
009FFA1002A90000
05FFA00007FF2000
0DFE10000AFE0000
4FF600000DFA0000
9FF200001FF70000
CFD000005FF40000
EFB00000AFF20000
FFA00001EFF00000
EFC00006FFE00021
BFF1001EFFE002D6
6FFC56DEAFF75DF3
0BFFFFF63FFFFF60
008DEC5005DEC500
ENDCHAR
STARTCHAR Acircumflex
ENCODING 194
SWIDTH 786 0
DWIDTH 14 0
BBX 16 22 1 0
BITMAP
000000002BF70000
00000000BFFF1000
00000006FC9F6000
0000001EF34FC000
0000003E800CA000
0000000000000000
0000016ADEFDB700
00006EFFFFFFFF10
000AFFE954469600
009FFA1002A90000
05FFA00007FF2000
0DFE10000AFE0000
4FF600000DFA0000
9FF200001FF70000
CFD000005FF40000
EFB00000AFF20000
FFA00001EFF00000
EFC00006FFE00021
BFF1001EFFE002D6
6FFC56DEAFF75DF3
0BFFFFF63FFFFF60
008DEC5005DEC500
ENDCHAR
STARTCHAR Atilde
ENCODING 195
SWIDTH 786 0
DWIDTH 14 0
BBX 16 21 1 0
BITMAP
00000009E8003500
0000007FFFC3EE00
000000DF4BFFF800
00000054008EA000
0000000000000000
0000016ADEFDB700
00006EFFFFFFFF10
000AFFE954469600
009FFA1002A90000
05FFA00007FF2000
0DFE10000AFE0000
4FF600000DFA0000
9FF200001FF70000
CFD000005FF40000
EFB00000AFF20000
FFA00001EFF00000
EFC00006FFE00021
BFF1001EFFE002D6
6FFC56DEAFF75DF3
0BFFFFF63FFFFF60
008DEC5005DEC500
ENDCHAR
STARTCHAR Adieresis
ENCODING 196
SWIDTH 786 0
DWIDTH 14 0
BBX 16 20 1 0
BITMAP
0000000BE32DD100
0000003FF67FF300
0000001DD24EB000
0000000000000000
0000016ADEFDB700
00006EFFFFFFFF10
000AFFE954469600
009FFA1002A90000
05FFA00007FF2000
0DFE10000AFE0000
4FF600000DFA0000
9FF200001FF70000
CFD000005FF40000
EFB00000AFF20000
FFA00001EFF00000
EFC00006FFE00021
BFF1001EFFE002D6
6FFC56DEAFF75DF3
0BFFFFF63FFFFF60
008DEC5005DEC500
ENDCHAR
STARTCHAR Aring
ENCODING 197
SWIDTH 786 0
DWIDTH 14 0
BBX 16 23 1 0
BITMAP
000000004EF80000
00000001EFFF4000
00000004F74F7000
00000004F85F7000
00000001EFFF2000
000000005DE50000
0000000000000000
0000016ADEFDB700
00006EFFFFFFFF10
000AFFE954469600
009FFA1002A90000
05FFA00007FF2000
0DFE10000AFE0000
4FF600000DFA0000
9FF200001FF70000
CFD000005FF40000
EFB00000AFF20000
FFA00001EFF00000
EFC00006FFE00021
BFF1001EFFE002D6
6FFC56DEAFF75DF3
0BFFFFF63FFFFF60
008DEC5005DEC500
ENDCHAR
STARTCHAR AE
ENCODING 198
SWIDTH 1015 0
DWIDTH 18 0
BBX 20 16 1 0
BITMAP
0000028DF709EFFFFF40
00008FFFFA6FFFFFFF30
000AFFE850BFB1111000
00AFFA1000FF70000000
05FFA00004FF40000000
0DFE100008FF10000000
4FF700000BFD00000000
9FF200001FFFFFFFE100
CFD000004FFFFFFFD100
EFB000009FF511110000
FFA00000EFF300000000
EFB00005FFF400000000
BFE1000DFFF900000052
6FFA23BF7BFF83137DF7
0BFFFFFB02DFFFFFFFC1
007DFD810018CEFDA500
ENDCHAR
STARTCHAR Ccedilla
ENCODING 199
SWIDTH 686 0
DWIDTH 12 0
BBX 14 21 1 -5
BITMAP
000039DFEA2000
0007FFFFFFD100
008FFB425FF600
03FF90000CF900
0CFD00000DF800
3FF600000EF400
7FF20000023000
AFE00000000000
BFD00000000000
CFC00000000000
BFE00000000000
8FF40000000000
2FFC1000000053
09FFD621248EF8
009FFFFFFFFFD2
0005FFFFEC9500
0002ADFA000000
000000ED000000
000115FC000000
003FFFF5000000
002DFD60000000
ENDCHAR
STARTCHAR Egrave
ENCODING 200
SWIDTH 686 0
DWIDTH 12 0
BBX 15 22 0 0
BITMAP
0000630000000000
0005FE5000000000
0002EFF600000000
000019FF70000000
0000002AC0000000
0000000000000000
000028CEFEA30000
0005FFFFFFFF4000
003FFD6214DFB000
009FF300009FC000
00AFF10000AF9000
005FFA3100361000
0005EFFF80000000
003BFFFF70000000
04EFD62100000000
1DFC100000000000
4FF5000000000000
6FF4000000000000
4FF9000000001740
0DFFA421247BFF80
02DFFFFFFFFFFC20
0006ADEFEDB73000
ENDCHAR
STARTCHAR Eacute
ENCODING 201
SWIDTH 686 0
DWIDTH 12 0
BBX 15 22 0 0
BITMAP
0000000000045000
00000000007FF200
0000000008FFC000
00000000AFE71000
00000001E9100000
0000000000000000
000028CEFEA30000
0005FFFFFFFF4000
003FFD6214DFB000
009FF300009FC000
00AFF10000AF9000
005FFA3100361000
0005EFFF80000000
003BFFFF70000000
04EFD62100000000
1DFC100000000000
4FF5000000000000
6FF4000000000000
4FF9000000001740
0DFFA421247BFF80
02DFFFFFFFFFFC20
0006ADEFEDB73000
ENDCHAR
STARTCHAR Ecircumflex
ENCODING 202
SWIDTH 686 0
DWIDTH 12 0
BBX 15 22 0 0
BITMAP
00000004DE400000
0000001EFFC00000
000000AF8DF20000
000004FE18F80000
000006E503E60000
0000000000000000
000028CEFEA30000
0005FFFFFFFF4000
003FFD6214DFB000
009FF300009FC000
00AFF10000AF9000
005FFA3100361000
0005EFFF80000000
003BFFFF70000000
04EFD62100000000
1DFC100000000000
4FF5000000000000
6FF4000000000000
4FF9000000001740
0DFFA421247BFF80
02DFFFFFFFFFFC20
0006ADEFEDB73000
ENDCHAR
STARTCHAR Edieresis
ENCODING 203
SWIDTH 686 0
DWIDTH 12 0
BBX 15 20 0 0
BITMAP
000002DC15E90000
000007FF2BFE0000
000004EB07E80000
0000000000000000
000028CEFEA30000
0005FFFFFFFF4000
003FFD6214DFB000
009FF300009FC000
00AFF10000AF9000
005FFA3100361000
0005EFFF80000000
003BFFFF70000000
04EFD62100000000
1DFC100000000000
4FF5000000000000
6FF4000000000000
4FF9000000001740
0DFFA421247BFF80
02DFFFFFFFFFFC20
0006ADEFEDB73000
ENDCHAR
STARTCHAR Igrave
ENCODING 204
SWIDTH 495 0
DWIDTH 9 0
BBX 11 22 -1 0
BITMAP
002710000000
009FD2000000
005FFE300000
0003BFE40000
000004C80000
000000000000
001BFFFFFFC0
001FFFFFFFB0
000019FE1100
00000BFC0000
00000DFA0000
00000FF80000
00002FF50000
00005FF30000
00007FF10000
00009FD00000
0000CFB00000
0000EF900000
0001FF700000
0004FF610000
1CFFFFFFC000
3EFFFFFFA000
ENDCHAR
STARTCHAR Iacute
ENCODING 205
SWIDTH 495 0
DWIDTH 9 0
BBX 12 22 -1 0
BITMAP
000000000063
000000001BFD
00000001CFF8
0000001DFD50
0000005D6000
000000000000
001BFFFFFFC0
001FFFFFFFB0
000019FE1100
00000BFC0000
00000DFA0000
00000FF80000
00002FF50000
00005FF30000
00007FF10000
00009FD00000
0000CFB00000
0000EF900000
0001FF700000
0004FF610000
1CFFFFFFC000
3EFFFFFFA000
ENDCHAR
STARTCHAR Icircumflex
ENCODING 206
SWIDTH 495 0
DWIDTH 9 0
BBX 11 22 -1 0
BITMAP
0000007EC100
000005FFF700
00001EF5FD00
00009FA0DF30
0000BD207E30
000000000000
001BFFFFFFC0
001FFFFFFFB0
000019FE1100
00000BFC0000
00000DFA0000
00000FF80000
00002FF50000
00005FF30000
00007FF10000
00009FD00000
0000CFB00000
0000EF900000
0001FF700000
0004FF610000
1CFFFFFFC000
3EFFFFFFA000
ENDCHAR
STARTCHAR Idieresis
ENCODING 207
SWIDTH 495 0
DWIDTH 9 0
BBX 11 20 -1 0
BITMAP
00006E909E50
0000CFD0FF90
00007E70BE40
000000000000
001BFFFFFFC0
001FFFFFFFB0
000019FE1100
00000BFC0000
00000DFA0000
00000FF80000
00002FF50000
00005FF30000
00007FF10000
00009FD00000
0000CFB00000
0000EF900000
0001FF700000
0004FF610000
1CFFFFFFC000
3EFFFFFFA000
ENDCHAR
STARTCHAR Eth
ENCODING 208
SWIDTH 821 0
DWIDTH 15 0
BBX 15 16 0 0
BITMAP
00004CEFEC710000
0000CFFFFFFE4000
0002FF7138FFE300
0006FF20004FFB00
000BFC000009FF20
000EF8000005FF50
5DFFFFFFB003FF60
9FFFFFFFC004FF60
01AFD1110005FF50
00CFB0000009FF20
00EF9000001EFC00
01FF7000008FF500
03FF500007FFA000
05FF5135CFFC1000
06FFFFFFFF900000
02BDEFEC82000000
ENDCHAR
STARTCHAR Ntilde
ENCODING 209
SWIDTH 884 0
DWIDTH 16 0
BBX 19 21 0 0
BITMAP
00000006EB1016000000
0000003FFFE4CF300000
0000009F79FFFC000000
00000036005EC2000000
00000000000000000000
005CEC2004BEE9000000
09FFFF805FFFFF800000
7FA2CFA3FB33EFC00000
EB00AFABB000BFD00000
7100CFBF2000CFC00000
0000DFE90000EFA00000
0000FFF30003FF700000
0002FFD00006FF400000
0004FF800009FF100000
0006FF50000CFD000000
0009FF10000EFA000000
000BFE00001FF7000100
000DFB00002FF7002E30
000FF900000FFB24EE10
001FF7000009FFFFE400
000CE20000019DEA2000
ENDCHAR
STARTCHAR Ograve
ENCODING 210
SWIDTH 816 0
DWIDTH 15 0
BBX 14 22 1 0
BITMAP
00045000000000
001FF800000000
000BFFA0000000
00006EFB000000
0000018E200000
00000000000000
000039DFDA4000
0008FFFFFFF700
008FFB414DFF40
04FF900002EFC0
0CFD0000009FF2
2FF70000006FF4
7FF20000004FF5
AFE00000005FF4
BFD00000006FF2
CFC00000009FE0
BFD0000000DFA0
9FF2000005FF50
4FF800002EFB00
0CFF8226EFD200
02DFFFFFFD2000
0017CEEC700000
ENDCHAR
STARTCHAR Oacute
ENCODING 211
SWIDTH 816 0
DWIDTH 15 0
BBX 14 22 1 0
BITMAP
00000000002710
0000000003EF70
000000005EFE30
00000006FFA200
0000000BB30000
00000000000000
000039DFDA4000
0008FFFFFFF700
008FFB414DFF40
04FF900002EFC0
0CFD0000009FF2
2FF70000006FF4
7FF20000004FF5
AFE00000005FF4
BFD00000006FF2
CFC00000009FE0
BFD0000000DFA0
9FF2000005FF50
4FF800002EFB00
0CFF8226EFD200
02DFFFFFFD2000
0017CEEC700000
ENDCHAR
STARTCHAR Ocircumflex
ENCODING 212
SWIDTH 816 0
DWIDTH 15 0
BBX 14 22 1 0
BITMAP
0000001BF70000
000000BFFF1000
000006FC8F7000
00001EF44FC000
00003E900CB000
00000000000000
000039DFDA4000
0008FFFFFFF700
008FFB414DFF40
04FF900002EFC0
0CFD0000009FF2
2FF70000006FF4
7FF20000004FF5
AFE00000005FF4
BFD00000006FF2
CFC00000009FE0
BFD0000000DFA0
9FF2000005FF50
4FF800002EFB00
0CFF8226EFD200
02DFFFFFFD2000
0017CEEC700000
ENDCHAR
STARTCHAR Otilde
ENCODING 213
SWIDTH 816 0
DWIDTH 15 0
BBX 14 21 1 0
BITMAP
000009E9003500
00006FFFC3EE00
0000CF4BFFF800
000054008EB100
00000000000000
000039DFDA4000
0008FFFFFFF700
008FFB414DFF40
04FF900002EFC0
0CFD0000009FF2
2FF70000006FF4
7FF20000004FF5
AFE00000005FF4
BFD00000006FF2
CFC00000009FE0
BFD0000000DFA0
9FF2000005FF50
4FF800002EFB00
0CFF8226EFD200
02DFFFFFFD2000
0017CEEC700000
ENDCHAR
STARTCHAR Odieresis
ENCODING 214
SWIDTH 816 0
DWIDTH 15 0
BBX 14 20 1 0
BITMAP
00000BE32DD100
00003FF76FF300
00001DD23EB000
00000000000000
000039DFDA4000
0008FFFFFFF700
008FFB414DFF40
04FF900002EFC0
0CFD0000009FF2
2FF70000006FF4
7FF20000004FF5
AFE00000005FF4
BFD00000006FF2
CFC00000009FE0
BFD0000000DFA0
9FF2000005FF50
4FF800002EFB00
0CFF8226EFD200
02DFFFFFFD2000
0017CEEC700000
ENDCHAR
STARTCHAR multiply
ENCODING 215
SWIDTH 700 0
DWIDTH 13 0
BBX 9 9 2 1
BITMAP
0530000540
3FE2008FC0
1DFD18FF50
02EFEFE400
005FFF3000
01BFFF7000
1CFDAFF500
CFC10BFE10
CB1001CB00
ENDCHAR
STARTCHAR Oslash
ENCODING 216
SWIDTH 816 0
DWIDTH 15 0
BBX 14 20 1 -2
BITMAP
00000000BC0000
00000001FE0000
000039DFFD3000
0007FFFFFFF700
007FFA3DFDFF50
03FF801FD2EFC0
0CFD005F909FF2
2FF6009F506FF4
7FF200CF105FF5
AFE001FC005FF4
BFD005F9006FF2
CFC009F5009FE0
BFD00CF100DFA0
9FF21FD005FF40
4FF85F902EFB00
0CFFDF75DFD200
02DFFFFFFD2000
0019FFEC600000
0006F900000000
0006E400000000
ENDCHAR
STARTCHAR Ugrave
ENCODING 217
SWIDTH 890 0
DWIDTH 16 0
BBX 19 22 0 0
BITMAP
00000540000000000000
00002FF7000000000000
00000CFF900000000000
0000007EFA0000000000
000000018E1000000000
00000000000000000000
005CED4000003EA00000
09FFFFD000008FF00000
7FB39FF10000AFE00000
EB007FF10000CFC00000
71009FF00000FFA00000
0000CFC00003FF800000
0000EF900006FF500000
0003FF60000AFF300000
0006FF30001EFF100000
0009FE00006FFD000000
000CFB0000DEFB000000
000EF90006ECFA000210
001FF8004E8CFB004F40
000FFE79FD1CFF89FE20
000AFFFFE308FFFFF400
0001AEEA20008DEB3000
ENDCHAR
STARTCHAR Uacute
ENCODING 218
SWIDTH 890 0
DWIDTH 16 0
BBX 19 22 0 0
BITMAP
00000000000036000000
000000000004EF500000
00000000006FFE200000
0000000007FF91000000
000000000CA200000000
00000000000000000000
005CED4000003EA00000
09FFFFD000008FF00000
7FB39FF10000AFE00000
EB007FF10000CFC00000
71009FF00000FFA00000
0000CFC00003FF800000
0000EF900006FF500000
0003FF60000AFF300000
0006FF30001EFF100000
0009FE00006FFD000000
000CFB0000DEFB000000
000EF90006ECFA000210
001FF8004E8CFB004F40
000FFE79FD1CFF89FE20
000AFFFFE308FFFFF400
0001AEEA20008DEB3000
ENDCHAR
STARTCHAR Ucircumflex
ENCODING 219
SWIDTH 890 0
DWIDTH 16 0
BBX 19 22 0 0
BITMAP
000000002CE600000000
00000000CFFE10000000
00000007FB9F60000000
0000002EF35FB0000000
0000004E801DA0000000
00000000000000000000
005CED4000003EA00000
09FFFFD000008FF00000
7FB39FF10000AFE00000
EB007FF10000CFC00000
71009FF00000FFA00000
0000CFC00003FF800000
0000EF900006FF500000
0003FF60000AFF300000
0006FF30001EFF100000
0009FE00006FFD000000
000CFB0000DEFB000000
000EF90006ECFA000210
001FF8004E8CFB004F40
000FFE79FD1CFF89FE20
000AFFFFE308FFFFF400
0001AEEA20008DEB3000
ENDCHAR
STARTCHAR Udieresis
ENCODING 220
SWIDTH 890 0
DWIDTH 16 0
BBX 19 20 0 0
BITMAP
0000001CE33EC0000000
0000004FF68FF2000000
0000001DD24EB0000000
00000000000000000000
005CED4000003EA00000
09FFFFD000008FF00000
7FB39FF10000AFE00000
EB007FF10000CFC00000
71009FF00000FFA00000
0000CFC00003FF800000
0000EF900006FF500000
0003FF60000AFF300000
0006FF30001EFF100000
0009FE00006FFD000000
000CFB0000DEFB000000
000EF90006ECFA000210
001FF8004E8CFB004F40
000FFE79FD1CFF89FE20
000AFFFFE308FFFFF400
0001AEEA20008DEB3000
ENDCHAR
STARTCHAR Yacute
ENCODING 221
SWIDTH 851 0
DWIDTH 15 0
BBX 18 28 0 -6
BITMAP
000000000000171000
000000000002DF9000
00000000003EFF4000
0000000004EFB30000
0000000009C4000000
000000000000000000
005CED4000003EC000
08FFFFD000008FF100
6FC39FF10000AFE000
EC107FF10000CFC000
82009FF00000EFA000
0000CFD00003FF8000
0000EFA00007FF6000
0003FF70000CFF4000
0005FF40003FFF2000
0007FF1000AEFF0000
0008FF1005FBFD0000
0006FF716FA9FB0000
0001EFFFFC1BFC9DF3
00003CED838EFFFFC1
00000002AFFFF94100
0000006FFB7FF20000
000007FD405FE00000
00003FE2009FA00000
00008F9002EF500000
00009FC12CFC000000
00006FFFFFD2000000
000007EFE910000000
ENDCHAR
STARTCHAR Thorn
ENCODING 222
SWIDTH 776 0
DWIDTH 14 0
BBX 14 20 0 -2
BITMAP
0000002DE10000
0000006FF20000
0000008FF10000
000000AFE00000
000006EFFEC710
0002CFFFFFFFD1
001DFEFF84BFF9
00AFB4FF500DFE
02FE15FF300AFF
09F807FF100CFD
0CF30AFE004FF8
1FE00CFB16EFD1
2FD2FFFFFFFC20
3FC1CFFFDB6000
3FC04FF4000000
2FD07FF1000000
0EF1AFD0000000
09F9EFA0000000
02EFFF60000000
004CE900000000
ENDCHAR
STARTCHAR germandbls
ENCODING 223
SWIDTH 596 0
DWIDTH 11 0
BBX 13 19 0 -4
BITMAP
00005CFFB20000
0007FFFFFD0000
004FF614FF4000
00CF8000DF4000
03FF1007FD0000
07FB01AFE30000
0AF80BFC200000
0CF63FF3000000
0EF41FFB100000
0FF309FFEB9720
1FF37FEEFFEFE0
1FF4FE12EF5350
2FF6FD33EF4000
2FF3EFFFFD1000
3FF24CEEA20000
3FF10000000000
3FF10000000000
3FF10000000000
2DC10000000000
ENDCHAR
STARTCHAR agrave
ENCODING 224
SWIDTH 470 0
DWIDTH 8 0
BBX 11 16 0 0
BITMAP
006E40000000
00AFB0000000
003FF2000000
0008F8000000
0000CE100000
00002D200000
000000000000
0006DE310000
009FFFFC0000
06FF78FB0000
0DF80AF80000
3FF10DF50010
5FE01FF309B0
4FF39FF59F80
1EFFFCFFFB00
05DE71BE9000
ENDCHAR
STARTCHAR aacute
ENCODING 225
SWIDTH 470 0
DWIDTH 8 0
BBX 11 16 0 0
BITMAP
0000002E8000
0000009FC000
000001EF5000
000006FA0000
00000CD10000
00000D400000
000000000000
0006DE310000
009FFFFC0000
06FF78FB0000
0DF80AF80000
3FF10DF50010
5FE01FF309B0
4FF39FF59F80
1EFFFCFFFB00
05DE71BE9000
ENDCHAR
STARTCHAR acircumflex
ENCODING 226
SWIDTH 470 0
DWIDTH 8 0
BBX 11 17 0 0
BITMAP
000003710000
00002FF80000
0000AFED0000
0003FBBF1000
000BF49F4000
004FC07F7000
005E404E5000
000000000000
0006DE310000
009FFFFC0000
06FF78FB0000
0DF80AF80000
3FF10DF50010
5FE01FF309B0
4FF39FF59F80
1EFFFCFFFB00
05DE71BE9000
ENDCHAR
STARTCHAR atilde
ENCODING 227
SWIDTH 470 0
DWIDTH 8 0
BBX 11 14 0 0
BITMAP
001BE6005300
009FFF95F900
01FD3DFFF300
006201AE6000
000000000000
0006DE310000
009FFFFC0000
06FF78FB0000
0DF80AF80000
3FF10DF50010
5FE01FF309B0
4FF39FF59F80
1EFFFCFFFB00
05DE71BE9000
ENDCHAR
STARTCHAR adieresis
ENCODING 228
SWIDTH 470 0
DWIDTH 8 0
BBX 11 13 0 0
BITMAP
002DD15E9000
006FF2AFE000
003EB06E8000
000000000000
0006DE310000
009FFFFC0000
06FF78FB0000
0DF80AF80000
3FF10DF50010
5FE01FF309B0
4FF39FF59F80
1EFFFCFFFB00
05DE71BE9000
ENDCHAR
STARTCHAR aring
ENCODING 229
SWIDTH 470 0
DWIDTH 8 0
BBX 11 16 0 0
BITMAP
00007EE50000
0003FFFE1000
0007F48F4000
0008F49F3000
0004FFFD0000
00008EC30000
000000000000
0006DE310000
009FFFFC0000
06FF78FB0000
0DF80AF80000
3FF10DF50010
5FE01FF309B0
4FF39FF59F80
1EFFFCFFFB00
05DE71BE9000
ENDCHAR
STARTCHAR ae
ENCODING 230
SWIDTH 653 0
DWIDTH 12 0
BBX 15 9 0 0
BITMAP
0005BEA6DEA10000
00AFFFFFFFF70000
07FF75FF57F90000
0EF608FA08F60000
3FF10CFAAFC00300
5FE01FFFD7108F10
4FF38FFE524CFC00
1EFFFADFFFFFC100
04CEA119EEC60000
ENDCHAR
STARTCHAR ccedilla
ENCODING 231
SWIDTH 368 0
DWIDTH 7 0
BBX 9 15 0 -6
BITMAP
003BEB1000
03EFFF7000
0BFB4F9000
2FF34F8000
5FF0191000
6FD0000290
5FF1001CD0
1FF924CF60
06FFFFE500
00CFFC1000
0001BF2000
0001BF3000
0CFFFC0000
0BFFB20000
0010000000
ENDCHAR
STARTCHAR egrave
ENCODING 232
SWIDTH 393 0
DWIDTH 7 0
BBX 10 16 0 0
BITMAP
03E7000000
06FE100000
01DF600000
004FC00000
0008F30000
0000C50000
0000000000
004CEC3000
04FFFFC000
0DF83FE000
3FE03FB000
5FD8EE3021
5FFE9204E5
2FF8239FE2
0AFFFFFE40
008DFD9200
ENDCHAR
STARTCHAR eacute
ENCODING 233
SWIDTH 393 0
DWIDTH 7 0
BBX 10 16 0 0
BITMAP
000000CC00
000005FF10
00000BF900
00002FD100
00008F3000
0000A70000
0000000000
004CEC3000
04FFFFC000
0DF83FE000
3FE03FB000
5FD8EE3021
5FFE9204E5
2FF8239FE2
0AFFFFFE40
008DFD9200
ENDCHAR
STARTCHAR ecircumflex
ENCODING 234
SWIDTH 393 0
DWIDTH 7 0
BBX 10 17 0 0
BITMAP
0000272000
0000DFC000
0007FEF100
001EE8F500
007F85F800
01EF14FB00
02E701D900
0000000000
004CEC3000
04FFFFC000
0DF83FE000
3FE03FB000
5FD8EE3021
5FFE9204E5
2FF8239FE2
0AFFFFFE40
008DFD9200
ENDCHAR
STARTCHAR edieresis
ENCODING 235
SWIDTH 393 0
DWIDTH 7 0
BBX 10 13 0 0
BITMAP
00BE32DC10
02FF66FF20
01DD23EB00
0000000000
004CEC3000
04FFFFC000
0DF83FE000
3FE03FB000
5FD8EE3021
5FFE9204E5
2FF8239FE2
0AFFFFFE40
008DFD9200
ENDCHAR
STARTCHAR igrave
ENCODING 236
SWIDTH 246 0
DWIDTH 4 0
BBX 8 16 -1 0
BITMAP
1DA00000
3FF30000
0BF90000
02EE1000
005F7000
00098000
00000000
003EA000
008FA000
00BF8000
00EF5000
01FF2013
02FF10BB
01FF4AF7
00DFFFA0
004DE800
ENDCHAR
STARTCHAR iacute
ENCODING 237
SWIDTH 246 0
DWIDTH 4 0
BBX 7 16 0 0
BITMAP
00009D20
0002FF40
0008FC00
000EF300
005F7000
007B0000
00000000
03EA0000
08FA0000
0BF80000
0EF50000
1FF20130
2FF10BB0
1FF4AF70
0DFFFA00
04DE8000
ENDCHAR
STARTCHAR icircumflex
ENCODING 238
SWIDTH 246 0
DWIDTH 4 0
BBX 7 17 0 0
BITMAP
00164000
00AFF100
03FEF500
0BF7F800
4FB2FB00
CF40FE00
DA00BC00
00000000
03EA0000
08FA0000
0BF80000
0EF50000
1FF20130
2FF10BB0
1FF4AF70
0DFFFA00
04DE8000
ENDCHAR
STARTCHAR idieresis
ENCODING 239
SWIDTH 246 0
DWIDTH 4 0
BBX 7 13 0 0
BITMAP
8E60CE20
EFA3FF60
AE41DD20
00000000
03EA0000
08FA0000
0BF80000
0EF50000
1FF20130
2FF10BB0
1FF4AF70
0DFFFA00
04DE8000
ENDCHAR
STARTCHAR eth
ENCODING 240
SWIDTH 451 0
DWIDTH 8 0
BBX 10 18 0 0
BITMAP
004EA00000
001DF807F3
0003FFCFE1
0001CFFB20
005EFFF300
007E7AF700
000007FC00
000004FE00
000003FF10
004CECFF20
05FFFFFF20
0DF927FF10
3FF103FF00
5FD005FC00
5FE009F800
3FF64FF300
0BFFFF9000
01AEE80000
ENDCHAR
STARTCHAR ntilde
ENCODING 241
SWIDTH 496 0
DWIDTH 9 0
BBX 12 14 0 0
BITMAP
000AE7004400
007FFFA4FB00
00EE3CFFF400
0053019E8000
000000000000
02DA05DE2000
08F94FFF4000
0BF6EFFF2000
0EFAE5FF0000
0FFE75FC0030
1FFF17F904F3
1FFB09FB4EE1
0EF608FFFE30
09D102CEB300
ENDCHAR
STARTCHAR ograve
ENCODING 242
SWIDTH 451 0
DWIDTH 8 0
BBX 11 16 0 0
BITMAP
04E600000000
07FD00000000
01EF50000000
005FB0000000
0009F2000000
0001C4000000
000000000000
004CEC500000
04FFFFF30000
0DF97FFA1310
3FF14FFFFF70
5FD008FFFC30
5FE007F80000
2FF63EF20000
0AFFFF800000
019EE8000000
ENDCHAR
STARTCHAR oacute
ENCODING 243
SWIDTH 451 0
DWIDTH 8 0
BBX 11 16 0 0
BITMAP
000001CB0000
000006FF0000
00000CF80000
00003FC00000
00009F300000
0000B6000000
000000000000
004CEC500000
04FFFFF30000
0DF97FFA1310
3FF14FFFFF70
5FD008FFFC30
5FE007F80000
2FF63EF20000
0AFFFF800000
019EE8000000
ENDCHAR
STARTCHAR ocircumflex
ENCODING 244
SWIDTH 451 0
DWIDTH 8 0
BBX 11 17 0 0
BITMAP
000027200000
0001DFB00000
0008FEF00000
001ED8F30000
009F67F70000
01FE15FA0000
03E602E80000
000000000000
004CEC500000
04FFFFF30000
0DF97FFA1310
3FF14FFFFF70
5FD008FFFC30
5FE007F80000
2FF63EF20000
0AFFFF800000
019EE8000000
ENDCHAR
STARTCHAR otilde
ENCODING 245
SWIDTH 451 0
DWIDTH 8 0
BBX 11 14 0 0
BITMAP
009E80044000
06FFFB3EC000
0DE3CFFF5000
053008E90000
000000000000
004CEC500000
04FFFFF30000
0DF97FFA1310
3FF14FFFFF70
5FD008FFFC30
5FE007F80000
2FF63EF20000
0AFFFF800000
019EE8000000
ENDCHAR
STARTCHAR odieresis
ENCODING 246
SWIDTH 451 0
DWIDTH 8 0
BBX 11 13 0 0
BITMAP
01CE23EC0000
04FF57FF1000
01DD14EA0000
000000000000
004CEC500000
04FFFFF30000
0DF97FFA1310
3FF14FFFFF70
5FD008FFFC30
5FE007F80000
2FF63EF20000
0AFFFF800000
019EE8000000
ENDCHAR
STARTCHAR divide
ENCODING 247
SWIDTH 700 0
DWIDTH 13 0
BBX 11 11 1 0
BITMAP
00004DB00000
00009FF20000
00005EB00000
000000000000
011111111100
4FFFFFFFFF30
5FFFFFFFFE20
000000000000
0003DC100000
0007FF300000
0004EC000000
ENDCHAR
STARTCHAR oslash
ENCODING 248
SWIDTH 459 0
DWIDTH 8 0
BBX 11 15 0 -3
BITMAP
000016000000
00005E000000
00008C000000
005CFE600000
05FFFFF40000
0DF8FCFB0000
3FE2F4FE9C80
5FC5E2FFFF80
5FD7C4FD6400
3FFCABF70000
0BFFFFD10000
01AFEA200000
002F20000000
005F00000000
002500000000
ENDCHAR
STARTCHAR ugrave
ENCODING 249
SWIDTH 462 0
DWIDTH 8 0
BBX 11 16 0 0
BITMAP
009D10000000
00DF70000000
007FD0000000
000BF5000000
0002EB000000
00005C000000
000000000000
02DB00CC0000
07FA04FC0000
0BF709F90000
0EF40EF60000
0FF25FF30120
1FF1CFF01C90
2FFDDFF3BF50
0EFF7EFFF800
05EA06ED6000
ENDCHAR
STARTCHAR uacute
ENCODING 250
SWIDTH 462 0
DWIDTH 8 0
BBX 11 16 0 0
BITMAP
0000005E5000
000000DF8000
000004FE2000
00000AF60000
00001FB00000
00003D100000
000000000000
02DB00CC0000
07FA04FC0000
0BF709F90000
0EF40EF60000
0FF25FF30120
1FF1CFF01C90
2FFDDFF3BF50
0EFF7EFFF800
05EA06ED6000
ENDCHAR
STARTCHAR ucircumflex
ENCODING 251
SWIDTH 462 0
DWIDTH 8 0
BBX 11 17 0 0
BITMAP
000005600000
00006FF50000
0001DEF90000
0007F7FC0000
001EE1DF1000
007F80BF4000
009D107E2000
000000000000
02DB00CC0000
07FA04FC0000
0BF709F90000
0EF40EF60000
0FF25FF30120
1FF1CFF01C90
2FFDDFF3BF50
0EFF7EFFF800
05EA06ED6000
ENDCHAR
STARTCHAR udieresis
ENCODING 252
SWIDTH 462 0
DWIDTH 8 0
BBX 11 13 0 0
BITMAP
005EA08E6000
00AFE0EFA000
006E80AE4000
000000000000
02DB00CC0000
07FA04FC0000
0BF709F90000
0EF40EF60000
0FF25FF30120
1FF1CFF01C90
2FFDDFF3BF50
0EFF7EFFF800
05EA06ED6000
ENDCHAR
STARTCHAR yacute
ENCODING 253
SWIDTH 479 0
DWIDTH 9 0
BBX 12 25 -1 -9
BITMAP
00000005E500
0000000DF800
0000004FE200
000000AF6000
000001FB0000
000003D10000
000000000000
002DB00CC000
007FA04FC000
00BF709FA000
00EF40EF7000
00FF25FF5022
01FF1CFF34E8
02FFDEFF8FE3
00EFFAFFFC20
005EA5FF9000
00003EF90000
0003EFF50000
003ECDF20000
01DD2FE00000
08F45F900000
0DC0AF400000
1FC4FD000000
0EFFF5000000
05EE60000000
ENDCHAR
STARTCHAR thorn
ENCODING 254
SWIDTH 508 0
DWIDTH 9 0
BBX 12 22 0 -7
BITMAP
005E80000000
00BF90000000
00EF60000000
01FF20000000
04FE00000000
07FB00000000
09F91AE90000
0BF7CFFF4000
0DFBD3EF7000
0FFF50DF7000
2FFD00FF4042
3FF806FE12E6
4FF36FF83DF2
5FFEFFFFFF50
6FFFB5BEC400
7FB000000000
7FA000000000
8FA000000000
8FA000000000
8FA000000000
8FA000000000
262000000000
ENDCHAR
STARTCHAR ydieresis
ENCODING 255
SWIDTH 479 0
DWIDTH 9 0
BBX 12 22 -1 -9
BITMAP
0005EA08E600
000AFE0EFA00
0006E80AE400
000000000000
002DB00CC000
007FA04FC000
00BF709FA000
00EF40EF7000
00FF25FF5022
01FF1CFF34E8
02FFDEFF8FE3
00EFFAFFFC20
005EA5FF9000
00003EF90000
0003EFF50000
003ECDF20000
01DD2FE00000
08F45F900000
0DC0AF400000
1FC4FD000000
0EFFF5000000
05EE60000000
ENDCHAR
STARTCHAR Amacron
ENCODING 256
SWIDTH 786 0
DWIDTH 14 0
BBX 16 20 1 0
BITMAP
0000000011110000
0000000DFFFF9000
0000000DFFFF7000
0000000000000000
0000016ADEFDB700
00006EFFFFFFFF10
000AFFE954469600
009FFA1002A90000
05FFA00007FF2000
0DFE10000AFE0000
4FF600000DFA0000
9FF200001FF70000
CFD000005FF40000
EFB00000AFF20000
FFA00001EFF00000
EFC00006FFE00021
BFF1001EFFE002D6
6FFC56DEAFF75DF3
0BFFFFF63FFFFF60
008DEC5005DEC500
ENDCHAR
STARTCHAR amacron
ENCODING 257
SWIDTH 470 0
DWIDTH 8 0
BBX 11 13 0 0
BITMAP
000011110000
002FFFFF5000
002EFFFF4000
000000000000
0006DE310000
009FFFFC0000
06FF78FB0000
0DF80AF80000
3FF10DF50010
5FE01FF309B0
4FF39FF59F80
1EFFFCFFFB00
05DE71BE9000
ENDCHAR
STARTCHAR Abreve
ENCODING 258
SWIDTH 786 0
DWIDTH 14 0
BBX 16 21 1 0
BITMAP
0000002610005400
000000AFA229FA00
0000005FFFFFF400
00000005CEEB3000
0000000000000000
0000016ADEFDB700
00006EFFFFFFFF10
000AFFE954469600
009FFA1002A90000
05FFA00007FF2000
0DFE10000AFE0000
4FF600000DFA0000
9FF200001FF70000
CFD000005FF40000
EFB00000AFF20000
FFA00001EFF00000
EFC00006FFE00021
BFF1001EFFE002D6
6FFC56DEAFF75DF3
0BFFFFF63FFFFF60
008DEC5005DEC500
ENDCHAR
STARTCHAR abreve
ENCODING 259
SWIDTH 470 0
DWIDTH 8 0
BBX 11 15 0 0
BITMAP
004500006100
00DF2006F700
00BFB24EF400
004FFFFFA000
0005CFD80000
000000000000
0006DE310000
009FFFFC0000
06FF78FB0000
0DF80AF80000
3FF10DF50010
5FE01FF309B0
4FF39FF59F80
1EFFFCFFFB00
05DE71BE9000
ENDCHAR
STARTCHAR Aogonek
ENCODING 260
SWIDTH 786 0
DWIDTH 14 0
BBX 16 21 1 -5
BITMAP
0000016ADEFEB700
00006EFFFFFFFF10
000AFFD631246400
009FF90002CC1000
05FF900007FF2000
0DFD10000AFE0000
4FF600000DFA0000
9FF200001FF70000
CFD000005FF40000
EFB000009FF20000
FFA00000EFF00000
EFB00005FFE00010
BFE1001DFFE001C6
6FFA23CFBFF53CF4
0BFFFFF74FFFFF70
008DEC5006FFE500
0000000005FC2000
000000000CF20000
000000000DF41200
0000000008FFFD00
00000000007BB500
ENDCHAR
STARTCHAR aogonek
ENCODING 261
SWIDTH 470 0
DWIDTH 8 0
BBX 11 14 0 -5
BITMAP
0006DE310000
009FFFFC0000
06FF78FB0000
0DF809F80000
3FF20DF50010
5FE01FF309B0
4FE29FF58F80
1EFFFCFFFB00
05DE74FF9000
00001EE40000
00006F700000
00007F913000
00003FFFF300
000004AB7000
ENDCHAR
STARTCHAR Cacute
ENCODING 262
SWIDTH 686 0
DWIDTH 12 0
BBX 14 22 1 0
BITMAP
00000000002600
0000000004EF60
000000005FFE20
00000006FF9200
0000000BB30000
00000000000000
000039DFEA2000
0007FFFFFFD100
008FFB425FF600
04FF90000CF900
0CFD00000DF800
3FF600000EF400
7FF20000023000
AFE00000000000
BFD00000000000
CFC00000000000
BFE00000000000
8FF40000000000
2FFC1000000053
08FFD621248EF8
008FFFFFFFFFD2
00039CEFEC8400
ENDCHAR
STARTCHAR cacute
ENCODING 263
SWIDTH 368 0
DWIDTH 7 0
BBX 9 16 0 0
BITMAP
000001DA00
000006FE00
00000DF800
00004FC000
0000AE2000
0000B60000
0000000000
003BEB1000
04FFFF8000
0DFA4F9000
3FF14F5000
5FE0020030
5FE00009E0
3FF824BFA0
0BFFFFFB10
019EFC6000
ENDCHAR
STARTCHAR Ccircumflex
ENCODING 264
SWIDTH 686 0
DWIDTH 12 0
BBX 14 22 1 0
BITMAP
0000002CE70000
000000BFFE1000
000006FC9F6000
00001EF34FB000
00003E801DA000
00000000000000
000039DFEA2000
0007FFFFFFD100
008FFB425FF600
04FF90000CF900
0CFD00000DF800
3FF600000EF400
7FF20000023000
AFE00000000000
BFD00000000000
CFC00000000000
BFE00000000000
8FF40000000000
2FFC1000000053
08FFD621248EF8
008FFFFFFFFFD2
00039CEFEC8400
ENDCHAR
STARTCHAR ccircumflex
ENCODING 265
SWIDTH 368 0
DWIDTH 7 0
BBX 9 17 0 0
BITMAP
0000272000
0001EFB000
0008FEF000
001ED9F300
009F67F700
02FE15FA00
03E602E800
0000000000
003BEB1000
04FFFF8000
0DFA4F9000
3FF14F5000
5FE0020030
5FE00009E0
3FF824BFA0
0BFFFFFB10
019EFC6000
ENDCHAR
STARTCHAR Cdotaccent
ENCODING 266
SWIDTH 686 0
DWIDTH 12 0
BBX 14 20 1 0
BITMAP
0000004DE40000
000000AFF80000
0000005ED20000
00000000000000
000039DFEA2000
0007FFFFFFD100
008FFB425FF600
04FF90000CF900
0CFD00000DF800
3FF600000EF400
7FF20000023000
AFE00000000000
BFD00000000000
CFC00000000000
BFE00000000000
8FF40000000000
2FFC1000000053
08FFD621248EF8
008FFFFFFFFFD2
00039CEFEC8400
ENDCHAR
STARTCHAR cdotaccent
ENCODING 267
SWIDTH 368 0
DWIDTH 7 0
BBX 9 13 0 0
BITMAP
0004DD3000
000BFF7000
0006EC2000
0000000000
003BEB1000
04FFFF8000
0DFA4F9000
3FF14F5000
5FE0020030
5FE00009E0
3FF824BFA0
0BFFFFFB10
019EFC6000
ENDCHAR
STARTCHAR Ccaron
ENCODING 268
SWIDTH 686 0
DWIDTH 12 0
BBX 14 22 1 0
BITMAP
000008D106E300
000009F51EE100
000003FA9F6000
000000BFFB0000
0000003EC10000
00000000000000
000039DFEA2000
0007FFFFFFD100
008FFB425FF600
04FF90000CF900
0CFD00000DF800
3FF600000EF400
7FF20000023000
AFE00000000000
BFD00000000000
CFC00000000000
BFE00000000000
8FF40000000000
2FFC1000000053
08FFD621248EF8
008FFFFFFFFFD2
00039CEFEC8400
ENDCHAR
STARTCHAR ccaron
ENCODING 269
SWIDTH 368 0
DWIDTH 7 0
BBX 9 17 0 0
BITMAP
0016100620
007F708F70
006F91EE10
002FA6F800
000ECDE100
000AFF7000
0004EA0000
0000000000
003BEB1000
04FFFF8000
0DFA4F9000
3FF14F5000
5FE0020030
5FE00009E0
3FF824BFA0
0BFFFFFB10
019EFC6000
ENDCHAR
STARTCHAR Dcaron
ENCODING 270
SWIDTH 836 0
DWIDTH 15 0
BBX 15 22 0 0
BITMAP
000004E402D70000
000004FA0BF50000
000000DE5FB00000
0000006FEE200000
0000000BE4000000
0000000000000000
00048CEFEC820000
04CFFFFFFFFE6000
1FFE842137EFF600
1C700100002DFE10
0003FF300005FF60
0007FF100001FF90
000BFC000000EFA0
000EF8000000FFA0
002FF5000001FF90
005FF2000005FF60
008FF000000AFF20
00AFD000004FFA00
00CFB00003EFE100
00EFA235AFFE4000
00FFFFFFFFC20000
008DEFED94000000
ENDCHAR
STARTCHAR dcaron
ENCODING 271
SWIDTH 470 0
DWIDTH 8 0
BBX 12 17 0 0
BITMAP
000000000010
0000000CE3ED
0000004FF5FD
0000006FE4F8
0000008FC3E2
000000AF9000
000000CF6000
000000EF3000
0006DDFF1000
009FFFFD0000
06FF78FA0000
0DF80AF80000
3FF10DF50010
5FE01FF309B0
4FF39FF59F80
1EFFFCFFFB00
05DE71BE9000
ENDCHAR
STARTCHAR Dcroat
ENCODING 272
SWIDTH 821 0
DWIDTH 15 0
BBX 15 16 0 0
BITMAP
00004CEFEC710000
0000CFFFFFFE4000
0002FF7138FFE300
0006FF20004FFB00
000BFC000009FF20
000EF8000005FF50
5DFFFFFFB003FF60
9FFFFFFFC004FF60
01AFD1110005FF50
00CFB0000009FF20
00EF9000001EFC00
01FF7000008FF500
03FF500007FFA000
05FF5135CFFC1000
06FFFFFFFF900000
02BDEFEC82000000
ENDCHAR
STARTCHAR dcroat
ENCODING 273
SWIDTH 470 0
DWIDTH 8 0
BBX 11 16 0 0
BITMAP
0000001CE200
0000004FF200
0000117FF000
000EFFFFFC00
001EFFFFE700
000000CF6000
000000EF3000
0006DDFF1000
009FFFFD0000
06FF78FA0000
0DF80AF80000
3FF10DF50010
5FE01FF309B0
4FF39FF59F80
1EFFFCFFFB00
05DE71BE9000
ENDCHAR
STARTCHAR Emacron
ENCODING 274
SWIDTH 686 0
DWIDTH 12 0
BBX 15 20 0 0
BITMAP
0000000111100000
000002FFFFF50000
000003EFFFF40000
0000000000000000
000028CEFEA30000
0005FFFFFFFF4000
003FFD6214DFB000
009FF300009FC000
00AFF10000AF9000
005FFA3100361000
0005EFFF80000000
003BFFFF70000000
04EFD62100000000
1DFC100000000000
4FF5000000000000
6FF4000000000000
4FF9000000001740
0DFFA421247BFF80
02DFFFFFFFFFFC20
0006ADEFEDB73000
ENDCHAR
STARTCHAR emacron
ENCODING 275
SWIDTH 393 0
DWIDTH 7 0
BBX 10 13 0 0
BITMAP
0001111000
00DFFFF900
00DFFFF700
0000000000
004CEC3000
04FFFFC000
0DF83FE000
3FE03FB000
5FD8EE3021
5FFE9204E5
2FF8239FE2
0AFFFFFE40
008DFD9200
ENDCHAR
STARTCHAR Ebreve
ENCODING 276
SWIDTH 686 0
DWIDTH 12 0
BBX 15 21 0 0
BITMAP
0000045000162000
00000EF713CF6000
000009FFFFFD1000
0000007DFE920000
0000000000000000
000028CEFEA30000
0005FFFFFFFF4000
003FFD6214DFB000
009FF300009FC000
00AFF10000AF9000
005FFA3100361000
0005EFFF80000000
003BFFFF70000000
04EFD62100000000
1DFC100000000000
4FF5000000000000
6FF4000000000000
4FF9000000001740
0DFFA421247BFF80
02DFFFFFFFFFFC20
0006ADEFEDB73000
ENDCHAR
STARTCHAR ebreve
ENCODING 277
SWIDTH 393 0
DWIDTH 7 0
BBX 10 15 0 0
BITMAP
0260000430
09F6003FA0
07FD32CF80
01EFFFFD10
002BEEA100
0000000000
004CEC3000
04FFFFC000
0DF83FE000
3FE03FB000
5FD8EE3021
5FFE9204E5
2FF8239FE2
0AFFFFFE40
008DFD9200
ENDCHAR
STARTCHAR Edotaccent
ENCODING 278
SWIDTH 686 0
DWIDTH 12 0
BBX 15 20 0 0
BITMAP
00000006ED100000
0000000EFF400000
00000009EB000000
0000000000000000
000028CEFEA30000
0005FFFFFFFF4000
003FFD6214DFB000
009FF300009FC000
00AFF10000AF9000
005FFA3100361000
0005EFFF80000000
003BFFFF70000000
04EFD62100000000
1DFC100000000000
4FF5000000000000
6FF4000000000000
4FF9000000001740
0DFFA421247BFF80
02DFFFFFFFFFFC20
0006ADEFEDB73000
ENDCHAR
STARTCHAR edotaccent
ENCODING 279
SWIDTH 393 0
DWIDTH 7 0
BBX 10 13 0 0
BITMAP
0003DE4000
0009FF8000
0005ED2000
0000000000
004CEC3000
04FFFFC000
0DF83FE000
3FE03FB000
5FD8EE3021
5FFE9204E5
2FF8239FE2
0AFFFFFE40
008DFD9200
ENDCHAR
STARTCHAR Eogonek
ENCODING 280
SWIDTH 686 0
DWIDTH 12 0
BBX 15 21 0 -5
BITMAP
000028CEFEA30000
0005FFFFFFFF4000
003FFD6214DFB000
009FF300009FC000
00AFF10000AF9000
005FFA3100361000
0005EFFF80000000
003BFFFF70000000
04EFD62100000000
0DFC100000000000
4FF5000000000000
6FF4000000000000
5FF9000000001740
0DFFA421247BFF80
03DFFFFFFFFFFC20
0017BEFFFDA83000
0000008F60000000
000000EE00000000
000000FF32200000
000000BFFFB00000
0000002BED500000
ENDCHAR
STARTCHAR eogonek
ENCODING 281
SWIDTH 393 0
DWIDTH 7 0
BBX 10 14 0 -5
BITMAP
004BEC3000
04FFFFB000
0CF93FE000
3FE12FC000
5FC5DF5000
5FFFE601D5
3FF8103DF3
0CFEACFF70
02CFFFC400
0009F60000
001FB00000
003FB00000
001EFCD600
0004CFC200
ENDCHAR
STARTCHAR Ecaron
ENCODING 282
SWIDTH 686 0
DWIDTH 12 0
BBX 15 22 0 0
BITMAP
000000C900AD0000
000000DF15FB0000
0000007F7DF20000
0000001EEF700000
00000006EA000000
0000000000000000
000028CEFEA30000
0005FFFFFFFF4000
003FFD6214DFB000
009FF300009FC000
00AFF10000AF9000
005FFA3100361000
0005EFFF80000000
003BFFFF70000000
04EFD62100000000
1DFC100000000000
4FF5000000000000
6FF4000000000000
4FF9000000001740
0DFFA421247BFF80
02DFFFFFFFFFFC20
0006ADEFEDB73000
ENDCHAR
STARTCHAR ecaron
ENCODING 283
SWIDTH 393 0
DWIDTH 7 0
BBX 10 17 0 0
BITMAP
0016100620
006F806F80
004FA0DF20
001FC5F900
000CECF200
0009FF8000
0003EB1000
0000000000
004CEC3000
04FFFFC000
0DF83FE000
3FE03FB000
5FD8EE3021
5FFE9204E5
2FF8239FE2
0AFFFFFE40
008DFD9200
ENDCHAR
STARTCHAR Gcircumflex
ENCODING 284
SWIDTH 811 0
DWIDTH 15 0
BBX 16 31 1 -9
BITMAP
00000009EB000000
0000007FFF500000
000002FE6FA00000
00000BF71FF10000
00000DB109D10000
0000000000000000
000029DFEC500000
0007FFFFFFF60000
008FFC523CFE0000
03FFA00005FF1000
0CFD100005FF1000
3FF6000006FB0000
8FF2000000310000
AFE0000000000000
BFD0000011110000
CFC00007FFFF7000
BFE00007FFFF8000
8FF4000000CF6000
2FFC100000EF42C7
08FFD62137FF6EF5
008FFFFFFFFFFE40
00039DEECBFFB100
000000003EFA0000
00000003EFF60000
0000002ECDF30000
000001DD2FE00000
000007F44FA00000
00000DD0AF500000
00000FC4FD000000
00000EFFF5000000
000005DE60000000
ENDCHAR
STARTCHAR gcircumflex
ENCODING 285
SWIDTH 479 0
DWIDTH 9 0
BBX 11 26 0 -9
BITMAP
000003710000
00002FF80000
0000AFED0000
0003FBBF1000
000BF49F4000
004FC07F7000
005E404E5000
000000000000
0006DE320000
009FFFFB0000
06FF78FA0000
0DF80AF80000
3FF20DF50110
5FE01FF35E80
4FE29FFAFF40
1EFFFFFFD300
05DE9FFA1000
0004EFA00000
004EFF600000
03ECDF300000
1DD2FE000000
6F44FA000000
CD0AF5000000
FD4FD0000000
DFFF50000000
4DE600000000
ENDCHAR
STARTCHAR Gbreve
ENCODING 286
SWIDTH 811 0
DWIDTH 15 0
BBX 16 30 1 -9
BITMAP
0000162000360000
00006FD316FE0000
00002EFFFFF70000
000003AEEC600000
0000000000000000
000029DFEC500000
0007FFFFFFF60000
008FFC523CFE0000
03FFA00005FF1000
0CFD100005FF1000
3FF6000006FB0000
8FF2000000310000
AFE0000000000000
BFD0000011110000
CFC00007FFFF7000
BFE00007FFFF8000
8FF4000000CF6000
2FFC100000EF42C7
08FFD62137FF6EF5
008FFFFFFFFFFE40
00039DEECBFFB100
000000003EFA0000
00000003EFF60000
0000002ECDF30000
000001DD2FE00000
000007F44FA00000
00000DD0AF500000
00000FC4FD000000
00000EFFF5000000
000005DE60000000
ENDCHAR
STARTCHAR gbreve
ENCODING 287
SWIDTH 479 0
DWIDTH 9 0
BBX 11 24 0 -9
BITMAP
004500006100
00DF2006F700
00BFB24EF400
004FFFFFA000
0005CFD80000
000000000000
0006DE320000
009FFFFB0000
06FF78FA0000
0DF80AF80000
3FF20DF50110
5FE01FF35E80
4FE29FFAFF40
1EFFFFFFD300
05DE9FFA1000
0004EFA00000
004EFF600000
03ECDF300000
1DD2FE000000
6F44FA000000
CD0AF5000000
FD4FD0000000
DFFF50000000
4DE600000000
ENDCHAR
STARTCHAR Gdotaccent
ENCODING 288
SWIDTH 811 0
DWIDTH 15 0
BBX 16 29 1 -9
BITMAP
0000001CE7000000
0000006FFC000000
0000002DE5000000
0000000000000000
000029DFEC500000
0007FFFFFFF60000
008FFC523CFE0000
03FFA00005FF1000
0CFD100005FF1000
3FF6000006FB0000
8FF2000000310000
AFE0000000000000
BFD0000011110000
CFC00007FFFF7000
BFE00007FFFF8000
8FF4000000CF6000
2FFC100000EF42C7
08FFD62137FF6EF5
008FFFFFFFFFFE40
00039DEECBFFB100
000000003EFA0000
00000003EFF60000
0000002ECDF30000
000001DD2FE00000
000007F44FA00000
00000DD0AF500000
00000FC4FD000000
00000EFFF5000000
000005DE60000000
ENDCHAR
STARTCHAR gdotaccent
ENCODING 289
SWIDTH 479 0
DWIDTH 9 0
BBX 11 22 0 -9
BITMAP
00006ED10000
0000DFF40000
00008EB10000
000000000000
0006DE320000
009FFFFB0000
06FF78FA0000
0DF80AF80000
3FF20DF50110
5FE01FF35E80
4FE29FFAFF40
1EFFFFFFD300
05DE9FFA1000
0004EFA00000
004EFF600000
03ECDF300000
1DD2FE000000
6F44FA000000
CD0AF5000000
FD4FD0000000
DFFF50000000
4DE600000000
ENDCHAR
STARTCHAR uni0122
ENCODING 290
SWIDTH 811 0
DWIDTH 15 0
BBX 16 25 1 -9
BITMAP
000029DFEC500000
0007FFFFFFF60000
008FFC523CFE0000
03FFA00005FF1000
0CFD100005FF1000
3FF6000006FB0000
8FF2000000310000
AFE0000000000000
BFD0000011110000
CFC00007FFFF7000
BFE00007FFFF8000
8FF4000000CF6000
2FFC100000EF42C7
08FFD62137FF6EF5
008FFFFFFFFFFE40
00039DEECBFFB100
000000003EFA0000
001EA003EFF60000
004FC02ECDF30000
005F81DD2FE00000
003E37F44FA00000
00000DD0AF500000
00000FC4FD000000
00000EFFF5000000
000005DE60000000
ENDCHAR
STARTCHAR uni0123
ENCODING 291
SWIDTH 479 0
DWIDTH 9 0
BBX 11 24 0 -9
BITMAP
00000AD10000
00000FF20000
00000FE00000
00001FA00000
00000D400000
000000000000
0006DE320000
009FFFFB0000
06FF78FA0000
0DF80AF80000
3FF20DF50110
5FE01FF35E80
4FE29FFAFF40
1EFFFFFFD300
05DE9FFA1000
0004EFA00000
004EFF600000
03ECDF300000
1DD2FE000000
6F44FA000000
CD0AF5000000
FD4FD0000000
DFFF50000000
4DE600000000
ENDCHAR
STARTCHAR Hcircumflex
ENCODING 292
SWIDTH 873 0
DWIDTH 16 0
BBX 19 22 -1 0
BITMAP
0000000002CE50000000
000000000DFFD0000000
000000008FAAF4000000
00000003FF26FA000000
00000005E701D8000000
000000000000005EE500
0006CEC2000003FFFE00
01BFFFFA00000CF88F20
0BF92AFE00004FE07F10
3F8006FF1000AF809E00
180006FF0000EF40DA00
000008FE0004FF18F300
00000AFC0007FE9F7000
00001CFB112AFFE60000
002EFFFFFFFFFB100000
003EFFFFEC9EF8000000
00006FF2000EF8000000
00009FE0000EF9000000
0000DFB0000CFC0004D0
0001FF700007FF626ED0
0004FF300001DFFFFD20
0003EA0000002BEE9100
ENDCHAR
STARTCHAR hcircumflex
ENCODING 293
SWIDTH 502 0
DWIDTH 9 0
BBX 12 23 0 0
BITMAP
000009EA0000
00007FFF4000
0003FE6FA000
000CF71FF100
000DB009D100
00007EC10000
0005FFF80000
000DE4FB0000
005F91FA0000
00BF43F70000
00EF17F30000
04FD0DB00000
07FA7F300000
09FAE8000000
0BFFC4CE3000
0DFE5FFF6000
0EF5DFFF4000
0FF9F4FF1000
0FFE83FE0031
0FFF26FB03E5
1FFC08FC4DE2
0FF806FFFE40
0CC201CEB300
ENDCHAR
STARTCHAR Hbar
ENCODING 294
SWIDTH 856 0
DWIDTH 15 0
BBX 15 16 1 0
BITMAP
003EE100001DE400
007FF200004FF500
3DFFFFFFFFFFFFA0
4EFFFFFFFFFFFF80
00DFA000009FE000
00EF900000AFC000
00FF700000CFA000
AFFFFFFFFFFFFE20
DFFFFFFFFFFFFE20
08FF111115FF4000
0AFD000007FF1000
0DFA000009FE0000
0FF900000CFC0000
2FF700000EFA0000
3FF500000FF90000
1DD200000CE40000
ENDCHAR
STARTCHAR hbar
ENCODING 295
SWIDTH 502 0
DWIDTH 9 0
BBX 11 16 1 0
BITMAP
00AE30000000
03FF30000000
07FE00000000
DFFFFFD00000
9FFFEEB00000
1FF400000000
4FF100000000
7FD04CE30000
9FA3FFF60000
BF8DFFF40000
CFBF4FF10000
EFE83FE00310
EFF26FB03E50
EFC08FC4DE20
DF806FFFF400
8E201CEB3000
ENDCHAR
STARTCHAR Itilde
ENCODING 296
SWIDTH 495 0
DWIDTH 9 0
BBX 12 21 -1 0
BITMAP
00004EC30161
0001EFFE59F5
0006F97FFFE1
00026003DD40
000000000000
001BFFFFFFC0
001FFFFFFFB0
000019FE1100
00000BFC0000
00000DFA0000
00000FF80000
00002FF50000
00005FF30000
00007FF10000
00009FD00000
0000CFB00000
0000EF900000
0001FF700000
0004FF610000
1CFFFFFFC000
3EFFFFFFA000
ENDCHAR
STARTCHAR itilde
ENCODING 297
SWIDTH 246 0
DWIDTH 4 0
BBX 9 14 -1 0
BITMAP
05EB102600
2FFFD3CF10
8F69FFFA00
35005EC100
0000000000
003EA00000
008FA00000
00BF800000
00EF500000
01FF201300
02FF10BB00
01FF4AF700
00DFFFA000
004DE80000
ENDCHAR
STARTCHAR Imacron
ENCODING 298
SWIDTH 495 0
DWIDTH 9 0
BBX 11 20 -1 0
BITMAP
000001111000
00006FFFFE10
00007FFFFD10
000000000000
001BFFFFFFC0
001FFFFFFFB0
000019FE1100
00000BFC0000
00000DFA0000
00000FF80000
00002FF50000
00005FF30000
00007FF10000
00009FD00000
0000CFB00000
0000EF900000
0001FF700000
0004FF610000
1CFFFFFFC000
3EFFFFFFA000
ENDCHAR
STARTCHAR imacron
ENCODING 299
SWIDTH 246 0
DWIDTH 4 0
BBX 7 13 0 0
BITMAP
01111000
9FFFFC00
AFFFFA00
00000000
03EA0000
08FA0000
0BF80000
0EF50000
1FF20130
2FF10BB0
1FF4AF70
0DFFFA00
04DE8000
ENDCHAR
STARTCHAR Ibreve
ENCODING 300
SWIDTH 495 0
DWIDTH 9 0
BBX 12 21 -1 0
BITMAP
000063000260
0003FE415EF2
0000DFFFFFA0
000019EFD700
000000000000
001BFFFFFFC0
001FFFFFFFB0
000019FE1100
00000BFC0000
00000DFA0000
00000FF80000
00002FF50000
00005FF30000
00007FF10000
00009FD00000
0000CFB00000
0000EF900000
0001FF700000
0004FF610000
1CFFFFFFC000
3EFFFFFFA000
ENDCHAR
STARTCHAR ibreve
ENCODING 301
SWIDTH 246 0
DWIDTH 4 0
BBX 8 15 -1 0
BITMAP
16100035
6F9001EE
4FF52AFB
0CFFFFE3
019EEB30
00000000
003EA000
008FA000
00BF8000
00EF5000
01FF2013
02FF10BB
01FF4AF7
00DFFFA0
004DE800
ENDCHAR
STARTCHAR Iogonek
ENCODING 302
SWIDTH 495 0
DWIDTH 9 0
BBX 11 21 -1 -5
BITMAP
001BFFFFFFC0
001FFFFFFFB0
000019FE1100
00000BFC0000
00000DFA0000
00000FF80000
00002FF50000
00005FF30000
00007FF10000
00009FD00000
0000CFB00000
0000EF900000
0001FF700000
0004FF610000
1CFFFFFFC000
3EFFFFFFA000
000BF4000000
001FC0000000
002FD2320000
000DFFF90000
0003CFD30000
ENDCHAR
STARTCHAR iogonek
ENCODING 303
SWIDTH 246 0
DWIDTH 4 0
BBX 7 18 0 -5
BITMAP
01CE6000
06FFB000
02DE5000
00000000
03EA0000
08FA0000
0BF80000
0EF50000
1FF20120
2FF10AB0
2FF49F70
0EFFFA00
07FF7000
1EE30000
6F600000
7F813000
3FFFF200
04AB7000
ENDCHAR
STARTCHAR Idotaccent
ENCODING 304
SWIDTH 495 0
DWIDTH 9 0
BBX 11 20 -1 0
BITMAP
000000AEA000
000003FFF000
000001CE7000
000000000000
001BFFFFFFC0
001FFFFFFFB0
000019FE1100
00000BFC0000
00000DFA0000
00000FF80000
00002FF50000
00005FF30000
00007FF10000
00009FD00000
0000CFB00000
0000EF900000
0001FF700000
0004FF610000
1CFFFFFFC000
3EFFFFFFA000
ENDCHAR
STARTCHAR dotlessi
ENCODING 305
SWIDTH 246 0
DWIDTH 4 0
BBX 7 9 0 0
BITMAP
03EA0000
08FA0000
0BF80000
0EF50000
1FF20130
2FF10BB0
1FF4AF70
0DFFFA00
04DE8000
ENDCHAR
STARTCHAR Jcircumflex
ENCODING 308
SWIDTH 743 0
DWIDTH 13 0
BBX 13 24 1 -2
BITMAP
0000009EA00000
000007FFF40000
00003FE6FA0000
0000CF71FF1000
0000DB009D1000
00000000000000
0017ADEFEEC930
05EFFFFFFFFFB0
3FFA52112CFD30
9F9000000DFB00
AF7000000EF900
8FB000001FF700
2D8000003FF400
000000018FF200
0000007EFFE000
00003DFFEFB000
0005FFB2DF8000
003FF801FF4000
00CFA005FE0000
03FF200AF90000
05FF003FF30000
04FF32DF900000
01EFFFFC100000
003CFE91000000
ENDCHAR
STARTCHAR jcircumflex
ENCODING 309
SWIDTH 254 0
DWIDTH 5 0
BBX 12 26 -5 -9
BITMAP
000000016400
0000000AFE10
0000004FEF40
000000BF7F80
000004FB2FB0
00000CF41FE0
00000DA00BC0
000000000000
0000004EA000
0000008FB000
000000AF9000
000000CF7000
000000DF5011
000000FF34E7
000001FF8FE3
000003FFFC20
000005FF9100
00002DF90000
0003EFF60000
002ECDF30000
01DD2FE00000
07F45FA00000
0DC0AF500000
1FC4FD000000
0EFFF5000000
05EE60000000
ENDCHAR
STARTCHAR uni0136
ENCODING 310
SWIDTH 937 0
DWIDTH 17 0
BBX 20 21 0 -5
BITMAP
0005ADFED920001CE300
00AFFFFFFF90007FF300
07FE621CFD2000DFD000
0BF7000DFA0005FF6000
0BF6001FF7001DFC0000
07FA003FF501BFE20000
0052005FF46DFD300000
000009FFFFFF91000000
00000AFFFFF910000000
000000BFB6FFB0000000
000000DF909FF4000000
170001FF702FFB000060
7F5005FF300AFF4006F2
6FE43DFD0003FFD58FD0
1DFFFFF400009FFFFE20
019EFC40000008EEA200
00000000000000000000
00000000CC0000000000
00000001FF1000000000
00000002FB0000000000
00000001D50000000000
ENDCHAR
STARTCHAR uni0137
ENCODING 311
SWIDTH 525 0
DWIDTH 9 0
BBX 11 24 1 -6
BITMAP
0007EC100000
005FFF800000
00DE4FB00000
05F91FA00000
0BF43F700000
0EF17F200000
4FD0DA000000
7FA7E2000000
9FAE60000000
BFFA4CE70000
DFC5FFFF2000
EF4DB4FF3000
FFAE14FE1000
FFF75EF60140
FFF4FF500BB0
FFC2FF72AF70
DF80CFFFFA00
8E202AED8000
000000000000
009D10000000
00EF30000000
00FE00000000
01FA00000000
00D400000000
ENDCHAR
STARTCHAR kgreenlandic
ENCODING 312
SWIDTH 465 0
DWIDTH 8 0
BBX 11 9 0 0
BITMAP
02DA08EE5000
08F99FFFD000
0BF8FE3DF000
0EFBF80DB000
0FFEF6010120
1FFFF7000CA0
1FFEFD32BF60
0EF7CFFFFA00
09E11AEE7000
ENDCHAR
STARTCHAR Lacute
ENCODING 313
SWIDTH 673 0
DWIDTH 12 0
BBX 16 22 -1 0
BITMAP
0000000000000630
000000000001BFC0
00000000001CFF80
0000000002DFD500
0000000005D60000
0000000000000000
00000006BEFD7000
000001CFFFFFF800
00000CFF722AFF10
00006FF60003FF30
0000BFE00004FF20
0000EFA00004FC00
0001FF8000002100
0002FF6000000000
0003FF5000000000
0004FF3000000000
0005FF2000000000
0006FF0000000031
08DFFE83000001E6
8FFFFFFFD7325DF2
AFFFFAEFFFFFFF50
3CFD50059DEEB300
ENDCHAR
STARTCHAR lacute
ENCODING 314
SWIDTH 326 0
DWIDTH 6 0
BBX 10 23 1 0
BITMAP
0000000172
0000002DF9
000003EFF5
00003EFB30
00008C4000
0007EC1000
005FFF7000
00DE5FA000
05F91FA000
0BF42F9000
1FF14F7000
4FC08F3000
7F90CE0000
AF72F80000
CF58F20000
EF5E900000
EFCF200000
FFF8000000
EFD1002000
DF6004F200
9FB25ED100
3FFFFE3000
06EEA20000
ENDCHAR
STARTCHAR uni013B
ENCODING 315
SWIDTH 673 0
DWIDTH 12 0
BBX 16 21 -1 -5
BITMAP
00000006BEFD7000
000001CFFFFFF800
00000CFF722AFF10
00006FF60003FF30
0000BFE00004FF20
0000EFA00004FC00
0001FF8000002100
0002FF6000000000
0003FF5000000000
0004FF3000000000
0005FF2000000000
0006FF0000000031
08DFFE83000001E6
8FFFFFFFD7325DF2
AFFFFAEFFFFFFF50
3CFD50059DEEB300
0000000000000000
000003E800000000
000006FA00000000
000007F600000000
000005D100000000
ENDCHAR
STARTCHAR uni013C
ENCODING 316
SWIDTH 326 0
DWIDTH 6 0
BBX 8 24 1 -6
BITMAP
0007EC10
005FFF70
00DE5FA0
05F91FA0
0BF42F90
1FF14F70
4FC08F30
7F90CE00
AF72F800
CF58F200
EF5E9000
EFCF2000
FFF80000
EFD10020
DF6004F2
9FB25ED1
3FFFFE30
06EEA200
00000000
09E10000
0EF30000
0FE00000
0FA00000
0D400000
ENDCHAR
STARTCHAR Lcaron
ENCODING 317
SWIDTH 673 0
DWIDTH 12 0
BBX 17 16 -1 0
BITMAP
00000006BEFD700000
000001CFFFFFF80DE0
00000CFF722AFF3FE0
00006FF60003FF6F90
0000BFE00004FF4E30
0000EFA00004FC0000
0001FF800000210000
0002FF600000000000
0003FF500000000000
0004FF300000000000
0005FF200000000000
0006FF000000003100
08DFFE83000001E600
8FFFFFFFD7325DF200
AFFFFAEFFFFFFF5000
3CFD50059DEEB30000
ENDCHAR
STARTCHAR lcaron
ENCODING 318
SWIDTH 237 0
DWIDTH 4 0
BBX 8 17 0 0
BITMAP
00000010
001DD4FB
006FF6FB
009FD6F5
00CF95D1
00EF6000
03FF3000
05FE0000
08FB0000
0AF80000
0DF60000
0FF30000
2FF20220
3FF01D80
2FF3BF50
0EFFF800
05ED6000
ENDCHAR
STARTCHAR Ldot
ENCODING 319
SWIDTH 673 0
DWIDTH 12 0
BBX 16 16 -1 0
BITMAP
00000006BEFD7000
000001CFFFFFF800
00000CFF722AFF10
00006FF60003FF30
0000BFE00004FF20
0000EFA00004FC00
0001FF8000002100
0002FF606EC10000
0003FF50EFF30000
0004FF309EA00000
0005FF2000000000
0006FF0000000031
08DFFE83000001E6
8FFFFFFFD7325DF2
AFFFFAEFFFFFFF50
3CFD50059DEEB300
ENDCHAR
STARTCHAR ldot
ENCODING 320
SWIDTH 363 0
DWIDTH 7 0
BBX 9 18 0 0
BITMAP
0006E80000
000DF80000
002FF40000
005FF10000
009FD00000
00CF900000
00FF600000
03FF300000
06FE4DD100
08FBAFF400
0BF95EB000
0DF6000000
0FF4000000
1FF3000010
1FF40008C0
0EFB23AFA0
08FFFFFB10
007DED7000
ENDCHAR
STARTCHAR Lslash
ENCODING 321
SWIDTH 673 0
DWIDTH 12 0
BBX 16 20 -1 0
BITMAP
0000000000010000
00000028BDFFFC40
000007FFFFFFFF80
000006A742000000
00000006BEFD6000
000001CFFFFFF800
00000BFE622BFF10
00005FF50003FF30
0000BFD00004FF30
0000EF900005FD00
0001FF7000005200
0002FF6000000000
0003FF5000000000
0004FF3000000000
0005FF2000000000
0006FF0000000031
08DFFE83000001E6
8FFFFFFFD7325DF2
AFFFFAEFFFFFFF50
3CFD50059DEEB300
ENDCHAR
STARTCHAR lslash
ENCODING 322
SWIDTH 326 0
DWIDTH 6 0
BBX 10 20 1 0
BITMAP
0000001000
0017BEFFD4
04EFFFFFF8
08FB520000
0019EC1000
009FFF7000
03FD4FA000
0AF71FA000
1FF12F8000
5FC06F5000
8F90BE0000
BF63F80000
DF4BE10000
EF9F600000
FFFB000000
EFE2001000
DF7004F200
9FB25EE100
3FFFFE3000
06EEA20000
ENDCHAR
STARTCHAR Nacute
ENCODING 323
SWIDTH 884 0
DWIDTH 16 0
BBX 19 22 0 0
BITMAP
00000000000017200000
000000000002CFA00000
00000000002DFF600000
0000000003EFC3000000
0000000007D500000000
00000000000000000000
005CEC2004BEE9000000
09FFFF805FFFFF800000
7FA2CFA3FB33EFC00000
EB00AFABB000BFD00000
7100CFBF2000CFC00000
0000DFE90000EFA00000
0000FFF30003FF700000
0002FFD00006FF400000
0004FF800009FF100000
0006FF50000CFD000000
0009FF10000EFA000000
000BFE00001FF7000100
000DFB00002FF7002E30
000FF900000FFB24EE10
001FF7000009FFFFE400
000CE20000019DEA2000
ENDCHAR
STARTCHAR nacute
ENCODING 324
SWIDTH 496 0
DWIDTH 9 0
BBX 12 16 0 0
BITMAP
0000001DA000
0000007FE000
000000DF7000
000004FB0000
00000AE20000
00000C500000
000000000000
02DA05DE2000
08F94FFF4000
0BF6EFFF2000
0EFAE5FF0000
0FFE75FC0030
1FFF17F904F3
1FFB09FB4EE1
0EF608FFFE30
09D102CEB300
ENDCHAR
STARTCHAR uni0145
ENCODING 325
SWIDTH 884 0
DWIDTH 16 0
BBX 19 21 0 -5
BITMAP
005CEC2004BEE9000000
09FFFF805FFFFF800000
7FA2CFA3FB33EFC00000
EB00AFABB000BFD00000
7100CFBF2000CFC00000
0000DFE90000EFA00000
0000FFF30003FF700000
0002FFD00006FF400000
0004FF800009FF100000
0006FF50000CFD000000
0009FF10000EFA000000
000BFE00001FF7000100
000DFB00002FF7002E30
000FF900000FFB24EE10
001FF7000009FFFFE400
000CE20000019DEA2000
00000000000000000000
0000004E700000000000
0000007FA00000000000
0000008F500000000000
0000006D100000000000
ENDCHAR
STARTCHAR uni0146
ENCODING 326
SWIDTH 496 0
DWIDTH 9 0
BBX 12 15 0 -6
BITMAP
02DA05DE2000
08F94FFF4000
0BF6EFFF2000
0EFAE5FF0000
0FFE75FC0030
1FFF17F904F3
1FFB09FB4EE1
0EF608FFFE30
09D102CEB300
000000000000
0009D1000000
000EF3000000
000FE0000000
001FA0000000
000D40000000
ENDCHAR
STARTCHAR Ncaron
ENCODING 327
SWIDTH 884 0
DWIDTH 16 0
BBX 19 22 0 0
BITMAP
00000005E303E6000000
00000005F90CF4000000
00000000EE5FA0000000
000000007FEE10000000
000000001CE400000000
00000000000000000000
005CEC2004BEE9000000
09FFFF805FFFFF800000
7FA2CFA3FB33EFC00000
EB00AFABB000BFD00000
7100CFBF2000CFC00000
0000DFE90000EFA00000
0000FFF30003FF700000
0002FFD00006FF400000
0004FF800009FF100000
0006FF50000CFD000000
0009FF10000EFA000000
000BFE00001FF7000100
000DFB00002FF7002E30
000FF900000FFB24EE10
001FF7000009FFFFE400
000CE20000019DEA2000
ENDCHAR
STARTCHAR ncaron
ENCODING 328
SWIDTH 496 0
DWIDTH 9 0
BBX 12 17 0 0
BITMAP
000261016200
0008F608F600
0006F81EE100
0003FA7F7000
0000ECDD1000
0000BFF60000
00005EA00000
000000000000
02DA05DE2000
08F94FFF4000
0BF6EFFF2000
0EFAE5FF0000
0FFE75FC0030
1FFF17F904F3
1FFB09FB4EE1
0EF608FFFE30
09D102CEB300
ENDCHAR
STARTCHAR napostrophe
ENCODING 329
SWIDTH 496 0
DWIDTH 9 0
BBX 13 15 -1 0
BITMAP
0AD10000000000
0FF30000000000
0FE00000000000
1FA00000000000
0D400000000000
00000000000000
002DA05DE20000
008F94FFF40000
00BF6EFFF20000
00EFAE5FF00000
00FFE75FC00300
01FFF17F904F30
01FFB09FB4EE10
00EF608FFFE300
009D102CEB3000
ENDCHAR
STARTCHAR Eng
ENCODING 330
SWIDTH 884 0
DWIDTH 16 0
BBX 19 23 0 -7
BITMAP
005CEC2004BEE8000000
09FFFF806FFFFF700000
7FA2CFA3FB33EFB00000
EB00AFABB000BFC00000
6100CFBF2000DFB00000
0000DFF90000FF900000
0000FFF30003FF600000
0002FFD00006FF300000
0004FF800009FF000000
0006FF50000CFC000000
0009FF10000EF8000000
000BFE00003FF5000100
000DFB00006FF2002E30
000FF900009FF624DE10
001FF70000CFFFFFF400
000BE20000EFBDFB3000
0000000003FF10000000
0000000007FC00000000
000000000CF700000000
000BD1003FE100000000
000DFC32CF8000000000
0004FFFFFC1000000000
00003BEE910000000000
ENDCHAR
STARTCHAR eng
ENCODING 331
SWIDTH 495 0
DWIDTH 9 0
BBX 12 15 0 -6
BITMAP
02DA05DE2000
08F94FFF4000
0BF6EFFF2000
0EFAE5FE0000
0FFE75FC0030
1FFF17F904F3
1FFB0AF75EE1
0EF60DFFFE30
09D11FFEB200
00005FA00000
00009F500000
1610DE100000
6F45F8000000
3FDED1000000
09EC30000000
ENDCHAR
STARTCHAR Omacron
ENCODING 332
SWIDTH 816 0
DWIDTH 15 0
BBX 14 20 1 0
BITMAP
00000011110000
00000CFFFF9000
00000DFFFF8000
00000000000000
000039DFDA4000
0008FFFFFFF700
008FFB414DFF40
04FF900002EFC0
0CFD0000009FF2
2FF70000006FF4
7FF20000004FF5
AFE00000005FF4
BFD00000006FF2
CFC00000009FE0
BFD0000000DFA0
9FF2000005FF50
4FF800002EFB00
0CFF8226EFD200
02DFFFFFFD2000
0017CEEC700000
ENDCHAR
STARTCHAR omacron
ENCODING 333
SWIDTH 451 0
DWIDTH 8 0
BBX 11 13 0 0
BITMAP
000111100000
00EFFFF70000
01EFFFF60000
000000000000
004CEC500000
04FFFFF30000
0DF97FFA1310
3FF14FFFFF70
5FD008FFFC30
5FE007F80000
2FF63EF20000
0AFFFF800000
019EE8000000
ENDCHAR
STARTCHAR Obreve
ENCODING 334
SWIDTH 816 0
DWIDTH 15 0
BBX 14 21 1 0
BITMAP
00002710005400
00009FA229FB00
00004FFFFFF400
000004CEEB4000
00000000000000
000039DFDA4000
0008FFFFFFF700
008FFB414DFF40
04FF900002EFC0
0CFD0000009FF2
2FF70000006FF4
7FF20000004FF5
AFE00000005FF4
BFD00000006FF2
CFC00000009FE0
BFD0000000DFA0
9FF2000005FF50
4FF800002EFB00
0CFF8226EFD200
02DFFFFFFD2000
0017CEEC700000
ENDCHAR
STARTCHAR obreve
ENCODING 335
SWIDTH 451 0
DWIDTH 8 0
BBX 11 15 0 0
BITMAP
026000052000
0AF5004F9000
08FD33DF7000
02EFFFFC1000
003BEE910000
000000000000
004CEC500000
04FFFFF30000
0DF97FFA1310
3FF14FFFFF70
5FD008FFFC30
5FE007F80000
2FF63EF20000
0AFFFF800000
019EE8000000
ENDCHAR
STARTCHAR Ohungarumlaut
ENCODING 336
SWIDTH 816 0
DWIDTH 15 0
BBX 14 22 1 0
BITMAP
00000026016100
000000BF57F900
000001FF2BF600
000004F81FC000
000005D12E4000
00000000000000
000039DFDA4000
0008FFFFFFF700
008FFB414DFF40
04FF900002EFC0
0CFD0000009FF2
2FF70000006FF4
7FF20000004FF5
AFE00000005FF4
BFD00000006FF2
CFC00000009FE0
BFD0000000DFA0
9FF2000005FF50
4FF800002EFB00
0CFF8226EFD200
02DFFFFFFD2000
0017CEEC700000
ENDCHAR
STARTCHAR ohungarumlaut
ENCODING 337
SWIDTH 451 0
DWIDTH 8 0
BBX 11 16 0 0
BITMAP
0002E80CC000
0007FC4FF100
000CF78FB000
001FD0CF2000
005F51F90000
006B02D10000
000000000000
004CEC500000
04FFFFF30000
0DF97FFA1310
3FF14FFFFF70
5FD008FFFC30
5FE007F80000
2FF63EF20000
0AFFFF800000
019EE8000000
ENDCHAR
STARTCHAR OE
ENCODING 338
SWIDTH 1124 0
DWIDTH 20 0
BBX 22 16 1 0
BITMAP
000039DFEA400AEFFFFF40
0008FFFFFFF87FFFFFFE30
008FFB414DFFEFB1111000
04FF900002EFFF70000000
0CFD0000009FFF30000000
2FF70000006FFF10000000
7FF20000004FFC00000000
AFE00000005FFFFFFFE100
BFD00000006FFFFFFFD000
CFC00000009FF511110000
BFD0000000DFF200000000
9FF2000005FFF300000000
4FF800002EFFF800000052
0CFF8226EFDDFF83136CF6
02DFFFFFFC13EFFFFFFFC1
0017CEEB600028DEFDA400
ENDCHAR
STARTCHAR oe
ENCODING 339
SWIDTH 668 0
DWIDTH 12 0
BBX 15 9 0 0
BITMAP
004CEC23BEC20000
05FFFFDEFFFB0000
0DF92DFF83FD0000
3FF108FE04FA0000
5FD007FD8FE20310
5FE009FFE9205F40
3FF54EFF7239FE20
0BFFFFCFFFFFE400
01AED607DFD81000
ENDCHAR
STARTCHAR Racute
ENCODING 340
SWIDTH 880 0
DWIDTH 16 0
BBX 18 22 1 0
BITMAP
000000000005400000
00000000009FE00000
000000001BFFA00000
00000001CFD6000000
00000003E710000000
000000000000000000
000018CEFEA4000000
0006EFFFFFFF800000
007FF94226EFF30000
04FE4053006FF70000
0DF607FD003FF80000
4FC00BFC004FF50000
9F700EF900BFD10000
CF302FF74BFE400000
EF16FFFFFFB2000000
FF05FFFFFD30000000
FF008FE3EFE1000000
EF10BFB05FF8000010
BF40DF900DFE1003F1
5FC4FF7005FFB25ED0
0BFFFF2000BFFFFE30
019EE7000019EEA200
ENDCHAR
STARTCHAR racute
ENCODING 341
SWIDTH 455 0
DWIDTH 8 0
BBX 11 16 0 0
BITMAP
0000005E4000
000000DF8000
000004FE2000
00000AF60000
00001FA00000
00003D100000
000000000000
02DA05DE2000
08F95FFF4000
0BF7EEFF2000
0EFAE3FF29A0
0FFE62FFFF80
1FFF10BFF800
1FFB00021000
0EF600000000
09D100000000
ENDCHAR
STARTCHAR uni0156
ENCODING 342
SWIDTH 880 0
DWIDTH 16 0
BBX 18 21 1 -5
BITMAP
000018CEFEA4000000
0006EFFFFFFF800000
007FF94226EFF30000
04FE4053006FF70000
0DF607FD003FF80000
4FC00BFC004FF50000
9F700EF900BFD10000
CF302FF74BFE400000
EF16FFFFFFB2000000
FF05FFFFFD30000000
FF008FE3EFE1000000
EF10BFB05FF8000010
BF40DF900DFE1003F1
5FC4FF7005FFB25ED0
0BFFFF2000BFFFFE30
019EE7000019EEA200
000000000000000000
0000002EA000000000
0000005FC000000000
0000005F8000000000
0000003E2000000000
ENDCHAR
STARTCHAR uni0157
ENCODING 343
SWIDTH 455 0
DWIDTH 8 0
BBX 11 15 0 -6
BITMAP
02DA05DE2000
08F95FFF4000
0BF7EEFF2000
0EFAE3FF29A0
0FFE62FFFF80
1FFF10BFF800
1FFB00021000
0EF600000000
09D100000000
000000000000
1CB000000000
3FE000000000
4FB000000000
4F6000000000
3D1000000000
ENDCHAR
STARTCHAR Rcaron
ENCODING 344
SWIDTH 880 0
DWIDTH 16 0
BBX 18 22 1 0
BITMAP
000001D700CB000000
000001FE07F9000000
0000009F5ED1000000
0000003FEF50000000
00000008E800000000
000000000000000000
000018CEFEA4000000
0006EFFFFFFF800000
007FF94226EFF30000
04FE4053006FF70000
0DF607FD003FF80000
4FC00BFC004FF50000
9F700EF900BFD10000
CF302FF74BFE400000
EF16FFFFFFB2000000
FF05FFFFFD30000000
FF008FE3EFE1000000
EF10BFB05FF8000010
BF40DF900DFE1003F1
5FC4FF7005FFB25ED0
0BFFFF2000BFFFFE30
019EE7000019EEA200
ENDCHAR
STARTCHAR rcaron
ENCODING 345
SWIDTH 455 0
DWIDTH 8 0
BBX 11 17 0 0
BITMAP
000440036000
000EF01EF000
000CF26F9000
0009F4DE2000
0005FAF80000
0002FFE10000
0000AE500000
000000000000
02DA05DE2000
08F95FFF4000
0BF7EEFF2000
0EFAE3FF29A0
0FFE62FFFF80
1FFF10BFF800
1FFB00021000
0EF600000000
09D100000000
ENDCHAR
STARTCHAR Sacute
ENCODING 346
SWIDTH 693 0
DWIDTH 12 0
BBX 13 22 0 0
BITMAP
00000000002600
0000000004EF60
000000005FFE30
00000006FF9200
0000000BB30000
00000000000000
00005BDFEB6000
000BFFFFFFFA00
008FF83139FF40
00EF900000EF60
01FF600000EF60
00FFC10000BD10
009FFD50000000
001BFFFD710000
00006DFFFE4000
0000004BFFF300
1CC000005FFA00
5FF000000BFC00
5FF100000DFA00
2FFB4224BFF500
08FFFFFFFF8000
004ADEFDA30000
ENDCHAR
STARTCHAR sacute
ENCODING 347
SWIDTH 427 0
DWIDTH 8 0
BBX 11 16 -1 0
BITMAP
0000000CB000
0000006FF100
000000CF9000
000003FD1000
000009F30000
00000A700000
000000000000
00006E800000
0001EF400000
0006FF200000
000DFFB00000
007F8FF70160
03FA09FD0BF0
0DD5ACFFCFB0
1C3AFFFFFE20
0004DFFEA200
ENDCHAR
STARTCHAR Scircumflex
ENCODING 348
SWIDTH 693 0
DWIDTH 12 0
BBX 13 22 0 0
BITMAP
0000002BF70000
000000BFFF1000
000006FC9F6000
00001EF34FC000
00003E800CA000
00000000000000
00005BDFEB6000
000BFFFFFFFA00
008FF83139FF40
00EF900000EF60
01FF600000EF60
00FFC10000BD10
009FFD50000000
001BFFFD710000
00006DFFFE4000
0000004BFFF300
1CC000005FFA00
5FF000000BFC00
5FF100000DFA00
2FFB4224BFF500
08FFFFFFFF8000
004ADEFDA30000
ENDCHAR
STARTCHAR scircumflex
ENCODING 349
SWIDTH 427 0
DWIDTH 8 0
BBX 11 17 -1 0
BITMAP
000002720000
00001DFB0000
00007FEF1000
0001ED8F4000
0008F76F7000
001EE14FA000
003E601D8000
000000000000
00006E800000
0001EF400000
0006FF200000
000DFFB00000
007F8FF70160
03FA09FD0BF0
0DD5ACFFCFB0
1C3AFFFFFE20
0004DFFEA200
ENDCHAR
STARTCHAR Scedilla
ENCODING 350
SWIDTH 693 0
DWIDTH 12 0
BBX 13 22 0 -6
BITMAP
00005ADFEB5000
000BFFFFFFF900
008FF83139FF30
00EF900000EF60
01FF600000EF60
00FFB00000CE20
00AFFC30000000
001CFFFC500000
00017EFFFC3000
0000016DFFE200
0AA000008FF900
4FF000000CFC00
5FF000000CFB00
3FF810018FF700
0BFFFDDFFFC100
019FFFFFE80000
0003EFFA000000
000003ED000000
000003FC000000
003EFFF7000000
002EFE70000000
00001000000000
ENDCHAR
STARTCHAR scedilla
ENCODING 351
SWIDTH 427 0
DWIDTH 8 0
BBX 11 14 -1 -5
BITMAP
00006E800000
0001EF400000
0006FF200000
000CFF700000
006FDFF30000
02ED1DFB04E0
0CF407FE3ED0
2F66EEFFFE30
010BFFFEB300
000BFFD00000
00001BF20000
00000BF20000
009CEFB00000
00BFE9100000
ENDCHAR
STARTCHAR Scaron
ENCODING 352
SWIDTH 693 0
DWIDTH 12 0
BBX 13 22 0 0
BITMAP
000008D106E300
000009F51EE100
000003FA9F6000
000000BFFB0000
0000003EC20000
00000000000000
00005BDFEB6000
000BFFFFFFFA00
008FF83139FF40
00EF900000EF60
01FF600000EF60
00FFC10000BD10
009FFD50000000
001BFFFD710000
00006DFFFE4000
0000004BFFF300
1CC000005FFA00
5FF000000BFC00
5FF100000DFA00
2FFB4224BFF500
08FFFFFFFF8000
004ADEFDA30000
ENDCHAR
STARTCHAR scaron
ENCODING 353
SWIDTH 427 0
DWIDTH 8 0
BBX 11 17 -1 0
BITMAP
000161006200
0006F807F700
0005FA0DF200
0001FB5F9000
0000DDCE1000
00009FF80000
00003EB10000
000000000000
00006E800000
0001EF400000
0006FF200000
000DFFB00000
007F8FF70160
03FA09FD0BF0
0DD5ACFFCFB0
1C3AFFFFFE20
0004DFFEA200
ENDCHAR
STARTCHAR uni0162
ENCODING 354
SWIDTH 697 0
DWIDTH 13 0
BBX 17 21 0 -5
BITMAP
00038BDEFFFFFFEB10
02CFFFFFFFFFFFFF20
0CFC631BFD11122200
4FE0000DFB00000000
5FC0001FF800000000
2FF2004FF500000000
0670007FF300000000
0000009FF000000000
000000BFC000000000
000000EFA000000000
000001FF8000000000
000003FF6000000000
000005FF4000000000
000007FF2000000000
000009FF1000000000
00005FFD0000000000
00007FFF5000000000
0000017F9000000000
0000117F8000000000
0007FFFF2000000000
0005EEC40000000000
ENDCHAR
STARTCHAR uni0163
ENCODING 355
SWIDTH 393 0
DWIDTH 7 0
BBX 10 22 0 -5
BITMAP
00003CE300
0001DFFA00
0009F6EC00
001ED0EB00
006F91F900
00AF66F300
00DF4EA000
01FFCD1000
CFFFFFFE00
DFFFFFFA00
06FC110000
06FC000000
06FD000010
04FE0001D5
01FF702CF3
00AFFFFF70
006FFFD500
007DFE1000
00008F5000
0001AF4000
0AFFFD0000
09FFB20000
ENDCHAR
STARTCHAR Tcaron
ENCODING 356
SWIDTH 697 0
DWIDTH 13 0
BBX 17 22 0 0
BITMAP
0000003E501D800000
0000003FB0AF700000
0000000CF5FC000000
00000005FEF3000000
00000000AE60000000
000000000000000000
00038BDEFFFFFFEB10
02CFFFFFFFFFFFFF20
0CFC631BFD11122200
3FE0000DFB00000000
5FC0001FF800000000
2FF2004FF500000000
0680006FF300000000
0000009FF000000000
000000BFD000000000
000000DFA000000000
000001FF8000000000
000003FF6000000000
000005FF4000000000
000007FF2000000000
000009FF1000000000
000005EA0000000000
ENDCHAR
STARTCHAR tcaron
ENCODING 357
SWIDTH 343 0
DWIDTH 6 0
BBX 9 17 0 0
BITMAP
0000000100
0000009F40
000CE3CF40
004FF2DE00
007FE0B700
00BFA00000
00EF700000
9FFFFFE200
9FFFFFB000
07FD000000
08FA000000
0AF9000000
0BF8000320
0BF9002E70
09FD24DF30
04FFFFF600
006DFC4000
ENDCHAR
STARTCHAR Tbar
ENCODING 358
SWIDTH 697 0
DWIDTH 13 0
BBX 17 16 0 0
BITMAP
00038BDEFFFFFFEB10
02CFFFFFFFFFFFFF20
0CFC631BFD11122200
4FE0000DFA00000000
5FC0001FF800000000
2FF2004FF500000000
0670007FF200000000
0006EFFFFFFC000000
0009FFFFFFFB000000
000011EFA110000000
000001FF8000000000
000003FF6000000000
000005FF4000000000
000007FF2000000000
000009FF1000000000
000005EA0000000000
ENDCHAR
STARTCHAR tbar
ENCODING 359
SWIDTH 343 0
DWIDTH 6 0
BBX 10 15 -1 0
BITMAP
0000CE3000
0004FF2000
0007FE0000
000BFA0000
000EF70000
09FFFFFE20
09FFFFFB00
006FD00000
008FC11000
1EFFFFF600
0AEFDB9111
00BF8001D7
009FD23CF4
004FFFFF70
0006DEC400
ENDCHAR
STARTCHAR Utilde
ENCODING 360
SWIDTH 890 0
DWIDTH 16 0
BBX 19 21 0 0
BITMAP
0000000AE80035000000
0000007FFFB4ED000000
000000EE4CFFF7000000
00000053008EA0000000
00000000000000000000
005CED4000003EA00000
09FFFFD000008FF00000
7FB39FF10000AFE00000
EB007FF10000CFC00000
71009FF00000FFA00000
0000CFC00003FF800000
0000EF900006FF500000
0003FF60000AFF300000
0006FF30001EFF100000
0009FE00006FFD000000
000CFB0000DEFB000000
000EF90006ECFA000210
001FF8004E8CFB004F40
000FFE79FD1CFF89FE20
000AFFFFE308FFFFF400
0001AEEA20008DEB3000
ENDCHAR
STARTCHAR utilde
ENCODING 361
SWIDTH 462 0
DWIDTH 8 0
BBX 11 14 0 0
BITMAP
002DD3006100
00CFFF68F600
04FA5EFFD100
016103CE3000
000000000000
02DB00CC0000
07FA04FC0000
0BF709F90000
0EF40EF60000
0FF25FF30120
1FF1CFF01C90
2FFDDFF3BF50
0EFF7EFFF800
05EA06ED6000
ENDCHAR
STARTCHAR Umacron
ENCODING 362
SWIDTH 890 0
DWIDTH 16 0
BBX 19 20 0 0
BITMAP
00000000111100000000
0000000EFFFF80000000
0000001EFFFF60000000
00000000000000000000
005CED4000003EA00000
09FFFFD000008FF00000
7FB39FF10000AFE00000
EB007FF10000CFC00000
71009FF00000FFA00000
0000CFC00003FF800000
0000EF900006FF500000
0003FF60000AFF300000
0006FF30001EFF100000
0009FE00006FFD000000
000CFB0000DEFB000000
000EF90006ECFA000210
001FF8004E8CFB004F40
000FFE79FD1CFF89FE20
000AFFFFE308FFFFF400
0001AEEA20008DEB3000
ENDCHAR
STARTCHAR umacron
ENCODING 363
SWIDTH 462 0
DWIDTH 8 0
BBX 11 13 0 0
BITMAP
000111100000
005FFFFE2000
006FFFFE1000
000000000000
02DB00CC0000
07FA04FC0000
0BF709F90000
0EF40EF60000
0FF25FF30120
1FF1CFF01C90
2FFDDFF3BF50
0EFF7EFFF800
05EA06ED6000
ENDCHAR
STARTCHAR Ubreve
ENCODING 364
SWIDTH 890 0
DWIDTH 16 0
BBX 19 21 0 0
BITMAP
00000036000053000000
000000BF922AFA000000
0000005FFFFFF3000000
00000005CFEA30000000
00000000000000000000
005CED4000003EA00000
09FFFFD000008FF00000
7FB39FF10000AFE00000
EB007FF10000CFC00000
71009FF00000FFA00000
0000CFC00003FF800000
0000EF900006FF500000
0003FF60000AFF300000
0006FF30001EFF100000
0009FE00006FFD000000
000CFB0000DEFB000000
000EF90006ECFA000210
001FF8004E8CFB004F40
000FFE79FD1CFF89FE20
000AFFFFE308FFFFF400
0001AEEA20008DEB3000
ENDCHAR
STARTCHAR ubreve
ENCODING 365
SWIDTH 462 0
DWIDTH 8 0
BBX 11 15 0 0
BITMAP
005300016000
01FD000AF300
00EF826FE100
008FFFFF7000
0007DFC50000
000000000000
02DB00CC0000
07FA04FC0000
0BF709F90000
0EF40EF60000
0FF25FF30120
1FF1CFF01C90
2FFDDFF3BF50
0EFF7EFFF800
05EA06ED6000
ENDCHAR
STARTCHAR Uring
ENCODING 366
SWIDTH 890 0
DWIDTH 16 0
BBX 19 23 0 0
BITMAP
000000005EF800000000
00000001EFFF30000000
00000005F75F70000000
00000005F76F60000000
00000002FFFF20000000
000000006ED500000000
00000000000000000000
005CED4000003EA00000
09FFFFD000008FF00000
7FB39FF10000AFE00000
EB007FF10000CFC00000
71009FF00000FFA00000
0000CFC00003FF800000
0000EF900006FF500000
0003FF60000AFF300000
0006FF30001EFF100000
0009FE00006FFD000000
000CFB0000DEFB000000
000EF90006ECFA000210
001FF8004E8CFB004F40
000FFE79FD1CFF89FE20
000AFFFFE308FFFFF400
0001AEEA20008DEB3000
ENDCHAR
STARTCHAR uring
ENCODING 367
SWIDTH 462 0
DWIDTH 8 0
BBX 11 16 0 0
BITMAP
0000AFD30000
0007FFFC0000
000BE1BF0000
000BE2CE0000
0008FFFA0000
0001AEB10000
000000000000
02DB00CC0000
07FA04FC0000
0BF709F90000
0EF40EF60000
0FF25FF30120
1FF1CFF01C90
2FFDDFF3BF50
0EFF7EFFF800
05EA06ED6000
ENDCHAR
STARTCHAR Uhungarumlaut
ENCODING 368
SWIDTH 890 0
DWIDTH 16 0
BBX 19 22 0 0
BITMAP
00000000360161000000
00000000CF48F8000000
00000001FE1DF4000000
00000005F72FB0000000
00000006C02E30000000
00000000000000000000
005CED4000003EA00000
09FFFFD000008FF00000
7FB39FF10000AFE00000
EB007FF10000CFC00000
71009FF00000FFA00000
0000CFC00003FF800000
0000EF900006FF500000
0003FF60000AFF300000
0006FF30001EFF100000
0009FE00006FFD000000
000CFB0000DEFB000000
000EF90006ECFA000210
001FF8004E8CFB004F40
000FFE79FD1CFF89FE20
000AFFFFE308FFFFF400
0001AEEA20008DEB3000
ENDCHAR
STARTCHAR uhungarumlaut
ENCODING 369
SWIDTH 462 0
DWIDTH 8 0
BBX 11 16 0 0
BITMAP
00007E34E600
0000EF6AFA00
0003FE1EF400
0007F73FB000
000BD07F3000
000C50890000
000000000000
02DB00CC0000
07FA04FC0000
0BF709F90000
0EF40EF60000
0FF25FF30120
1FF1CFF01C90
2FFDDFF3BF50
0EFF7EFFF800
05EA06ED6000
ENDCHAR
STARTCHAR Uogonek
ENCODING 370
SWIDTH 890 0
DWIDTH 16 0
BBX 19 21 0 -5
BITMAP
005CED4000003EA00000
08FFFFD000008FF00000
6FC39FF10000AFE00000
EC107FF10000CFC00000
82009FF00000EFA00000
0000CFD00002FF800000
0000EFA00006FF600000
0003FF60000AFF300000
0006FF30000EFF100000
0009FF00005FFE000000
000CFC0000BFFC000000
000EF90003FCFA000000
001FF8001D9CFA001C40
000FFC24CE1CFE33CF30
000AFFFFE408FFFFF700
0001AEEA30019FFE5000
0000000000001ED10000
0000000000006F700000
0000000000007F912000
0000000000003FFFF400
00000000000004BC9000
ENDCHAR
STARTCHAR uogonek
ENCODING 371
SWIDTH 462 0
DWIDTH 8 0
BBX 11 14 0 -5
BITMAP
02DB00CC0000
07FA04FC0000
0BF709F90000
0EF40EF60000
0FF25FF30120
1FF1CFF01C90
2FFDDFF3BF50
0EFF7EFFF800
05EA09FE6000
00002FD20000
00008F400000
00009F713000
00004FFFF100
000005AB6000
ENDCHAR
STARTCHAR Wcircumflex
ENCODING 372
SWIDTH 1217 0
DWIDTH 22 0
BBX 23 22 2 0
BITMAP
0000000002CE600000000000
000000000CFFE10000000000
000000007FB9F50000000000
00000002FF35FB0000000000
00000004E701D90000000000
000000000000000000000000
1CE2000007E800019ED50000
5FF400000EFA000AFFFF2000
7FF200002FF8002FD2EF5000
8FF000005FF6005F70CF6000
AFE000008FF4006F60DF5000
BFD00000CFF4005F91FF3000
CFC00001FFF3001FE7FE0000
CFB00005FFF20008FFFB2100
CFB0000AFFF30000AFFFFF60
CFB0001EFFF300008FEDEE40
AFD0007FBEF40001EF600000
8FF001DF5DF6000BFC000000
5FF509FD0AFB008FF3000000
1FFEBFF406FFBBFF60000000
09FFFF8001EFFFF700000000
00AED600004DEB4000000000
ENDCHAR
STARTCHAR wcircumflex
ENCODING 373
SWIDTH 700 0
DWIDTH 13 0
BBX 15 17 0 0
BITMAP
0000001730000000
000000CFD0000000
000006FEF2000000
00001DE7F5000000
00007F85F8000000
0001EF23FC000000
0002E701D9000000
0000000000000000
0DD003E701CE3000
1FF10AF909FF6000
1FF11FF90CFF3340
1FF27FFA0AFFFFE0
0FF3DFFB2FFEFE70
0EF8FAFBAF800000
0DFEF4FEFE100000
0BFF90FFF5000000
03EC108E80000000
ENDCHAR
STARTCHAR Ycircumflex
ENCODING 374
SWIDTH 851 0
DWIDTH 15 0
BBX 18 28 0 -6
BITMAP
000000001AF9000000
000000009FFF300000
00000004FE7F900000
0000000DF62FE00000
0000001DA00AD00000
000000000000000000
005CED4000003EC000
08FFFFD000008FF100
6FC39FF10000AFE000
EC107FF10000CFC000
82009FF00000EFA000
0000CFD00003FF8000
0000EFA00007FF6000
0003FF70000CFF4000
0005FF40003FFF2000
0007FF1000AEFF0000
0008FF1005FBFD0000
0006FF716FA9FB0000
0001EFFFFC1BFC9DF3
00003CED838EFFFFC1
00000002AFFFF94100
0000006FFB7FF20000
000007FD405FE00000
00003FE2009FA00000
00008F9002EF500000
00009FC12CFC000000
00006FFFFFD2000000
000007EFE910000000
ENDCHAR
STARTCHAR ycircumflex
ENCODING 375
SWIDTH 479 0
DWIDTH 9 0
BBX 12 26 -1 -9
BITMAP
000000560000
000006FF5000
00001DEF9000
00007F7FC000
0001EE1DF100
0007F80BF400
0009D107E200
000000000000
002DB00CC000
007FA04FC000
00BF709FA000
00EF40EF7000
00FF25FF5022
01FF1CFF34E8
02FFDEFF8FE3
00EFFAFFFC20
005EA5FF9000
00003EF90000
0003EFF50000
003ECDF20000
01DD2FE00000
08F45F900000
0DC0AF400000
1FC4FD000000
0EFFF5000000
05EE60000000
ENDCHAR
STARTCHAR Ydieresis
ENCODING 376
SWIDTH 851 0
DWIDTH 15 0
BBX 18 26 0 -6
BITMAP
00000009E51CE20000
0000001FF94FF50000
0000000BE42DD10000
000000000000000000
005CED4000003EC000
08FFFFD000008FF100
6FC39FF10000AFE000
EC107FF10000CFC000
82009FF00000EFA000
0000CFD00003FF8000
0000EFA00007FF6000
0003FF70000CFF4000
0005FF40003FFF2000
0007FF1000AEFF0000
0008FF1005FBFD0000
0006FF716FA9FB0000
0001EFFFFC1BFC9DF3
00003CED838EFFFFC1
00000002AFFFF94100
0000006FFB7FF20000
000007FD405FE00000
00003FE2009FA00000
00008F9002EF500000
00009FC12CFC000000
00006FFFFFD2000000
000007EFE910000000
ENDCHAR
STARTCHAR Zacute
ENCODING 377
SWIDTH 721 0
DWIDTH 13 0
BBX 16 22 0 0
BITMAP
0000000000063000
0000000001BFD000
000000001CFF8000
00000001DFD50000
00000005D6000000
0000000000000000
0004ADEFEDC97200
01BFFFFFFFFFFE00
08FE731123DFE800
0DF6000006FF7000
0DF400001EFD0000
0AF800009FF40000
01720003FFA00000
0000000CFE100000
0000008FF6000000
000004FFC0000000
00001DFF30000000
0000AFF700000041
19EFFFE3000003E4
8FFFFFFFC6226EE1
AFFFFBEFFFFFFE30
3CFC4015ADEEA200
ENDCHAR
STARTCHAR zacute
ENCODING 378
SWIDTH 445 0
DWIDTH 8 0
BBX 10 16 1 0
BITMAP
000007E300
00001EF600
00006FE100
0000CF4000
0003F90000
0005C10000
0000000000
BFFFFFF600
CFFFFFF600
014CFE8000
07FF910000
5FF4000041
CFA00005F5
CFD3139FE1
6FFFFFFD30
05CEEC7100
ENDCHAR
STARTCHAR Zdotaccent
ENCODING 379
SWIDTH 721 0
DWIDTH 13 0
BBX 16 20 0 0
BITMAP
0000000AEA000000
0000003FFF000000
0000001CE8000000
0000000000000000
0004ADEFEDC97200
01BFFFFFFFFFFE00
08FE731123DFE800
0DF6000006FF7000
0DF400001EFD0000
0AF800009FF40000
01720003FFA00000
0000000CFE100000
0000008FF6000000
000004FFC0000000
00001DFF30000000
0000AFF700000041
19EFFFE3000003E4
8FFFFFFFC6226EE1
AFFFFBEFFFFFFE30
3CFC4015ADEEA200
ENDCHAR
STARTCHAR zdotaccent
ENCODING 380
SWIDTH 445 0
DWIDTH 8 0
BBX 10 13 1 0
BITMAP
000BE80000
004FFD0000
001CE60000
0000000000
BFFFFFF600
CFFFFFF600
014CFE8000
07FF910000
5FF4000041
CFA00005F5
CFD3139FE1
6FFFFFFD30
05CEEC7100
ENDCHAR
STARTCHAR Zcaron
ENCODING 381
SWIDTH 721 0
DWIDTH 13 0
BBX 16 22 0 0
BITMAP
000002E601D90000
000002FC09F70000
000000BF5FC00000
0000004FEF300000
0000000AE6000000
0000000000000000
0004ADEFEDC97200
01BFFFFFFFFFFE00
08FE731123DFE800
0DF6000006FF7000
0DF400001EFD0000
0AF800009FF40000
01720003FFA00000
0000000CFE100000
0000008FF6000000
000004FFC0000000
00001DFF30000000
0000AFF700000041
19EFFFE3000003E4
8FFFFFFFC6226EE1
AFFFFBEFFFFFFE30
3CFC4015ADEEA200
ENDCHAR
STARTCHAR zcaron
ENCODING 382
SWIDTH 445 0
DWIDTH 8 0
BBX 10 17 1 0
BITMAP
0054003500
01FD01ED00
00EF08F700
00AF3EE100
007FAF6000
003FFD0000
000CE40000
0000000000
BFFFFFF600
CFFFFFF600
014CFE8000
07FF910000
5FF4000041
CFA00005F5
CFD3139FE1
6FFFFFFD30
05CEEC7100
ENDCHAR
STARTCHAR uni018F
ENCODING 399
SWIDTH 792 0
DWIDTH 14 0
BBX 13 16 1 0
BITMAP
00039DEEC71000
009FFFFFFFD200
06FE83128FFC00
07C2000007FF50
0000000000EFA0
0000000000CFC0
0000000000BFD0
6EFFFFFFFFFFC0
DFFFFFFFFFFFB0
EFB1111114FF90
CFC0000008FF40
AFE100001DFE00
5FF600008FF600
0CFF7229FFA000
02DFFFFFFA0000
0018DFEB500000
ENDCHAR
STARTCHAR florin
ENCODING 402
SWIDTH 478 0
DWIDTH 9 0
BBX 12 21 -2 -6
BITMAP
00000005CEE5
0000006FFFF7
000000EFB310
000003FF3000
000005FF1000
000006FE0000
002FFFFFFFC0
003FFFFFFF80
00011CF91000
00000DF70000
00000FF50000
00002FF30000
00004FF10000
00005FF00000
00007FD00000
00009FB00000
0000BF900000
0015FF500000
1DFFFD100000
1DFEA2000000
001000000000
ENDCHAR
STARTCHAR Ohorn
ENCODING 416
SWIDTH 816 0
DWIDTH 15 0
BBX 15 20 1 0
BITMAP
0000000000001610
0000000000008F70
000000000000CF60
000000000006FF20
000039DFFFFFFA00
0008FFFFFFFFB100
008FFB414DFF6000
04FF900002EFD000
0CFD0000009FF200
2FF70000006FF500
7FF20000004FF500
AFE00000005FF400
BFD00000006FF200
CFC00000009FE000
BFD0000000DFA000
9FF2000005FF4000
4FF800002EFA0000
0CFF8226EFD20000
02DFFFFFFD200000
0017CEEC60000000
ENDCHAR
STARTCHAR ohorn
ENCODING 417
SWIDTH 451 0
DWIDTH 8 0
BBX 11 12 0 0
BITMAP
000000035000
0000000BF000
0000003FD000
004CFFFF6000
04FFFFF80000
0DF97FF91310
3FF14FFFFF70
5FD008FFFC30
5FE007F80000
2FF63EF20000
0AFFFF800000
019EE8000000
ENDCHAR
STARTCHAR Uhorn
ENCODING 431
SWIDTH 890 0
DWIDTH 16 0
BBX 19 20 0 0
BITMAP
00000000000000006300
0000000000000002FC00
0000000000000006FB00
000000000000003DF600
005CED4000003EFFB000
09FFFFD000008FF60000
7FB39FF10000AFD00000
EB007FF10000CFB00000
71009FF00000FF900000
0000CFC00003FF700000
0000EF900006FF400000
0003FF60000AFF200000
0006FF30001EFF000000
0009FE00006FFD000000
000CFB0000DEFB000000
000EF90006ECFA000210
001FF8004E8CFB004F40
000FFE79FD1CFF89FE20
000AFFFFE308FFFFF400
0001AEEA20008DEB3000
ENDCHAR
STARTCHAR uhorn
ENCODING 432
SWIDTH 512 0
DWIDTH 9 0
BBX 12 12 0 0
BITMAP
000000002600
000000008F20
00000002DF10
02DB00CFF900
07FA04FE8000
0BF709F90000
0EF40EF60000
0FF25FF30022
1FF1CFF001D7
2FFDDFF33CF4
0EFF7DFFFF60
05EA05DEB300
ENDCHAR
STARTCHAR uni01C4
ENCODING 452
SWIDTH 1531 0
DWIDTH 28 0
BBX 29 22 1 0
BITMAP
00000000000000000008D106E30000
00000000000000000008F61EE20000
00000000000000000002FB9F600000
00000000000000000000BFFC000000
000000000000000000002EC2000000
000000000000000000000000000000
0028CEFDB610000017BEFFEDB85000
01EFFFFFFFC20004EFFFFFFFFFF700
01A842139FFD101EFB521127FFD400
0002100007FF804FE000000CFE2000
009FB00000CFD05FD000006FF70000
00EF8000008FF12FF20001EFC00000
03FF5000006FF304600009FF300000
06FF1000007FF30000004FF9000000
09FD0000008FF2000001DFE1000000
0CFA000000CFE000000AFF60000000
0FF8000002FF9000005FFB00000000
2FF600000AFF300002EFE200000040
4FF400008FF8003CFFFFA1000009D0
6FF5247DFFB001EFFFFFFEA4239F90
7FFFFFFFF70001FFFFDCFFFFFFFB00
3BEFFEB72000007EEA1027BEFD7000
ENDCHAR
STARTCHAR uni01C5
ENCODING 453
SWIDTH 1191 0
DWIDTH 21 0
BBX 22 17 1 0
BITMAP
0000000000000000620053
0028CEFDB6100005F905F9
01EFFFFFFFC20003FB0CF3
01A842139FFD1000ED4FA0
0002100007FF8000BFBF20
009FB00000CFD0008FF900
00EF8000008FF1002EC100
03FF5000006FF300000000
06FF1000007FF3EFFFFFA0
09FD0000008FF2EFFFFFB0
0CFA000000CFE0017FFB20
0FF8000002FF9007FF6000
2FF600000AFF306FF50000
4FF400008FF802EF600000
6FF5247DFFB009FC222200
7FFFFFFFF7000DFFFFFFB0
3BEFFEB720000AFFFFFFA0
ENDCHAR
STARTCHAR uni01C6
ENCODING 454
SWIDTH 895 0
DWIDTH 16 0
BBX 19 16 0 0
BITMAP
0000000CE20BC00AD000
0000004FF20DF15FB000
0000006FE00AF4DF3000
0000008FC006FBF90000
000000AF9002FFE10000
000000CF60008B300000
000000EF300000000000
0006DDFF0AFFFFFF7000
009FFFFD0BFFFFFF8000
06FF78FA0013CFE70000
0DF80AF7006FF8100000
3FF10DF504FF40000420
5FE02FF31CFB00006F60
4FF6BFF7BFFF756BFE20
1EFFFAFFFBFFFFFFE400
05DE60BE704BEED81000
ENDCHAR
STARTCHAR uni01C7
ENCODING 455
SWIDTH 1276 0
DWIDTH 23 0
BBX 25 18 -1 -2
BITMAP
00000017CEE9100028CEFDB700
000002DFFFFFC005FFFFFFFF50
00000CFE516FF52FFA315FFB10
00006FF5000EF77FB0003FF500
0000BFD0000FF69F90005FF300
0000EFA0000EE27FD0007FF100
0001FF800001101C90008FE000
0002FF60000000000000BFB000
0003FF5000000000006DFF9000
0004FF30000000003CFCFF5000
0005FF2000000006FE54FF2000
0006FF000000005FD208FD0000
08DFFE83000001EF300CF80000
8FFFFFFFD7324BFB002FF30000
AFFFFAEFFFFFFFF900AFB00000
3CFD50059DEECDFC27FF300000
00000000000005FFFFF6000000
000000000000006DEC50000000
ENDCHAR
STARTCHAR uni01C8
ENCODING 456
SWIDTH 927 0
DWIDTH 17 0
BBX 20 25 -1 -9
BITMAP
00000006BEFD70000000
000001CFFFFFF8000000
00000CFF722BFF100000
00006FF60003FF6DE400
0000BFE00004FFBFF800
0000EFA00004FD4ED300
0001FF80000041000000
0002FF600000002EB000
0003FF500000006FC000
0004FF300000008FB000
0005FF20000000AF9000
0006FF00000000BF7022
08DFFE83000000DF53D9
8FFFFFFFD7314CFF6EE4
AFFFFAEFFFFFFFFFFC20
3CFD50059DEEB8FF9000
0000000000001CFB0000
000000000002DFF80000
00000000001DDCF40000
0000000000BE2EF10000
0000000005F53FB00000
000000000BE09F600000
000000000ED3EE100000
000000000CFFF6000000
0000000004DE70000000
ENDCHAR
STARTCHAR uni01C9
ENCODING 457
SWIDTH 610 0
DWIDTH 11 0
BBX 12 27 1 -9
BITMAP
0007EC100000
005FFF700000
00DE4FA00000
05F91FA00000
0BF42F900000
1FF14F7BE800
4FC08F7FFD00
7F90CD1DE600
AF73F8000000
CF59F20CE100
EF6F902FF200
EFCF204FF000
FFF8006FD000
EFD1008FB002
DF6004FF92BD
9FB26EFFAEF8
3FFFFEEFFE60
06EEA3EFD300
00001AFF1000
0001BFFC0000
000BFBF90000
008F5AF50000
01EA0EF10000
07F34FB00000
09F4CF400000
08FFFB000000
01BEA1000000
ENDCHAR
STARTCHAR uni01CA
ENCODING 458
SWIDTH 1497 0
DWIDTH 27 0
BBX 28 18 0 -2
BITMAP
005CEC2004BEE9000039CEFEDB81
09FFFF806FFFFF8009FFFFFFFFF5
7FA2CFA3FB33EFC06FF83113FF90
EB00AFABB000BFD0CF700004FF40
6100CFBF2000CFC0DF500006FF20
0000DFF90000EFA0BF900007FF00
0000FFF30003FF704D600009FD00
0002FFD00006FF400000003DFB00
0004FF800009FF1000002AFFF800
0006FF50000CFD000007FFEFF500
0009FF10000EFA00009FE74FF100
000BFE00001FF70008FD307FC000
000DFB00002FF7003FF300CF8000
000FF900000FFB24EFB002FF2000
001FF7000009FFFFFF8009FB0000
000CE20000019DEBCFC27FF20000
00000000000000005FFFFF600000
000000000000000007DEC4000000
ENDCHAR
STARTCHAR uni01CB
ENCODING 459
SWIDTH 1138 0
DWIDTH 20 0
BBX 23 25 0 -9
BITMAP
004BEC2003BEE90000000000
07FFFF805FFFFF8000000000
6FB2CFA2EB33EFC000000000
EC00AFAAB000BFD005ED2000
A200CFBF2000CFC00CFF5000
0000DFE90000EFA007EC1000
0000FFF30003FF7000000000
0002FFD00006FF4005E80000
0004FF800009FF100AF90000
0006FF50000CFD000BF80000
0009FF10000EFA000DF60000
000BFE00001FF7000EF40100
000DFB00002FF7003FF24E60
000FF900000FFB24EFF7FE30
001FF7000009FFFFFFFFC300
000CE20000019DEB9FF90000
0000000000000003EF900000
000000000000004EFF500000
00000000000003EBEF200000
0000000000001EC3FD000000
0000000000008F26F8000000
000000000000EB0CF3000000
000000000002FB5FC0000000
000000000001FFFF40000000
0000000000006ED500000000
ENDCHAR
STARTCHAR uni01CC
ENCODING 460
SWIDTH 750 0
DWIDTH 14 0
BBX 16 22 0 -9
BITMAP
00000000004ED200
0000000000BFF600
00000000006EC100
0000000000000000
02DA05DE205E9000
08F94FFF409F9000
0BF6EFFF20BF8000
0EFAE5FF00DF6000
0FFE75FC00EF4021
1FFF17F904FF16F6
1FFB09FB4EFF9FE2
0EF608FFFFFFFB10
09D102CEA9FF8000
000000004EF80000
00000005FFF50000
0000004FBEF20000
000001EC2FD00000
000008F36F800000
00000EB0BF300000
00002FB5FC000000
00001FFFF4000000
000006ED50000000
ENDCHAR
STARTCHAR Gcaron
ENCODING 486
SWIDTH 811 0
DWIDTH 15 0
BBX 16 31 1 -9
BITMAP
000005E303E60000
000005F90CF40000
000000EE5FA00000
0000007FEE100000
0000001CE4000000
0000000000000000
000029DFEC500000
0007FFFFFFF60000
008FFC523CFE0000
03FFA00005FF1000
0CFD100005FF1000
3FF6000006FB0000
8FF2000000310000
AFE0000000000000
BFD0000011110000
CFC00007FFFF7000
BFE00007FFFF8000
8FF4000000CF6000
2FFC100000EF42C7
08FFD62137FF6EF5
008FFFFFFFFFFE40
00039DEECBFFB100
000000003EFA0000
00000003EFF60000
0000002ECDF30000
000001DD2FE00000
000007F44FA00000
00000DD0AF500000
00000FC4FD000000
00000EFFF5000000
000005DE60000000
ENDCHAR
STARTCHAR gcaron
ENCODING 487
SWIDTH 479 0
DWIDTH 9 0
BBX 11 26 0 -9
BITMAP
000260016100
000AF40AF400
0008F62FD000
0004F89F5000
0001FBEC0000
0000DFF40000
00006E900000
000000000000
0006DE320000
009FFFFB0000
06FF78FA0000
0DF80AF80000
3FF20DF50110
5FE01FF35E80
4FE29FFAFF40
1EFFFFFFD300
05DE9FFA1000
0004EFA00000
004EFF600000
03ECDF300000
1DD2FE000000
6F44FA000000
CD0AF5000000
FD4FD0000000
DFFF50000000
4DE600000000
ENDCHAR
STARTCHAR uni01EA
ENCODING 490
SWIDTH 816 0
DWIDTH 15 0
BBX 14 21 1 -5
BITMAP
000039DFDA3000
0007FFFFFFF700
008FFB414DFF40
04FF900002EFC0
0CFD0000009FF2
2FF70000006FF4
7FF20000004FF5
AFE00000005FF4
BFD00000006FF3
CFC00000009FF1
CFD0000000DFB0
AFF1000005FF50
5FF800002EFD00
1DFF8226EFF300
03EFFFFFFE4000
003BFFFF920000
00001DF3000000
00003FA0000000
00005FA0000000
00002FFDE50000
000005DFC20000
ENDCHAR
STARTCHAR uni01EB
ENCODING 491
SWIDTH 451 0
DWIDTH 8 0
BBX 11 14 0 -5
BITMAP
004CEC300000
04FFFFE10000
0DFA8FF70000
3FF16FFB2630
5FD02FFFFF70
5FD007FFEB20
3FF209F70000
0DFDBFD10000
02DFFD200000
002FC1000000
009F30000000
00BF51200000
007FFFE00000
0006AA500000
ENDCHAR
STARTCHAR Aringacute
ENCODING 506
SWIDTH 786 0
DWIDTH 14 0
BBX 17 25 1 0
BITMAP
000000000000005E40
00000000000005FF60
000000004EF82FE600
00000001EFFF561000
00000004F84F700000
00000004F74F700000
00000001FFFF200000
000000006EE6000000
000000000000000000
0000016ADEFDB70000
00006EFFFFFFFF1000
000AFFE95446960000
009FFA1002A9000000
05FFA00007FF200000
0DFE10000AFE000000
4FF600000DFA000000
9FF200001FF7000000
CFD000005FF4000000
EFB00000AFF2000000
FFA00001EFF0000000
EFC00006FFE0002100
BFF1001EFFE002D600
6FFC56DEAFF75DF300
0BFFFFF63FFFFF6000
008DEC5005DEC50000
ENDCHAR
STARTCHAR aringacute
ENCODING 507
SWIDTH 470 0
DWIDTH 8 0
BBX 12 18 0 0
BITMAP
000000000053
0000000007FC
00006ED55FE5
0003FFFE4600
0007F58F4000
0008F58F3000
0004FFFD0000
00008ED30000
000000000000
0006DE310000
009FFFFC0000
06FF78FB0000
0DF80AF80000
3FF10DF50010
5FE01FF309B0
4FF39FF59F80
1EFFFCFFFB00
05DE71BE9000
ENDCHAR
STARTCHAR AEacute
ENCODING 508
SWIDTH 1015 0
DWIDTH 18 0
BBX 20 22 1 0
BITMAP
00000000000000260000
00000000000004EF6000
0000000000005FFE3000
000000000006FF920000
00000000000BB3000000
00000000000000000000
0000028DF709EFFFFF40
00008FFFFA6FFFFFFF30
000AFFE850BFB1111000
00AFFA1000FF70000000
05FFA00004FF40000000
0DFE100008FF10000000
4FF700000BFD00000000
9FF200001FFFFFFFE100
CFD000004FFFFFFFD100
EFB000009FF511110000
FFA00000EFF300000000
EFB00005FFF400000000
BFE1000DFFF900000052
6FFA23BF7BFF83137DF7
0BFFFFFB02DFFFFFFFC1
007DFD810018CEFDA500
ENDCHAR
STARTCHAR aeacute
ENCODING 509
SWIDTH 653 0
DWIDTH 12 0
BBX 15 16 0 0
BITMAP
000000000BC00000
000000004FF20000
00000000AFA00000
00000002FD100000
00000008F4000000
0000000980000000
0000000000000000
0005BEA6DEA10000
00AFFFFFFFF70000
07FF75FF57F90000
0EF608FA08F60000
3FF10CFAAFC00300
5FE01FFFD7108F10
4FF38FFE524CFC00
1EFFFADFFFFFC100
04CEA119EEC60000
ENDCHAR
STARTCHAR Oslashacute
ENCODING 510
SWIDTH 816 0
DWIDTH 15 0
BBX 14 24 1 -2
BITMAP
00000000063000
00000001BFC000
0000001CFF7000
000002DFC40000
000005D6BC0000
00000001FE0000
000039DFFD3000
0007FFFFFFF700
007FFA3DFDFF50
03FF801FD2EFC0
0CFD005F909FF2
2FF6009F506FF4
7FF200CF105FF5
AFE001FC005FF4
BFD005F9006FF2
CFC009F5009FE0
BFD00CF100DFA0
9FF21FD005FF40
4FF85F902EFB00
0CFFDF75DFD200
02DFFFFFFD2000
0019FFEC600000
0006F900000000
0006E400000000
ENDCHAR
STARTCHAR oslashacute
ENCODING 511
SWIDTH 459 0
DWIDTH 8 0
BBX 11 19 0 -3
BITMAP
00007E300000
0001EF600000
0006FD100000
000DF4000000
004F96000000
005C6E000000
00008C000000
005CFE600000
05FFFFF40000
0DF8FCFB0000
3FE2F4FE9C80
5FC5E2FFFF80
5FD7C4FD6400
3FFCABF70000
0BFFFFD10000
01AFEA200000
002F20000000
005F00000000
002500000000
ENDCHAR
STARTCHAR uni0200
ENCODING 512
SWIDTH 786 0
DWIDTH 14 0
BBX 16 22 1 0
BITMAP
0000003502600000
000000DF39F60000
000000AF76FB0000
0000002FB0DE0000
00000008B04E1000
0000000000000000
0000016ADEFDB700
00006EFFFFFFFF10
000AFFE954469600
009FFA1002A90000
05FFA00007FF2000
0DFE10000AFE0000
4FF600000DFA0000
9FF200001FF70000
CFD000005FF40000
EFB00000AFF20000
FFA00001EFF00000
EFC00006FFE00021
BFF1001EFFE002D6
6FFC56DEAFF75DF3
0BFFFFF63FFFFF60
008DEC5005DEC500
ENDCHAR
STARTCHAR uni0201
ENCODING 513
SWIDTH 470 0
DWIDTH 8 0
BBX 11 16 0 0
BITMAP
07E34E600000
0BF97FD00000
05FD2FF20000
00CF28F60000
004F71EB0000
000A706B0000
000000000000
0006DE310000
009FFFFC0000
06FF78FB0000
0DF80AF80000
3FF10DF50010
5FE01FF309B0
4FF39FF59F80
1EFFFCFFFB00
05DE71BE9000
ENDCHAR
STARTCHAR uni0202
ENCODING 514
SWIDTH 786 0
DWIDTH 14 0
BBX 16 21 1 0
BITMAP
00000003BFFD7000
0000003FFFFFF600
0000009F9118FB00
0000003600006300
0000000000000000
0000016ADEFDB700
00006EFFFFFFFF10
000AFFE954469600
009FFA1002A90000
05FFA00007FF2000
0DFE10000AFE0000
4FF600000DFA0000
9FF200001FF70000
CFD000005FF40000
EFB00000AFF20000
FFA00001EFF00000
EFC00006FFE00021
BFF1001EFFE002D6
6FFC56DEAFF75DF3
0BFFFFF63FFFFF60
008DEC5005DEC500
ENDCHAR
STARTCHAR uni0203
ENCODING 515
SWIDTH 470 0
DWIDTH 8 0
BBX 11 15 0 0
BITMAP
0003BFFA2000
003EFFFFD100
00AFA13EF500
00DE1008F700
004300016100
000000000000
0006DE310000
009FFFFC0000
06FF78FB0000
0DF80AF80000
3FF10DF50010
5FE01FF309B0
4FF39FF59F80
1EFFFCFFFB00
05DE71BE9000
ENDCHAR
STARTCHAR uni0204
ENCODING 516
SWIDTH 686 0
DWIDTH 12 0
BBX 15 22 0 0
BITMAP
0000053035000000
00002FE0DF200000
00000EF3AF700000
000006F72FB00000
000000B708B00000
0000000000000000
000028CEFEA30000
0005FFFFFFFF4000
003FFD6214DFB000
009FF300009FC000
00AFF10000AF9000
005FFA3100361000
0005EFFF80000000
003BFFFF70000000
04EFD62100000000
1DFC100000000000
4FF5000000000000
6FF4000000000000
4FF9000000001740
0DFFA421247BFF80
02DFFFFFFFFFFC20
0006ADEFEDB73000
ENDCHAR
STARTCHAR uni0205
ENCODING 517
SWIDTH 393 0
DWIDTH 7 0
BBX 10 16 0 0
BITMAP
4E61DA0000
7FD3FF2000
2FF2CF6000
08F64FA000
01EA0BE000
006B03D100
0000000000
004CEC3000
04FFFFC000
0DF83FE000
3FE03FB000
5FD8EE3021
5FFE9204E5
2FF8239FE2
0AFFFFFE40
008DFD9200
ENDCHAR
STARTCHAR uni0206
ENCODING 518
SWIDTH 686 0
DWIDTH 12 0
BBX 15 21 0 0
BITMAP
0000006DFFC40000
000006FFFFFF3000
00000DF611BF7000
0000054000161000
0000000000000000
000028CEFEA30000
0005FFFFFFFF4000
003FFD6214DFB000
009FF300009FC000
00AFF10000AF9000
005FFA3100361000
0005EFFF80000000
003BFFFF70000000
04EFD62100000000
1DFC100000000000
4FF5000000000000
6FF4000000000000
4FF9000000001740
0DFFA421247BFF80
02DFFFFFFFFFFC20
0006ADEFEDB73000
ENDCHAR
STARTCHAR uni0207
ENCODING 519
SWIDTH 393 0
DWIDTH 7 0
BBX 10 15 0 0
BITMAP
001AFFC400
01DFFFFF30
06FD22CF90
09F4004FB0
0250000620
0000000000
004CEC3000
04FFFFC000
0DF83FE000
3FE03FB000
5FD8EE3021
5FFE9204E5
2FF8239FE2
0AFFFFFE40
008DFD9200
ENDCHAR
STARTCHAR uni0208
ENCODING 520
SWIDTH 495 0
DWIDTH 9 0
BBX 11 22 -1 0
BITMAP
000161053000
0007F93FD000
0004FD1EF200
0000AF36F600
00002D30C700
000000000000
001BFFFFFFC0
001FFFFFFFB0
000019FE1100
00000BFC0000
00000DFA0000
00000FF80000
00002FF50000
00005FF30000
00007FF10000
00009FD00000
0000CFB00000
0000EF900000
0001FF700000
0004FF610000
1CFFFFFFC000
3EFFFFFFA000
ENDCHAR
STARTCHAR uni0209
ENCODING 521
SWIDTH 246 0
DWIDTH 4 0
BBX 9 16 -2 0
BITMAP
1D90BC1000
4FF1FF5000
0DF59F9000
05F92ED000
00CE08F300
003D01D300
0000000000
0003EA0000
0008FA0000
000BF80000
000EF50000
001FF20130
002FF10BB0
001FF4AF70
000DFFFA00
0004DE8000
ENDCHAR
STARTCHAR uni020A
ENCODING 522
SWIDTH 495 0
DWIDTH 9 0
BBX 12 22 -1 0
BITMAP
000000010000
000018EFFA20
0000BFFFFFD0
0002FD303EF3
000062000360
000000000000
001BFFFFFFC0
001FFFFFFFB0
000019FE1100
00000BFC0000
00000DFA0000
00000FF80000
00002FF50000
00005FF30000
00007FF10000
00009FD00000
0000CFB00000
0000EF900000
0001FF700000
0004FF610000
1CFFFFFFC000
3EFFFFFFA000
ENDCHAR
STARTCHAR uni020B
ENCODING 523
SWIDTH 246 0
DWIDTH 4 0
BBX 8 15 -1 0
BITMAP
008EFD60
0AFFFFF5
3FE41AFC
6F7001FE
16000044
00000000
003EA000
008FA000
00BF8000
00EF5000
01FF2013
02FF10BB
01FF4AF7
00DFFFA0
004DE800
ENDCHAR
STARTCHAR uni020C
ENCODING 524
SWIDTH 816 0
DWIDTH 15 0
BBX 14 22 1 0
BITMAP
00003501610000
0000DF39F70000
0000AF76FB0000
00002FB0CF1000
000007C04E1000
00000000000000
000039DFDA4000
0008FFFFFFF700
008FFB414DFF40
04FF900002EFC0
0CFD0000009FF2
2FF70000006FF4
7FF20000004FF5
AFE00000005FF4
BFD00000006FF2
CFC00000009FE0
BFD0000000DFA0
9FF2000005FF50
4FF800002EFB00
0CFF8226EFD200
02DFFFFFFD2000
0017CEEC700000
ENDCHAR
STARTCHAR uni020D
ENCODING 525
SWIDTH 451 0
DWIDTH 8 0
BBX 11 16 0 0
BITMAP
5E52D9000000
8FC4FF100000
3FF1DF500000
09F55F900000
02E90CD00000
007A04D00000
000000000000
004CEC500000
04FFFFF30000
0DF97FFA1310
3FF14FFFFF70
5FD008FFFC30
5FE007F80000
2FF63EF20000
0AFFFF800000
019EE8000000
ENDCHAR
STARTCHAR uni020E
ENCODING 526
SWIDTH 816 0
DWIDTH 15 0
BBX 14 21 1 0
BITMAP
000003BFFD7000
00003EFFFFF700
00008FA118FC00
00003600006300
00000000000000
000039DFDA4000
0008FFFFFFF700
008FFB414DFF40
04FF900002EFC0
0CFD0000009FF2
2FF70000006FF4
7FF20000004FF5
AFE00000005FF4
BFD00000006FF2
CFC00000009FE0
BFD0000000DFA0
9FF2000005FF50
4FF800002EFB00
0CFF8226EFD200
02DFFFFFFD2000
0017CEEC700000
ENDCHAR
STARTCHAR uni020F
ENCODING 527
SWIDTH 451 0
DWIDTH 8 0
BBX 11 15 0 0
BITMAP
002AFFC30000
01DFFFFE2000
08FC22DF8000
0AF3005F9000
034000062000
000000000000
004CEC500000
04FFFFF30000
0DF97FFA1310
3FF14FFFFF70
5FD008FFFC30
5FE007F80000
2FF63EF20000
0AFFFF800000
019EE8000000
ENDCHAR
STARTCHAR uni0210
ENCODING 528
SWIDTH 880 0
DWIDTH 16 0
BBX 18 22 1 0
BITMAP
000006205400000000
00005FB1FE10000000
00002FF1DF40000000
000008F45F80000000
000001D50A90000000
000000000000000000
000018CEFEA4000000
0006EFFFFFFF800000
007FF94226EFF30000
04FE4053006FF70000
0DF607FD003FF80000
4FC00BFC004FF50000
9F700EF900BFD10000
CF302FF74BFE400000
EF16FFFFFFB2000000
FF05FFFFFD30000000
FF008FE3EFE1000000
EF10BFB05FF8000010
BF40DF900DFE1003F1
5FC4FF7005FFB25ED0
0BFFFF2000BFFFFE30
019EE7000019EEA200
ENDCHAR
STARTCHAR uni0211
ENCODING 529
SWIDTH 455 0
DWIDTH 8 0
BBX 11 16 0 0
BITMAP
0BC17E300000
0FF5BF900000
09F95FD00000
02ED0CF20000
008F24F60000
001D30A70000
000000000000
02DA05DE2000
08F95FFF4000
0BF7EEFF2000
0EFAE3FF29A0
0FFE62FFFF80
1FFF10BFF800
1FFB00021000
0EF600000000
09D100000000
ENDCHAR
STARTCHAR uni0212
ENCODING 530
SWIDTH 880 0
DWIDTH 16 0
BBX 18 21 1 0
BITMAP
0000007DFFB3000000
000009FFFFFE100000
00001FE402DF500000
000006300026100000
000000000000000000
000018CEFEA4000000
0006EFFFFFFF800000
007FF94226EFF30000
04FE4053006FF70000
0DF607FD003FF80000
4FC00BFC004FF50000
9F700EF900BFD10000
CF302FF74BFE400000
EF16FFFFFFB2000000
FF05FFFFFD30000000
FF008FE3EFE1000000
EF10BFB05FF8000010
BF40DF900DFE1003F1
5FC4FF7005FFB25ED0
0BFFFF2000BFFFFE30
019EE7000019EEA200
ENDCHAR
STARTCHAR uni0213
ENCODING 531
SWIDTH 455 0
DWIDTH 8 0
BBX 11 15 0 0
BITMAP
0006DFE80000
006FFFFF9000
00EF616FF100
02FB000CF300
006100026000
000000000000
02DA05DE2000
08F95FFF4000
0BF7EEFF2000
0EFAE3FF29A0
0FFE62FFFF80
1FFF10BFF800
1FFB00021000
0EF600000000
09D100000000
ENDCHAR
STARTCHAR uni0214
ENCODING 532
SWIDTH 890 0
DWIDTH 16 0
BBX 19 22 0 0
BITMAP
00000045026000000000
000000EF2AF600000000
000000BF67FA00000000
0000003FA1DE00000000
00000008B05D10000000
00000000000000000000
005CED4000003EA00000
09FFFFD000008FF00000
7FB39FF10000AFE00000
EB007FF10000CFC00000
71009FF00000FFA00000
0000CFC00003FF800000
0000EF900006FF500000
0003FF60000AFF300000
0006FF30001EFF100000
0009FE00006FFD000000
000CFB0000DEFB000000
000EF90006ECFA000210
001FF8004E8CFB004F40
000FFE79FD1CFF89FE20
000AFFFFE308FFFFF400
0001AEEA20008DEB3000
ENDCHAR
STARTCHAR uni0215
ENCODING 533
SWIDTH 462 0
DWIDTH 8 0
BBX 11 16 0 0
BITMAP
0BD17E300000
0FF5BF900000
09F95FD00000
01EE0CF30000
007F33F70000
001D40A70000
000000000000
02DB00CC0000
07FA04FC0000
0BF709F90000
0EF40EF60000
0FF25FF30120
1FF1CFF01C90
2FFDDFF3BF50
0EFF7EFFF800
05EA06ED6000
ENDCHAR
STARTCHAR uni0216
ENCODING 534
SWIDTH 890 0
DWIDTH 16 0
BBX 19 21 0 0
BITMAP
00000004BFFD60000000
0000003FFFFFF6000000
000000AF9119FB000000
00000035000063000000
00000000000000000000
005CED4000003EA00000
09FFFFD000008FF00000
7FB39FF10000AFE00000
EB007FF10000CFC00000
71009FF00000FFA00000
0000CFC00003FF800000
0000EF900006FF500000
0003FF60000AFF300000
0006FF30001EFF100000
0009FE00006FFD000000
000CFB0000DEFB000000
000EF90006ECFA000210
001FF8004E8CFB004F40
000FFE79FD1CFF89FE20
000AFFFFE308FFFFF400
0001AEEA20008DEB3000
ENDCHAR
STARTCHAR uni0217
ENCODING 535
SWIDTH 462 0
DWIDTH 8 0
BBX 11 15 0 0
BITMAP
0005DFE80000
006FFFFFA000
00EF716FF200
01FB000BF300
006200026000
000000000000
02DB00CC0000
07FA04FC0000
0BF709F90000
0EF40EF60000
0FF25FF30120
1FF1CFF01C90
2FFDDFF3BF50
0EFF7EFFF800
05EA06ED6000
ENDCHAR
STARTCHAR uni0218
ENCODING 536
SWIDTH 693 0
DWIDTH 12 0
BBX 13 21 0 -5
BITMAP
00005BDFEB6000
000BFFFFFFFA00
008FF83139FF40
00EF900000EF60
01FF600000EF60
00FFC10000BD10
009FFD50000000
001BFFFD710000
00006DFFFE4000
0000004BFFF300
1CC000005FFA00
5FF000000BFC00
5FF100000DFA00
2FFB4224BFF500
08FFFFFFFF8000
004ADEFDA30000
00000000000000
00003E80000000
00006FA0000000
00007F60000000
00005D10000000
ENDCHAR
STARTCHAR uni0219
ENCODING 537
SWIDTH 427 0
DWIDTH 8 0
BBX 11 15 -1 -6
BITMAP
00006E800000
0001EF400000
0006FF200000
000DFFB00000
007F8FF70160
03FA09FD0BF0
0DD5ACFFCFB0
1C3AFFFFFE20
0004DFFEA200
000000000000
0000BD000000
0001FF100000
0002FC000000
0002F8000000
0001E3000000
ENDCHAR
STARTCHAR uni021A
ENCODING 538
SWIDTH 697 0
DWIDTH 13 0
BBX 17 21 0 -5
BITMAP
00038BDEFFFFFFEB10
02CFFFFFFFFFFFFF20
0CFC631BFD11122200
3FE0000DFB00000000
5FC0001FF800000000
2FF2004FF500000000
0680006FF300000000
0000009FF000000000
000000BFD000000000
000000DFA000000000
000001FF8000000000
000003FF6000000000
000005FF4000000000
000007FF2000000000
000009FF1000000000
000005EA0000000000
000000000000000000
000006E40000000000
00000AF60000000000
00000BF20000000000
000008B00000000000
ENDCHAR
STARTCHAR uni021B
ENCODING 539
SWIDTH 393 0
DWIDTH 7 0
BBX 10 23 0 -6
BITMAP
00003CE300
0001DFFA00
0009F6EC00
001ED0EB00
006F91F900
00AF66F300
00DF4EA000
01FFCD1000
CFFFFFFE00
DFFFFFFA00
06FC110000
06FC000000
06FD000010
04FF0002E5
01FF924DF3
009FFFFF60
0008EEB400
0000000000
0009E20000
000EF30000
000EE00000
000FA00000
000D500000
ENDCHAR
STARTCHAR uni022A
ENCODING 554
SWIDTH 816 0
DWIDTH 15 0
BBX 14 24 1 0
BITMAP
00000011110000
000005FFFFF200
000005FFFFE100
00000000000000
00000BE32DD100
00003FF76FF300
00001DD23EB000
00000000000000
000039DFDA4000
0008FFFFFFF700
008FFB414DFF40
04FF900002EFC0
0CFD0000009FF2
2FF70000006FF4
7FF20000004FF5
AFE00000005FF4
BFD00000006FF2
CFC00000009FE0
BFD0000000DFA0
9FF2000005FF50
4FF800002EFB00
0CFF8226EFD200
02DFFFFFFD2000
0017CEEC700000
ENDCHAR
STARTCHAR uni022B
ENCODING 555
SWIDTH 451 0
DWIDTH 8 0
BBX 11 17 0 0
BITMAP
000111100000
006FFFFE1000
007FFFFD0000
000000000000
01CE23EC0000
04FF57FF1000
01DD14EA0000
000000000000
004CEC500000
04FFFFF30000
0DF97FFA1310
3FF14FFFFF70
5FD008FFFC30
5FE007F80000
2FF63EF20000
0AFFFF800000
019EE8000000
ENDCHAR
STARTCHAR uni022C
ENCODING 556
SWIDTH 816 0
DWIDTH 15 0
BBX 14 25 1 0
BITMAP
00000011111000
000003FFFFF300
000004FFFFE200
00000000000000
000009E9003500
00006FFFC3EE00
0000CF4BFFF800
000054008EB100
00000000000000
000039DFDA4000
0008FFFFFFF700
008FFB414DFF40
04FF900002EFC0
0CFD0000009FF2
2FF70000006FF4
7FF20000004FF5
AFE00000005FF4
BFD00000006FF2
CFC00000009FE0
BFD0000000DFA0
9FF2000005FF50
4FF800002EFB00
0CFF8226EFD200
02DFFFFFFD2000
0017CEEC700000
ENDCHAR
STARTCHAR uni022D
ENCODING 557
SWIDTH 451 0
DWIDTH 8 0
BBX 11 18 0 0
BITMAP
000111100000
005FFFFF2000
005FFFFE1000
000000000000
009E80044000
06FFFB3EC000
0DE3CFFF5000
053008E90000
000000000000
004CEC500000
04FFFFF30000
0DF97FFA1310
3FF14FFFFF70
5FD008FFFC30
5FE007F80000
2FF63EF20000
0AFFFF800000
019EE8000000
ENDCHAR
STARTCHAR uni0230
ENCODING 560
SWIDTH 816 0
DWIDTH 15 0
BBX 14 24 1 0
BITMAP
00000011110000
000005FFFFF200
000005FFFFE100
00000000000000
0000003DE40000
0000009FF90000
0000005ED30000
00000000000000
000039DFDA4000
0008FFFFFFF700
008FFB414DFF40
04FF900002EFC0
0CFD0000009FF2
2FF70000006FF4
7FF20000004FF5
AFE00000005FF4
BFD00000006FF2
CFC00000009FE0
BFD0000000DFA0
9FF2000005FF50
4FF800002EFB00
0CFF8226EFD200
02DFFFFFFD2000
0017CEEC700000
ENDCHAR
STARTCHAR uni0231
ENCODING 561
SWIDTH 451 0
DWIDTH 8 0
BBX 11 17 0 0
BITMAP
000111100000
006FFFFE1000
007FFFFD0000
000000000000
0004DD300000
000AFF700000
0006EC200000
000000000000
004CEC500000
04FFFFF30000
0DF97FFA1310
3FF14FFFFF70
5FD008FFFC30
5FE007F80000
2FF63EF20000
0AFFFF800000
019EE8000000
ENDCHAR
STARTCHAR uni0232
ENCODING 562
SWIDTH 851 0
DWIDTH 15 0
BBX 18 26 0 -6
BITMAP
000000001111000000
0000000AFFFFB00000
0000000BFFFFA00000
000000000000000000
005CED4000003EC000
08FFFFD000008FF100
6FC39FF10000AFE000
EC107FF10000CFC000
82009FF00000EFA000
0000CFD00003FF8000
0000EFA00007FF6000
0003FF70000CFF4000
0005FF40003FFF2000
0007FF1000AEFF0000
0008FF1005FBFD0000
0006FF716FA9FB0000
0001EFFFFC1BFC9DF3
00003CED838EFFFFC1
00000002AFFFF94100
0000006FFB7FF20000
000007FD405FE00000
00003FE2009FA00000
00008F9002EF500000
00009FC12CFC000000
00006FFFFFD2000000
000007EFE910000000
ENDCHAR
STARTCHAR uni0233
ENCODING 563
SWIDTH 479 0
DWIDTH 9 0
BBX 12 22 -1 -9
BITMAP
000011110000
0005FFFFE200
0006FFFFE100
000000000000
002DB00CC000
007FA04FC000
00BF709FA000
00EF40EF7000
00FF25FF5022
01FF1CFF34E8
02FFDEFF8FE3
00EFFAFFFC20
005EA5FF9000
00003EF90000
0003EFF50000
003ECDF20000
01DD2FE00000
08F45F900000
0DC0AF400000
1FC4FD000000
0EFFF5000000
05EE60000000
ENDCHAR
STARTCHAR uni0237
ENCODING 567
SWIDTH 254 0
DWIDTH 5 0
BBX 12 18 -5 -9
BITMAP
0000004EA000
0000008FB000
000000AF9000
000000CF7000
000000DF5011
000000FF34E7
000001FF8FE3
000003FFFC20
000005FF9100
00002DF90000
0003EFF60000
002ECDF30000
01DD2FE00000
07F45FA00000
0DC0AF500000
1FC4FD000000
0EFFF5000000
05EE60000000
ENDCHAR
STARTCHAR uni0259
ENCODING 601
SWIDTH 458 0
DWIDTH 8 0
BBX 8 9 0 0
BITMAP
04CEFC40
0DFFFFF2
04413DF9
001117FB
1DFFFFFC
4FFFFFFB
2FE33CF7
0CFFFFD1
01AEEA20
ENDCHAR
STARTCHAR uni02BC
ENCODING 700
SWIDTH 600 0
DWIDTH 11 0
BBX 3 5 4 10
BITMAP
0CC0
2FF0
2FC0
3F80
2E20
ENDCHAR
STARTCHAR circumflex
ENCODING 710
SWIDTH 600 0
DWIDTH 11 0
BBX 7 7 2 10
BITMAP
00047000
004FF700
00CEEB00
05F9DE00
0DF2BF30
5FA09F60
7D305E40
ENDCHAR
STARTCHAR caron
ENCODING 711
SWIDTH 600 0
DWIDTH 11 0
BBX 7 7 3 10
BITMAP
36002600
CF20CF20
AF44FB00
6F6BF300
3FAFA000
0EFF3000
08E70000
ENDCHAR
STARTCHAR uni02C9
ENCODING 713
SWIDTH 600 0
DWIDTH 11 0
BBX 7 3 2 10
BITMAP
01111100
3FFFFF30
4FFFFE20
ENDCHAR
STARTCHAR breve
ENCODING 728
SWIDTH 600 0
DWIDTH 11 0
BBX 8 5 2 10
BITMAP
44000161
FE1008F5
DFA25FF2
6FFFFF90
06DFD700
ENDCHAR
STARTCHAR dotaccent
ENCODING 729
SWIDTH 600 0
DWIDTH 11 0
BBX 4 3 4 10
BITMAP
7EC0
FFF2
AEA0
ENDCHAR
STARTCHAR ring
ENCODING 730
SWIDTH 600 0
DWIDTH 11 0
BBX 6 6 3 10
BITMAP
08FE40
5FFFD0
9F29F2
AF3AF1
6FFFC0
09EC20
ENDCHAR
STARTCHAR ogonek
ENCODING 731
SWIDTH 600 0
DWIDTH 11 0
BBX 6 6 2 -5
BITMAP
03D300
1EC100
6F5000
8F8110
5FFFF2
08EEA0
ENDCHAR
STARTCHAR tilde
ENCODING 732
SWIDTH 600 0
DWIDTH 11 0
BBX 9 4 1 10
BITMAP
01CD400620
0BFFF86F80
2FB4EFFE20
06102BE500
ENDCHAR
STARTCHAR hungarumlaut
ENCODING 733
SWIDTH 600 0
DWIDTH 11 0
BBX 7 6 3 10
BITMAP
05E42E80
0CF88FC0
1FF2CF60
5F91FD00
AE16F500
A706B000
ENDCHAR
STARTCHAR gravecomb
ENCODING 768
SWIDTH 0 0
DWIDTH 0 0
BBX 5 6 -9 10
BITMAP
5E5000
8FC000
2FF300
06FA00
00BF10
001D30
ENDCHAR
STARTCHAR acutecomb
ENCODING 769
SWIDTH 0 0
DWIDTH 0 0
BBX 4 6 -6 10
BITMAP
01D9
08FD
0DF7
5FB0
BE20
C500
ENDCHAR
STARTCHAR uni0302
ENCODING 770
SWIDTH 0 0
DWIDTH 0 0
BBX 7 7 -9 10
BITMAP
00027100
001EFA00
009FEE00
02FCAF20
0AF58F60
2FD06F90
4E502E70
ENDCHAR
STARTCHAR tildecomb
ENCODING 771
SWIDTH 0 0
DWIDTH 0 0
BBX 8 4 -9 10
BITMAP
0AE70044
8FFFA4FB
ED3CFFF4
53019E70
ENDCHAR
STARTCHAR uni0304
ENCODING 772
SWIDTH 0 0
DWIDTH 0 0
BBX 7 3 -9 10
BITMAP
00111100
1EFFFF60
1EFFFF50
ENDCHAR
STARTCHAR uni0306
ENCODING 774
SWIDTH 0 0
DWIDTH 0 0
BBX 8 5 -9 10
BITMAP
35000062
CF3005F8
AFC23EF5
3FFFFFB0
04CEE810
ENDCHAR
STARTCHAR uni0307
ENCODING 775
SWIDTH 0 0
DWIDTH 0 0
BBX 4 3 -7 10
BITMAP
5ED2
CFF5
7EC1
ENDCHAR
STARTCHAR uni0308
ENCODING 776
SWIDTH 0 0
DWIDTH 0 0
BBX 7 3 -9 10
BITMAP
1DD14EB0
5FF49FF0
2EC15E90
ENDCHAR
STARTCHAR hookabovecomb
ENCODING 777
SWIDTH 0 0
DWIDTH 0 0
BBX 5 6 -7 10
BITMAP
9FE600
DFFF20
007F50
019F40
3FFD00
3EC300
ENDCHAR
STARTCHAR uni030A
ENCODING 778
SWIDTH 0 0
DWIDTH 0 0
BBX 6 6 -8 10
BITMAP
06EE60
2FFFF2
6F57F5
6F68F4
3FFFE1
07ED40
ENDCHAR
STARTCHAR uni030B
ENCODING 779
SWIDTH 0 0
DWIDTH 0 0
BBX 7 6 -8 10
BITMAP
03E71DB0
09FB5FF0
0DF59F90
2FC0DE10
6F43F800
7A04D100
ENDCHAR
STARTCHAR uni030C
ENCODING 780
SWIDTH 0 0
DWIDTH 0 0
BBX 7 7 -8 10
BITMAP
26101610
9F509F50
7F71FE10
3F98F600
0FBED000
0BFF6000
05EA0000
ENDCHAR
STARTCHAR uni030F
ENCODING 783
SWIDTH 0 0
DWIDTH 0 0
BBX 7 6 -10 10
BITMAP
6E43E700
AFA6FE00
4FE1EF30
0BF47F70
03F80DC0
009805C0
ENDCHAR
STARTCHAR uni0311
ENCODING 785
SWIDTH 0 0
DWIDTH 0 0
BBX 8 5 -9 10
BITMAP
02BFFB20
2EFFFFE1
9FB13EF6
BE2006F8
34000061
ENDCHAR
STARTCHAR uni0312
ENCODING 786
SWIDTH 0 0
DWIDTH 0 0
BBX 3 5 -6 10
BITMAP
9E20
EF30
EE10
FB00
D500
ENDCHAR
STARTCHAR uni031B
ENCODING 795
SWIDTH 0 0
DWIDTH 0 0
BBX 4 5 -6 7
BITMAP
0062
03F8
1AF5
9FD1
AB20
ENDCHAR
STARTCHAR dotbelowcomb
ENCODING 803
SWIDTH 0 0
DWIDTH 0 0
BBX 4 3 -9 -4
BITMAP
1CE6
6FFB
2DE4
ENDCHAR
STARTCHAR uni0324
ENCODING 804
SWIDTH 0 0
DWIDTH 0 0
BBX 7 3 -10 -4
BITMAP
9E51CE20
FF94FF50
BE41DC10
ENDCHAR
STARTCHAR uni0326
ENCODING 806
SWIDTH 0 0
DWIDTH 0 0
BBX 3 5 -8 -6
BITMAP
8E20
DF40
DF10
EB00
C600
ENDCHAR
STARTCHAR uni0327
ENCODING 807
SWIDTH 0 0
DWIDTH 0 0
BBX 6 6 -10 -5
BITMAP
07FD60
09FFF3
0019F6
0129F4
9FFFD0
7EEB20
ENDCHAR
STARTCHAR uni0328
ENCODING 808
SWIDTH 0 0
DWIDTH 0 0
BBX 6 6 -9 -5
BITMAP
02C600
0CE200
3F8000
5FB110
2FFFF4
05DFB1
ENDCHAR
STARTCHAR uni032E
ENCODING 814
SWIDTH 0 0
DWIDTH 0 0
BBX 8 5 -11 -6
BITMAP
26000053
9F5003FA
8FD33CF7
2EFFFFD1
03BEE910
ENDCHAR
STARTCHAR uni0331
ENCODING 817
SWIDTH 0 0
DWIDTH 0 0
BBX 6 3 -10 -3
BITMAP
011110
7FFFFE
7FFFFD
ENDCHAR
STARTCHAR uni0394
ENCODING 916
SWIDTH 700 0
DWIDTH 13 0
BBX 12 15 0 0
BITMAP
0000004E6000
000000DFC000
000004FFE000
00000BFEF300
00003FE8F600
0000AF75F900
0002FF13FC00
0008F901FE00
001EF300DF30
007FB000AF60
00DF40008F90
05FD00005FC0
0CF711114FF0
3FFFFFFFFFF3
4EFFFFFFFFE2
ENDCHAR
STARTCHAR uni03A9
ENCODING 937
SWIDTH 816 0
DWIDTH 15 0
BBX 16 15 -1 0
BITMAP
0000003ADFEB4000
000008FFFFFFF900
0000AFFB535DFF60
0006FF900002EFD0
000EFC0000008FF3
004FF50000005FF5
009FF10000005FF5
00BFD00000006FF4
00CFC00000008FF1
00CFD0000000DFC0
00AFF1000004FF50
005FF600001DFC00
013DFE2001CFE520
3EFFFFD00CFFFFF3
3EFFFFB00DFFFFE2
ENDCHAR
STARTCHAR uni03BC
ENCODING 956
SWIDTH 462 0
DWIDTH 8 0
BBX 11 14 0 -5
BITMAP
006500560000
05FC02FD0000
09F807FA0000
0DF50CF70000
0FF23FF30000
2FF1BFF10980
3FFCEFF19F70
5FFF8EFFFA00
6FFB17ED7000
6FB000000000
7FA000000000
7FA000000000
7FA000000000
5E7000000000
ENDCHAR
STARTCHAR pi
ENCODING 960
SWIDTH 496 0
DWIDTH 9 0
BBX 12 9 0 0
BITMAP
7FFFFFFFFC00
6EFFDDFFD600
09FA02FF1000
0CF805FD0000
0FF508FB0000
2FF309F802E3
4FF109FA2DE1
5FF006FFFF40
4FA000AEC300
ENDCHAR
STARTCHAR uni0400
ENCODING 1024
SWIDTH 686 0
DWIDTH 12 0
BBX 15 22 0 0
BITMAP
0000630000000000
0005FE5000000000
0002EFF600000000
000019FF70000000
0000002AC0000000
0000000000000000
000028CEFEA30000
0005FFFFFFFF4000
003FFD6214DFB000
009FF300009FC000
00AFF10000AF9000
005FFA3100361000
0005EFFF80000000
003BFFFF70000000
04EFD62100000000
1DFC100000000000
4FF5000000000000
6FF4000000000000
4FF9000000001740
0DFFA421247BFF80
02DFFFFFFFFFFC20
0006ADEFEDB73000
ENDCHAR
STARTCHAR uni0401
ENCODING 1025
SWIDTH 686 0
DWIDTH 12 0
BBX 15 20 0 0
BITMAP
000002DC15E90000
000007FF2BFE0000
000004EB07E80000
0000000000000000
000028CEFEA30000
0005FFFFFFFF4000
003FFD6214DFB000
009FF300009FC000
00AFF10000AF9000
005FFA3100361000
0005EFFF80000000
003BFFFF70000000
04EFD62100000000
1DFC100000000000
4FF5000000000000
6FF4000000000000
4FF9000000001740
0DFFA421247BFF80
02DFFFFFFFFFFC20
0006ADEFEDB73000
ENDCHAR
STARTCHAR uni0402
ENCODING 1026
SWIDTH 974 0
DWIDTH 18 0
BBX 20 25 0 -9
BITMAP
00037ACEFFFFFFEB1000
02BFFFFFFFFFFFFF2000
0CFC521BFD0001210000
3FE0000DFA0000000000
5FC0001FF80000000000
3FF1004FF50000000000
09B0006FF30000000000
0000009FF04BEEB30000
000000BFD7FFFFFE1000
000000EFEF9318FF4000
000001FFF60002FF6000
000003FFA00003FF5194
000005FF500005FF6DF7
000007FF200007FFFFD2
000009FF100009FFFA10
000005EA00001CFF7000
000000000002CFF90000
00000000002DFFF50000
0000000001DFDFF20000
000000000AFB7FD00000
000000003FE1BF800000
000000008F81FF200000
00000000AF79FA000000
000000008FFFE2000000
000000001BEC30000000
ENDCHAR
STARTCHAR uni0403
ENCODING 1027
SWIDTH 635 0
DWIDTH 11 0
BBX 16 22 0 0
BITMAP
0000000000450000
0000000006FF3000
000000008FFD1000
00000009FE810000
0000001E91000000
0000000000000110
00059CEEFFFFFFF5
03DFFFFFFFFFFEC3
0DFD77FF40000000
4FE107FF10000000
5FC00AFD00000000
3FF20DFB00000000
07701FF800000000
00003FF500000000
00006FF300000000
00008FF100000000
0000AFE000000000
0000CFC000000000
0000EFA000000000
0002FF8000000000
0003FF7000000000
0001DD2000000000
ENDCHAR
STARTCHAR uni0404
ENCODING 1028
SWIDTH 687 0
DWIDTH 12 0
BBX 14 16 1 0
BITMAP
000039DFDA2000
0007FFFFFFE200
008FFB314EF800
03FF90000CF900
0CFD00000DF700
2FF7000007A100
7FF20000000000
AFFFFFFF900000
BFFFFFFFA00000
CFD00000000000
BFE00000000000
8FF40000000000
2FFC1000000043
08FFD520148DF9
008FFFFFFFFFD3
00038CEFDC9400
ENDCHAR
STARTCHAR uni0405
ENCODING 1029
SWIDTH 693 0
DWIDTH 12 0
BBX 13 16 0 0
BITMAP
00005BDFEB6000
000BFFFFFFFA00
008FF83139FF40
00EF900000EF60
01FF600000EF60
00FFC10000BD10
009FFD50000000
001BFFFD710000
00006DFFFE4000
0000004BFFF300
1CC000005FFA00
5FF000000BFC00
5FF100000DFA00
2FFB4224BFF500
08FFFFFFFF8000
004ADEFDA30000
ENDCHAR
STARTCHAR uni0406
ENCODING 1030
SWIDTH 495 0
DWIDTH 9 0
BBX 11 16 -1 0
BITMAP
001BFFFFFFC0
001FFFFFFFB0
000019FE1100
00000BFC0000
00000DFA0000
00000FF80000
00002FF50000
00005FF30000
00007FF10000
00009FD00000
0000CFB00000
0000EF900000
0001FF700000
0004FF610000
1CFFFFFFC000
3EFFFFFFA000
ENDCHAR
STARTCHAR uni0407
ENCODING 1031
SWIDTH 495 0
DWIDTH 9 0
BBX 11 20 -1 0
BITMAP
00006E909E50
0000CFD0FF90
00007E70BE40
000000000000
001BFFFFFFC0
001FFFFFFFB0
000019FE1100
00000BFC0000
00000DFA0000
00000FF80000
00002FF50000
00005FF30000
00007FF10000
00009FD00000
0000CFB00000
0000EF900000
0001FF700000
0004FF610000
1CFFFFFFC000
3EFFFFFFA000
ENDCHAR
STARTCHAR uni0408
ENCODING 1032
SWIDTH 743 0
DWIDTH 13 0
BBX 13 18 1 -2
BITMAP
0017ADEFEEC930
05EFFFFFFFFFB0
3FFA52112CFD30
9F9000000DFB00
AF7000000EF900
8FB000001FF700
2D8000003FF400
000000018FF200
0000007EFFE000
00003DFFEFB000
0005FFB2DF8000
003FF801FF4000
00CFA005FE0000
03FF200AF90000
05FF003FF30000
04FF32DF900000
01EFFFFC100000
003CFE91000000
ENDCHAR
STARTCHAR uni0409
ENCODING 1033
SWIDTH 1158 0
DWIDTH 21 0
BBX 21 16 0 0
BITMAP
0000000000AF9000000000
0000000004FFD000000000
0000000009FFC000000000
000000000EFFB000000000
000000003FFFA000000000
000000008FFFA000000000
00000000DFCFA6BEFD9100
00000003FDBFFFFFFFFD10
00000009F8CFD7212BFF60
0000001EF3CF900003FF90
0000007FD0CFA00001FF80
240001EF70BFC00003FF60
BF3009FE108FF20009FF20
BFA17FF5003FFB227FF900
4FFFFF900008FFFFFFB100
04CFD70000005CEEB60000
ENDCHAR
STARTCHAR uni040A
ENCODING 1034
SWIDTH 1182 0
DWIDTH 21 0
BBX 23 16 -1 0
BITMAP
0006CEC200001CD100000000
01BFFFFA00005FF300000000
0AF81AFE00008FF000000000
3F8006FF1000BFB000000000
290006FF0000EF8000000000
000008FE0001FF4000000000
00000AFD0004FF9CEFEB5000
00000CFB0139FFFFFFFFF600
002DFFFFFFFFFD73116FFD00
003EFFFFFDBDFA00000AFF10
00006FF3000CFA000009FF00
00009FE0000CFA00000CFD00
0000DFB0000AFD00004FF800
0001FF700006FF7227EFD100
0004FF300000CFFFFFFD2000
0003EA00000019DFEB610000
ENDCHAR
STARTCHAR uni040B
ENCODING 1035
SWIDTH 979 0
DWIDTH 18 0
BBX 20 16 0 0
BITMAP
00037ACEFFFFFFEB1000
02BFFFFFFFFFFFFF2000
0CFC521BFD0001210000
3FE0000DFA0000000000
5FC0001FF80000000000
3FF1004FF50000000000
09B0006FF30000000000
0000009FF04BEEB30000
000000BFD7FFFFFE1000
000000EFEF9318FF5000
000001FFF70002FF6000
000003FFB00004FF5002
000005FF500006FF306D
000007FF200008FF26FA
000009FF100007FFFFC1
000005EB000001CFD800
ENDCHAR
STARTCHAR uni040C
ENCODING 1036
SWIDTH 937 0
DWIDTH 17 0
BBX 20 22 0 0
BITMAP
00000000000000360000
00000000000004EF5000
0000000000006FFE2000
000000000007FF910000
00000000000CA2000000
00000000000000000000
0005ADFED920001CE300
00AFFFFFFF90007FF300
07FE621CFD2000DFD000
0BF7000DFA0005FF6000
0BF6001FF7001DFC0000
07FA003FF501BFE20000
0052005FF46DFD300000
000009FFFFFF91000000
00000AFFFFF910000000
000000BFB6FFB0000000
000000DF909FF4000000
170001FF702FFB000060
7F5005FF300AFF4006F2
6FE43DFD0003FFD58FD0
1DFFFFF400009FFFFE20
019EFC40000008EEA200
ENDCHAR
STARTCHAR uni040D
ENCODING 1037
SWIDTH 890 0
DWIDTH 16 0
BBX 19 22 0 0
BITMAP
00000640000000000000
00003FF6000000000000
00001DFF800000000000
0000018EF90000000000
000000029E1000000000
00000000000000000000
005CED4000003EA00000
09FFFFD000008FF00000
7FB39FF10000AFE00000
EB007FF10000CFC00000
71009FF00000FFA00000
0000CFC00003FF800000
0000EF900006FF500000
0003FF60000AFF300000
0006FF30001EFF100000
0009FE00006FFD000000
000CFB0000DEFB000000
000EF90006ECFA000210
001FF8004E8CFB004F40
000FFE79FD1CFF89FE20
000AFFFFE308FFFFF400
0001AEEA20008DEB3000
ENDCHAR
STARTCHAR uni040E
ENCODING 1038
SWIDTH 824 0
DWIDTH 15 0
BBX 18 26 0 -5
BITMAP
000000171003E40000
0000007FA01CF30000
0000004FFEEFA00000
00000006DFD7000000
000000000000000000
006CEC3000004EB000
0AFFFFC000009FF000
4FA2AFF00000CFD000
26009FE00001FFA000
0000BFC00006FF8000
0001FF80000CFF5000
0004FF50005FFF3000
0005FF3002EEFF1000
0004FF714DE8FD0000
0000DFFFFE49FB0000
00003CFEA20BFB79A1
00000000001DFFFFF1
0000000039EFFFC840
0000001AFFFFF20000
000002DFFC9FE00000
00001DFD406FB00000
00007FD100AF700000
0000BF7002FF200000
0000AFB13DF8000000
00005FFFFFB0000000
000007DFD700000000
ENDCHAR
STARTCHAR uni040F
ENCODING 1039
SWIDTH 890 0
DWIDTH 16 0
BBX 19 20 0 -4
BITMAP
005CED4000003EA00000
09FFFFD000008FF00000
7FB29FF10000AFE00000
EB007FF10000CFC00000
61009FF00000FFA00000
0000CFC00003FF800000
0000FF900006FF500000
0003FF60000AFF300000
0006FF30001FFF100000
0009FE00006FFD000000
000CFB0000DEFB000000
000EF90006EBFA000210
001FF8004F7CFB004F40
000FFE79FD0CFF89FE20
000AFFFFE207FFFFF400
0001BFFA10008DEB3000
00003FF3000000000000
00005FF1000000000000
00007FD0000000000000
00002720000000000000
ENDCHAR
STARTCHAR uni0410
ENCODING 1040
SWIDTH 786 0
DWIDTH 14 0
BBX 16 16 1 0
BITMAP
0000016ADEFDB700
00006EFFFFFFFF10
000AFFE954469600
009FFA1002A90000
05FFA00007FF2000
0DFE10000AFE0000
4FF600000DFA0000
9FF200001FF70000
CFD000005FF40000
EFB00000AFF20000
FFA00001EFF00000
EFC00006FFE00021
BFF1001EFFE002D6
6FFC56DEAFF75DF3
0BFFFFF63FFFFF60
008DEC5005DEC500
ENDCHAR
STARTCHAR uni0411
ENCODING 1041
SWIDTH 917 0
DWIDTH 17 0
BBX 17 18 0 -1
BITMAP
000000000000011000
00049CEEFFFFFFF500
02CFFFFFFFFFFEC300
0CFB31AFE000000000
4FE000DFB000000000
5FC001FF8000000000
4FF103FF6000000000
0CD106FF3000000000
000009FFCDEFDA3000
0001BFFFFFFFFFF400
0004FFFC42127FFD00
00005FF900000AFF20
00002FF7000008FF20
00003FF500000AFF10
00005FF400003FFB00
00007FF20017EFE300
00008FF13CFFFD3000
00005EB06FDA600000
ENDCHAR
STARTCHAR uni0412
ENCODING 1042
SWIDTH 827 0
DWIDTH 15 0
BBX 16 17 0 -1
BITMAP
000159CEEFEC9300
03AFFFFFFFFFFF70
5FFFB7421137EFF4
8E81120000004FF8
0002EF5000002FF9
0005FF3000008FF4
0008FE00014AFF90
000CFA05FFFFD600
000FF707FFFD3000
003FF40024CFF300
006FF200002FF900
008FF000001FF900
00AFD000008FF500
00CFC2235BFFC000
00DFFFFFFFFB1000
00EFFFFEC8300000
00CD500000000000
ENDCHAR
STARTCHAR uni0413
ENCODING 1043
SWIDTH 635 0
DWIDTH 11 0
BBX 16 17 0 0
BITMAP
0000000000000110
00059CEEFFFFFFF5
03DFFFFFFFFFFEC3
0DFD77FF40000000
4FE107FF10000000
5FC00AFD00000000
3FF20DFB00000000
07701FF800000000
00003FF500000000
00006FF300000000
00008FF100000000
0000AFE000000000
0000CFC000000000
0000EFA000000000
0002FF8000000000
0003FF7000000000
0001DD2000000000
ENDCHAR
STARTCHAR uni0414
ENCODING 1044
SWIDTH 964 0
DWIDTH 17 0
BBX 17 16 0 0
BITMAP
0000038BEFED930000
0003CFFFFFFFFF9000
000DFE952114CFF900
0009710210000BFF30
0000007FB00003FF80
000001EF700000DFC0
000006FF100000BFD0
00000BFC000000BFE0
00000EF8000000CFD0
00002FF4000000DFB0
00004FF2000002FF70
08EEDFE0000007FF30
6FFFFFD200002EFB00
AF63EFFE8214DFE300
8FFFFC4DFFFFFF4000
1BEEA1017CEEA30000
ENDCHAR
STARTCHAR uni0415
ENCODING 1045
SWIDTH 686 0
DWIDTH 12 0
BBX 15 16 0 0
BITMAP
000028CEFEA30000
0005FFFFFFFF4000
003FFD6214DFB000
009FF300009FC000
00AFF10000AF9000
005FFA3100361000
0005EFFF80000000
003BFFFF70000000
04EFD62100000000
1DFC100000000000
4FF5000000000000
6FF4000000000000
4FF9000000001740
0DFFA421247BFF80
02DFFFFFFFFFFC20
0006ADEFEDB73000
ENDCHAR
STARTCHAR uni0416
ENCODING 1046
SWIDTH 1234 0
DWIDTH 22 0
BBX 24 16 0 0
BITMAP
0003BED700009E50002BEE90
002FFFFF5000EF8000DFFFF7
003D41BFD001FF7007FD28F6
0000003FF403FF500DF70000
0000000CF804FF306FF10000
00000008FC06FF03EF800000
00000002FF58FE6EFC100000
000000005EFFFFFE81000000
00000003CFFFFFFC40000000
0000004EFC4FF7AFE2000000
000001DFD13FF41EF9000000
000007FF305FF209FF100000
17201EFA007FF003FF80006C
7FB19FE2009FD000AFF616FA
4FFFFF6000BFB0002EFFFFC1
06DFD500009F600003BED810
ENDCHAR
STARTCHAR uni0417
ENCODING 1047
SWIDTH 725 0
DWIDTH 13 0
BBX 12 16 1 0
BITMAP
0004ADFEC500
008FFFFFFF40
04FF9214FF90
08FC0000BFB0
08FA0000CF80
02A50002FF30
0000002CF700
0001BEFFF910
0004FEA6DFC0
000000005FF4
7D3000003FF6
EF7000006FF5
EFA00001DFE1
AFF5115DFF60
2EFFFFFFF700
029DFEC82000
ENDCHAR
STARTCHAR uni0418
ENCODING 1048
SWIDTH 890 0
DWIDTH 16 0
BBX 19 16 0 0
BITMAP
005CED4000003EA00000
09FFFFD000008FF00000
7FB39FF10000AFE00000
EB007FF10000CFC00000
71009FF00000FFA00000
0000CFC00003FF800000
0000EF900006FF500000
0003FF60000AFF300000
0006FF30001EFF100000
0009FE00006FFD000000
000CFB0000DEFB000000
000EF90006ECFA000210
001FF8004E8CFB004F40
000FFE79FD1CFF89FE20
000AFFFFE308FFFFF400
0001AEEA20008DEB3000
ENDCHAR
STARTCHAR uni0419
ENCODING 1049
SWIDTH 890 0
DWIDTH 16 0
BBX 19 21 0 0
BITMAP
000000063001D6000000
0000004FD009F6000000
0000001FFEEFC0000000
00000004CFE910000000
00000000000000000000
005CED4000003EA00000
09FFFFD000008FF00000
7FB39FF10000AFE00000
EB007FF10000CFC00000
71009FF00000FFA00000
0000CFC00003FF800000
0000EF900006FF500000
0003FF60000AFF300000
0006FF30001EFF100000
0009FE00006FFD000000
000CFB0000DEFB000000
000EF90006ECFA000210
001FF8004E8CFB004F40
000FFE79FD1CFF89FE20
000AFFFFE308FFFFF400
0001AEEA20008DEB3000
ENDCHAR
STARTCHAR uni041A
ENCODING 1050
SWIDTH 937 0
DWIDTH 17 0
BBX 20 16 0 0
BITMAP
0005ADFED920001CE300
00AFFFFFFF90007FF300
07FE621CFD2000DFD000
0BF7000DFA0005FF6000
0BF6001FF7001DFC0000
07FA003FF501BFE20000
0052005FF46DFD300000
000009FFFFFF91000000
00000AFFFFF910000000
000000BFB6FFB0000000
000000DF909FF4000000
170001FF702FFB000060
7F5005FF300AFF4006F2
6FE43DFD0003FFD58FD0
1DFFFFF400009FFFFE20
019EFC40000008EEA200
ENDCHAR
STARTCHAR uni041B
ENCODING 1051
SWIDTH 861 0
DWIDTH 16 0
BBX 18 16 0 0
BITMAP
00000000009E900000
0000000004FFD00000
0000000009FFC00000
000000000EFFB00000
000000003FFFA00000
000000008FFFA00000
00000000DFDF900000
00000003FEBF900000
00000009F9CF900000
0000001EF4CFA00000
0000007FD0BFB00000
130001EF709FD00003
BF2009FE107FF200AC
BFA17FF6002FFB5BF8
4FFFFF90000AFFFFB0
05CFD7000001AEE800
ENDCHAR
STARTCHAR uni041C
ENCODING 1052
SWIDTH 1133 0
DWIDTH 20 0
BBX 23 16 0 0
BITMAP
00000000BFA00007EC100000
00000004FFF0001EFF300000
00000007FFF0007FFF200000
0000000AFFE000DFFF000000
0000000DFFE005FEFE000000
0000001FFEE00AFBFD000000
0000004FCFF01FF8FC000000
0000008F9FF06FB8FC000000
000000BF6EF1BF69FB000000
000001FF2DF3FF19FC000000
000005FE0CF9FB09FC000000
24000AF90BFEF608FE000120
BF202FF409FFF106FF200BA0
BFB4CFC007FFC002FFA4BF70
6FFFFF3003FF7000BFFFFA00
06DFC40000BD10001BFD6000
ENDCHAR
STARTCHAR uni041D
ENCODING 1053
SWIDTH 873 0
DWIDTH 16 0
BBX 19 17 -1 0
BITMAP
000000000000005EE500
0006CEC2000003FFFE00
01BFFFFA00000CF88F20
0BF92AFE00004FE07F10
3F8006FF1000AF809E00
180006FF0000EF40DA00
000008FE0004FF18F300
00000AFC0007FE9F7000
00001CFB112AFFE60000
002EFFFFFFFFFB100000
003EFFFFEC9EF8000000
00006FF2000EF8000000
00009FE0000EF9000000
0000DFB0000CFC0004D0
0001FF700007FF626ED0
0004FF300001DFFFFD20
0003EA0000002BEE9100
ENDCHAR
STARTCHAR uni041E
ENCODING 1054
SWIDTH 816 0
DWIDTH 15 0
BBX 14 16 1 0
BITMAP
000039DFDA4000
0008FFFFFFF700
008FFB414DFF40
04FF900002EFC0
0CFD0000009FF2
2FF70000006FF4
7FF20000004FF5
AFE00000005FF4
BFD00000006FF2
CFC00000009FE0
BFD0000000DFA0
9FF2000005FF50
4FF800002EFB00
0CFF8226EFD200
02DFFFFFFD2000
0017CEEC700000
ENDCHAR
STARTCHAR uni041F
ENCODING 1055
SWIDTH 892 0
DWIDTH 16 0
BBX 19 16 0 0
BITMAP
00027ACDEFFEEDCA9700
01AFFFFFFFFFFFFFFF50
0CFD76FF70005FF66710
4FE105FF40007FF10000
5FC008FF1000AFE00000
2FF10AFE0000CFB00000
08900DFB0000FF800000
00000FF90003FF500000
00003FF60006FF200000
00005FF40009FE000000
00007FF2000BFC000000
0000AFE0000DFA000100
0000CFD0000EF9001D50
0000EFB0000CFD23CF30
0000FFA00006FFFFF600
0000CE5000007DEC4000
ENDCHAR
STARTCHAR uni0420
ENCODING 1056
SWIDTH 805 0
DWIDTH 14 0
BBX 15 19 0 -3
BITMAP
0000005BEFEA4000
00002CFFFFFFF700
0003EFB4226EFF30
001DF9000004FF90
008FB02DD000EFC0
01EF208FF000EFB0
06FB00AFD002FF80
0AF600DFB009FF30
0DF300FF83AFF800
0FF0AEFFFFFF8000
2FE09FFFED930000
2FD008FF10000000
2FD00AFD00000000
1FF00CFB00000000
0EF30FF800000000
09FA4FF500000000
02FFFFF200000000
005EFF9000000000
0001540000000000
ENDCHAR
STARTCHAR uni0421
ENCODING 1057
SWIDTH 686 0
DWIDTH 12 0
BBX 14 16 1 0
BITMAP
000039DFEA2000
0007FFFFFFD100
008FFB425FF600
04FF90000CF900
0CFD00000DF800
3FF600000EF400
7FF20000023000
AFE00000000000
BFD00000000000
CFC00000000000
BFE00000000000
8FF40000000000
2FFC1000000053
08FFD621248EF8
008FFFFFFFFFD2
00039CEFEC8400
ENDCHAR
STARTCHAR uni0422
ENCODING 1058
SWIDTH 697 0
DWIDTH 13 0
BBX 17 16 0 0
BITMAP
00038BDEFFFFFFEB10
02CFFFFFFFFFFFFF20
0CFC631BFD11122200
3FE0000DFB00000000
5FC0001FF800000000
2FF2004FF500000000
0680006FF300000000
0000009FF000000000
000000BFD000000000
000000DFA000000000
000001FF8000000000
000003FF6000000000
000005FF4000000000
000007FF2000000000
000009FF1000000000
000005EA0000000000
ENDCHAR
STARTCHAR uni0423
ENCODING 1059
SWIDTH 824 0
DWIDTH 15 0
BBX 18 21 0 -5
BITMAP
006CEC3000004EB000
0AFFFFC000009FF000
4FA2AFF00000CFD000
26009FE00001FFA000
0000BFC00006FF8000
0001FF80000CFF5000
0004FF50005FFF3000
0005FF3002EEFF1000
0004FF714DE8FD0000
0000DFFFFE49FB0000
00003CFEA20BFB79A1
00000000001DFFFFF1
0000000039EFFFC840
0000001AFFFFF20000
000002DFFC9FE00000
00001DFD406FB00000
00007FD100AF700000
0000BF7002FF200000
0000AFB13DF8000000
00005FFFFFB0000000
000007DFD700000000
ENDCHAR
STARTCHAR uni0424
ENCODING 1060
SWIDTH 977 0
DWIDTH 18 0
BBX 17 23 1 -5
BITMAP
00BB52000000000000
00EFFFFFFFE5000000
0039DFFFFFF6000000
00000000CF50000000
0018DFC5FF15CFB200
00BFFFFFFD6FFFFA00
08FF728FFEFC39FF10
1EF9000AFFD104FF30
6FF3000BFF4004FF40
9FE0000DFA0005FF30
CFB0000FF30007FF10
DF90005FF20009FE00
EF9001DFF0000DFA00
DF900AFFE0005FF400
BFC29FEFFA24EFC000
6FFFFBAFFFFFFE2000
09EE80CF99EEA20000
000000FF4000000000
033003FF1000000000
0DF108FA0000000000
0DF82EF40000000000
06FFFFA00000000000
006DE9000000000000
ENDCHAR
STARTCHAR uni0425
ENCODING 1061
SWIDTH 712 0
DWIDTH 13 0
BBX 17 16 -1 0
BITMAP
0019EEA200007EA000
02DFFFFD0006FF8000
0BF62AFF503FFB0000
094001EFA1DFD10000
000000AFEBFE200000
0000005FFFF4000000
0000002FFF70000000
0000003FFC00000000
000001DFFF00000000
00000CFFFF40000000
0000AFF5FF80000000
0008FF70CFC0000100
005FFA007FF1004F10
03FFD1002FFA25ED00
1DFE200009FFFFE300
2ED40000019DEA2000
ENDCHAR
STARTCHAR uni0426
ENCODING 1062
SWIDTH 890 0
DWIDTH 16 0
BBX 19 22 0 -6
BITMAP
005CED4000003EA00000
08FFFFD000008FF00000
6FB29FF10000AFE00000
EC007FF10000CFC00000
82009FF00000EFA00000
0000CFD00002FF800000
0000FFA00006FF600000
0003FF600009FF300000
0006FF30000EFF100000
0009FF00004FFE000000
000CFC0000BFFC000000
000EF90003FCFB000000
001FF8001C9CFA000000
000EFC13CE2CFFB36E20
000AFFFFE404DFFEFD10
0001AEEA30004DFE7000
00000000001AFFF40000
0000000003EFAFF10000
000000000DF74FC00000
000000004FF2BF700000
000000003FFFFD100000
0000000008EFB2000000
ENDCHAR
STARTCHAR uni0427
ENCODING 1063
SWIDTH 773 0
DWIDTH 14 0
BBX 12 16 2 0
BITMAP
1CE200000CD2
3FF600003FF4
4FF600005FF3
5FF400006FF1
7FF20000AFF0
AFE00000EFD0
DFB00006FFB0
EFA0002EFF90
DFE315DFDF70
AFFFFFF7EF50
1CFFFF81FF30
00465204FF20
00000006FF00
00000008FE00
00000009FC00
00000007F700
ENDCHAR
STARTCHAR uni0428
ENCODING 1064
SWIDTH 1272 0
DWIDTH 23 0
BBX 26 16 0 0
BITMAP
005CED4000008E500005E80000
09FFFFD00000DF90000AFD0000
7FB29FF10000FF90000CFC0000
EB007FF10003FF60000EFB0000
61009FF00005FF30002FF80000
0000CFC00008FE00005FF60000
0000FF90000CFB00008FF40000
0003FF60001FF70000CFF10000
0006FF30006FF40002FFE00000
0009FE0000BFF10008FFC00000
000CFB0003FFD0000EEFA00000
000EF9000BDFC0007DDF800030
001FF8007F7FC004F7EF9006F3
000FFE8AFB3FF99FD0DFE8AFE1
000BFFFFD11EFFFE308FFFFE30
0002BEE91005DEB30019EEA200
ENDCHAR
STARTCHAR uni0429
ENCODING 1065
SWIDTH 1272 0
DWIDTH 23 0
BBX 26 22 0 -6
BITMAP
005CED4000008E500005E80000
09FFFFD00000DF90000AFD0000
7FB29FF10000FF90000CFC0000
EB007FF10003FF60000EFA0000
61009FF00005FF30002FF80000
0000CFC00008FE00005FF50000
0000FF90000CFB00008FF30000
0003FF60001FF70000CFF10000
0006FF30006FF40002FFE00000
0009FE0000BFF10008FFC00000
000CFB0003FFD0000EEFA00000
000EF9000BDFC0007DDF800000
001FF8007F8FC004F7EFA20050
000FFE8AFA4FF99FD0EFFF7CF1
000BFFFFD12FFFFE305DFFFF70
0002BEE91006DEB30005EFB200
000000000000000002BFFF1000
00000000000000004EFAFD0000
0000000000000001EF56FA0000
0000000000000006FE2DF50000
0000000000000005FFFFC00000
00000000000000009EFA100000
ENDCHAR
STARTCHAR uni042A
ENCODING 1066
SWIDTH 863 0
DWIDTH 16 0
BBX 14 16 2 0
BITMAP
111249DA000000
DFFFFFFB000000
BEFFFFC0000000
0000DF50000000
0004FE00000000
000AFDBDFEB500
002EFFFFFFFF80
09FFF83115EFF1
0CFFF000007FF4
007FE000005FF5
007FE000006FF3
007FE00000AFE1
004FF20002FF90
001EFB215DFE10
0006FFFFFFD300
00005CEEC71000
ENDCHAR
STARTCHAR uni042B
ENCODING 1067
SWIDTH 1078 0
DWIDTH 19 0
BBX 19 16 0 0
BITMAP
0004EB00000000006E90
0009FD0000000000BFC0
000DF90000000000DFB0
001FF50000000000FF80
004FF20000000002FF60
007FE9CEFD910004FF40
00BFFFFFFFFD1006FF10
3EFFC6213BFF8008FE00
6FFF700001FFB00BFC00
01FF600000DFB00DF900
01FF600000FFA01FF700
00FF600003FF603FF500
00CF90000BFF105FF300
008FF513AFF6007FF100
001DFFFFFF70009FF000
0002AEFD9300006E9000
ENDCHAR
STARTCHAR uni042C
ENCODING 1068
SWIDTH 721 0
DWIDTH 13 0
BBX 13 16 0 0
BITMAP
0004EB00000000
0009FD00000000
000DF900000000
001FF500000000
004FF200000000
007FE9CEFD9100
00BFFFFFFFFD10
3EFFC6213BFF80
6FFF700001FFB0
01FF600000DFB0
01FF600000FFA0
00FF600003FF60
00CF90000BFF10
008FF513AFF600
001DFFFFFF7000
0002AEFD930000
ENDCHAR
STARTCHAR uni042D
ENCODING 1069
SWIDTH 755 0
DWIDTH 14 0
BBX 14 16 0 0
BITMAP
00017BEFD92000
004EFFFFFFF500
01EFC5116EFF20
02F7000004FFA0
0020000000CFE0
00000000008FF2
00000000006FF3
0002EFFFFFFFF3
0002FFFFFFFFF1
0000000000AFE0
0460000000EFA0
1FF3000005FF40
3FF300002EFB00
1FFA2116EFE200
07FFFFFFFD2000
005BEFEB600000
ENDCHAR
STARTCHAR uni042E
ENCODING 1070
SWIDTH 1246 0
DWIDTH 22 0
BBX 24 16 -1 0
BITMAP
0018DEC2000009E90CEB3000
01CFFFFB00009FFF0CFFF500
0CFB5CFE0004FBBE003DFE10
3F8006FF100CF6EC0003FF80
050006FF003FFBF60000CFC0
000008FE008FFFC00000AFF0
00000AFC00CFFC1000009FF1
00024DFDAEFFB10000009FF0
003FFFFFFFFF80000000AFE0
002EFFFB75FF80000000EFB0
00006FF101FFA0000003FF60
00009FD000DFD000000BFE10
0000DFA0009FF600008FF700
0001FF60002FFF846BFFB000
0004FF300006FFFFFFFA0000
0003EA0000003AEFEA400000
ENDCHAR
STARTCHAR uni042F
ENCODING 1071
SWIDTH 850 0
DWIDTH 15 0
BBX 18 16 0 0
BITMAP
000002ADFEC8BE2000
00004EFFFFFFFF4000
0001EFD41139FF3000
0006FF300008FF1000
0009FE00000CFD0000
000AFD00002FFB0000
0009FF10007FF80000
0004FFB311DFF60000
0000AFFFFFFFF40000
000006CEFFFFF20000
00000000AFAFF00000
11000008FD4FE00011
BD00008FE34FE001C9
CF813BFF403FF85CF6
6FFFFFE4001EFFFF90
06DFD9100004DFC600
ENDCHAR
STARTCHAR uni0430
ENCODING 1072
SWIDTH 470 0
DWIDTH 8 0
BBX 11 9 0 0
BITMAP
0006DE310000
009FFFFC0000
06FF78FB0000
0DF80AF80000
3FF10DF50010
5FE01FF309B0
4FF39FF59F80
1EFFFCFFFB00
05DE71BE9000
ENDCHAR
STARTCHAR uni0431
ENCODING 1073
SWIDTH 473 0
DWIDTH 9 0
BBX 11 18 0 0
BITMAP
000000052000
00017BEF6000
004EFFFC3000
00CFA4200000
00CF50000000
007FE2000000
000CFD100000
0001DFA00000
00003FF40000
004CEEFB0000
04FFFFFE0000
0CFB1FFF1230
2FF40CFFFFD0
4FF107FFFD70
4FF00CF80000
2FF46FF20000
0CFFFF800000
02AED7000000
ENDCHAR
STARTCHAR uni0432
ENCODING 1074
SWIDTH 473 0
DWIDTH 9 0
BBX 10 18 1 0
BITMAP
0007EC1000
006FFF8000
00EE4FA000
06F81FA000
0CF43F7000
1FF18F3000
5FC0DB0000
8FA5F30000
AF8D900000
DFCFFC1000
EFFBFFA000
FFB0FFF134
FF50CFFFFD
EF402FFFD7
DF502FD000
9FC2AF8000
3FFFFD1000
05DFB20000
ENDCHAR
STARTCHAR uni0433
ENCODING 1075
SWIDTH 380 0
DWIDTH 7 0
BBX 10 9 0 0
BITMAP
04BEEB1000
0EFFFF9000
0651BF9000
0006FE2000
03CFB20010
1EF50005F2
4FF213AFD0
2FFFFFFD20
05CEEC7100
ENDCHAR
STARTCHAR uni0434
ENCODING 1076
SWIDTH 479 0
DWIDTH 9 0
BBX 11 18 0 -9
BITMAP
0006DE320000
009FFFFB0000
06FF78FA0000
0DF80AF80000
3FF20DF50110
5FE01FF35E80
4FE29FFAFF40
1EFFFFFFD300
05DE9FFA1000
0004EFA00000
004EFF600000
03ECDF300000
1DD2FE000000
6F44FA000000
CD0AF5000000
FD4FD0000000
DFFF50000000
4DE600000000
ENDCHAR
STARTCHAR uni0435
ENCODING 1077
SWIDTH 393 0
DWIDTH 7 0
BBX 10 9 0 0
BITMAP
004CEC3000
04FFFFC000
0DF83FE000
3FE03FB000
5FD8EE3021
5FFE9204E5
2FF8239FE2
0AFFFFFE40
008DFD9200
ENDCHAR
STARTCHAR uni0436
ENCODING 1078
SWIDTH 717 0
DWIDTH 13 0
BBX 16 9 0 0
BITMAP
01AEA07E42BEB100
06FFF7CF3DFFF700
06F4DDEE7F95F800
0020BFFCDF15F300
0420CFEDFE001040
6F80EDDFFE0005F3
AF87F7FFBF815EE1
8FFFD1FE2EFFFE30
1BEB20D803CEB300
ENDCHAR
STARTCHAR uni0437
ENCODING 1079
SWIDTH 435 0
DWIDTH 8 0
BBX 11 18 -1 -9
BITMAP
0008DFD40000
008FFFFE0000
007B41CF2000
000000CE0000
00001AF80000
0039EF800790
00EFA203CFA0
00CFE77FF810
0007FFFD3000
0002DFC10000
003EFFB00000
02EE7FB00000
0BF37F900000
4F80BF500000
9F23FE100000
BF3CF8000000
9FFFC0000000
2CEA10000000
ENDCHAR
STARTCHAR uni0438
ENCODING 1080
SWIDTH 462 0
DWIDTH 8 0
BBX 11 9 0 0
BITMAP
02DB00CC0000
07FA04FC0000
0BF709F90000
0EF40EF60000
0FF25FF30120
1FF1CFF01C90
2FFDDFF3BF50
0EFF7EFFF800
05EA06ED6000
ENDCHAR
STARTCHAR uni0439
ENCODING 1081
SWIDTH 462 0
DWIDTH 8 0
BBX 11 15 0 0
BITMAP
000000033000
0054000D9000
01FE22AF6000
00DFFFFC0000
003CFD810000
000000000000
02DB00CC0000
07FA04FC0000
0BF709F90000
0EF40EF60000
0FF25FF30120
1FF1CFF01C90
2FFDDFF3BF50
0EFF7EFFF800
05EA06ED6000
ENDCHAR
STARTCHAR uni043A
ENCODING 1082
SWIDTH 465 0
DWIDTH 8 0
BBX 11 9 0 0
BITMAP
02DA08EE5000
08F99FFFD000
0BF8FE3DF000
0EFBF80DB000
0FFEF6010120
1FFFF7000CA0
1FFEFD32BF60
0EF7CFFFFA00
09E11AEE7000
ENDCHAR
STARTCHAR uni043B
ENCODING 1083
SWIDTH 549 0
DWIDTH 10 0
BBX 12 9 0 0
BITMAP
000005ED1000
00000DFF4000
00004FFF3000
0000AFFF3000
3912FDDF2003
CF38F8DF308E
EF6FE1CF76FB
CFFF709FFFD1
4DE7002DEA10
ENDCHAR
STARTCHAR uni043C
ENCODING 1084
SWIDTH 734 0
DWIDTH 13 0
BBX 16 9 0 0
BITMAP
00000CE403DD1000
00005FF70DFF2000
0000AFF76FFF2000
0000EEF7CECF1000
3A24FAFBF9CF1021
CF39F5FFF3DF10C7
EF6FE0FFD0DF59F4
CFFF60CF70BFFF70
4DE7007D204ED600
ENDCHAR
STARTCHAR uni043D
ENCODING 1085
SWIDTH 475 0
DWIDTH 9 0
BBX 11 9 0 0
BITMAP
02DA00AF1000
08F801FF0000
0BF505FC0000
0EFEEFF90000
0FFFFFF60160
1FF00CF40BD0
1FF00DF58F80
0EF00BFFFA00
09C004ED7000
ENDCHAR
STARTCHAR uni043E
ENCODING 1086
SWIDTH 451 0
DWIDTH 8 0
BBX 11 9 0 0
BITMAP
004CEC500000
04FFFFF30000
0DF97FFA1310
3FF14FFFFF70
5FD008FFFC30
5FE007F80000
2FF63EF20000
0AFFFF800000
019EE8000000
ENDCHAR
STARTCHAR uni043F
ENCODING 1087
SWIDTH 496 0
DWIDTH 9 0
BBX 12 9 0 0
BITMAP
02DA05DE2000
08F94FFF4000
0BF6EFFF2000
0EFAE5FF0000
0FFE75FC0030
1FFF17F904F3
1FFB09FB4EE1
0EF608FFFE30
09D102CEB300
ENDCHAR
STARTCHAR uni0440
ENCODING 1088
SWIDTH 481 0
DWIDTH 9 0
BBX 14 18 -3 -9
BITMAP
00008E49EC2000
0000DFDFFFA000
0000DFE47FE000
0000DF704FE000
0000DF607FC002
0001EF50CF707E
0008FF58FF27FB
001EFFEFFFFFD1
007EEFEB7EE910
00D9EF30000000
04F4FF20000000
08E1FF00000000
0CB2FD00000000
0F84FA00000000
1F77F700000000
2F9BF200000000
0EFFB000000000
06EC2000000000
ENDCHAR
STARTCHAR uni0441
ENCODING 1089
SWIDTH 368 0
DWIDTH 7 0
BBX 9 9 0 0
BITMAP
003BEB1000
04FFFF8000
0DFA4F9000
3FF14F5000
5FE0020030
5FE00009E0
3FF824BFA0
0BFFFFFB10
019EFC6000
ENDCHAR
STARTCHAR uni0442
ENCODING 1090
SWIDTH 744 0
DWIDTH 13 0
BBX 16 9 0 0
BITMAP
02DA06EC01AE8000
08F96FFF1CFFB000
0BF7EFFE8FFF9000
0EFBD5FCE8BF7000
0FFE66FFD0DF4013
1FFE17FF80FF10BA
1FFB09FF32FF4AF7
0EF608FD01FFFF90
09D103E7008ED700
ENDCHAR
STARTCHAR uni0443
ENCODING 1091
SWIDTH 479 0
DWIDTH 9 0
BBX 12 18 -1 -9
BITMAP
002DB00CC000
007FA04FC000
00BF709FA000
00EF40EF7000
00FF25FF5022
01FF1CFF34E8
02FFDEFF8FE3
00EFFAFFFC20
005EA5FF9000
00003EF90000
0003EFF50000
003ECDF20000
01DD2FE00000
08F45F900000
0DC0AF400000
1FC4FD000000
0EFFF5000000
05EE60000000
ENDCHAR
STARTCHAR uni0444
ENCODING 1092
SWIDTH 721 0
DWIDTH 13 0
BBX 16 22 0 -7
BITMAP
0000000CD0000000
0000004FE0000000
0000007FA0000000
000000AF70000000
000000DF30000000
000000FF00000000
0006DEFC6ED40000
009FFEFDFDFE0000
06FE37FF51FF3000
0DF70AFE00FF4000
3FF10DFB03FF2020
5FE01FF809FC03E4
4FE29FF65FF64DE1
1EFFFDFEFFFFFE40
05DE5CFEC7CEB300
00000EF100000000
00000FF000000000
00001FF000000000
00001FF000000000
00001FF000000000
00001FF000000000
0000054000000000
ENDCHAR
STARTCHAR uni0445
ENCODING 1093
SWIDTH 529 0
DWIDTH 10 0
BBX 12 9 0 0
BITMAP
01BEC24CE700
06FFFDFFFB00
05E4EFF4E600
0000BFC00000
0630CF900015
7F80EF9000BC
AF87FFE32AF8
8FFFEFFFFFA0
1BEB24CFD700
ENDCHAR
STARTCHAR uni0446
ENCODING 1094
SWIDTH 501 0
DWIDTH 9 0
BBX 11 15 0 -6
BITMAP
02DC00CC0000
07FA04FB0000
0BF709F80000
0EF40EF50000
0FF25FF20000
1FF1CFF00140
2FFDDFF64EC0
0EFF7CFFFE50
05EA05FFC200
00007FFB0000
0008FBF80000
005F77F40000
00BF2DD00000
00BFFF500000
003DD6000000
ENDCHAR
STARTCHAR uni0447
ENCODING 1095
SWIDTH 555 0
DWIDTH 10 0
BBX 14 11 -1 0
BITMAP
00001630000000
00008FE4000000
0000DEFFFFE200
0003F99FFFE100
0009F407FE4000
001ED08FD20000
009F65FE200041
05FB0BF80005F4
1ED10CF913AFD1
1B2008FFFFFD20
0000019EEC7100
ENDCHAR
STARTCHAR uni0448
ENCODING 1096
SWIDTH 693 0
DWIDTH 12 0
BBX 15 9 0 0
BITMAP
02DB01DA00AE0000
07FA05FB02FE0000
0BF70AF906FB0000
0EF40EF60BF80000
0FF25FF42FF50030
1FF1CFF3AFF30AB0
2FFDFDFDFEF48F80
0EFF9BFFACFFFA00
05EB14EC15ED7000
ENDCHAR
STARTCHAR uni0449
ENCODING 1097
SWIDTH 732 0
DWIDTH 13 0
BBX 15 15 0 -6
BITMAP
02DB01DA00AE0000
07FA05FB02FE0000
0BF70AF906FB0000
0EF40EF60BF80000
0FF25FF42FF40000
1FF1CFF3AFF20150
2FFDFDFDFEF83CF0
0EFF9BFFAAFFFF70
05EB14EC13FFD400
000000005EFD1000
00000006FBFA0000
0000003F95F60000
0000008F4CF10000
0000008FFF800000
0000002CE8000000
ENDCHAR
STARTCHAR uni044A
ENCODING 1098
SWIDTH 542 0
DWIDTH 10 0
BBX 13 9 0 0
BITMAP
2EFFFC00000000
03AFD400000000
01EF8DE9000000
06FFFFFF600000
08FF71BFA00800
09FC009FA08F10
06FE34EF98FB00
01EFFFFFFFC100
003CFEBDE91000
ENDCHAR
STARTCHAR uni044B
ENCODING 1099
SWIDTH 702 0
DWIDTH 13 0
BBX 14 9 1 0
BITMAP
2DE000001DD000
7FC000007FE000
BF99ED31EFB000
EFFFFFCAFF8000
FFD23FFFFF5017
FF400FFDEF40AE
DF928FF4DF78F9
7FFFFF50AFFFB0
07DEB3002CE910
ENDCHAR
STARTCHAR uni044C
ENCODING 1100
SWIDTH 517 0
DWIDTH 9 0
BBX 11 9 1 0
BITMAP
2DE000000000
7FC000000000
BF99ED400000
EFFFFFE10000
FFD23FF30440
FF400FF31E90
DFA28FF4CF40
7FFFFFFFF600
07DFDBEC5000
ENDCHAR
STARTCHAR uni044D
ENCODING 1101
SWIDTH 466 0
DWIDTH 8 0
BBX 11 9 0 0
BITMAP
02BEFD800000
08FFFFF90000
013117FF1340
0008FFFFFFB0
1A48FFFFFE60
5F7003FE0000
5FC12CFA0000
1EFFFFE20000
03BEEB300000
ENDCHAR
STARTCHAR uni044E
ENCODING 1102
SWIDTH 676 0
DWIDTH 12 0
BBX 15 9 0 0
BITMAP
02DA005CED500000
08F806FFFFF40000
0BF50EF96FFA1210
0EFFFFF13FFFFF80
0FFFFFE007FFFD40
1FF25FE007F90000
1FF01FF62DF30000
0EF009FFFF900000
09C0009EE9000000
ENDCHAR
STARTCHAR uni044F
ENCODING 1103
SWIDTH 543 0
DWIDTH 10 0
BBX 13 9 0 0
BITMAP
0003CEEAE30000
000DFFFFF20000
002FD21EE00000
001FC16FB00000
6E37FFFF900900
DF301DCF707F10
EF71AF6F74FA00
BFFFF53FFFC100
2BEC400AE91000
ENDCHAR
STARTCHAR uni0450
ENCODING 1104
SWIDTH 393 0
DWIDTH 7 0
BBX 10 16 0 0
BITMAP
03E7000000
06FE100000
01DF600000
004FC00000
0008F30000
0000C50000
0000000000
004CEC3000
04FFFFC000
0DF83FE000
3FE03FB000
5FD8EE3021
5FFE9204E5
2FF8239FE2
0AFFFFFE40
008DFD9200
ENDCHAR
STARTCHAR uni0451
ENCODING 1105
SWIDTH 393 0
DWIDTH 7 0
BBX 10 13 0 0
BITMAP
00BE32DC10
02FF66FF20
01DD23EB00
0000000000
004CEC3000
04FFFFC000
0DF83FE000
3FE03FB000
5FD8EE3021
5FFE9204E5
2FF8239FE2
0AFFFFFE40
008DFD9200
ENDCHAR
STARTCHAR uni0452
ENCODING 1106
SWIDTH 514 0
DWIDTH 9 0
BBX 12 25 0 -9
BITMAP
000AE3000000
003FF3000000
007FE0000000
0DFFFFFD0000
09FFFFEB0000
01FF40000000
04FF10000000
07FD04CE3000
09FA3FFF6000
0BF8DFFF4000
0CFBF4FF2000
0EFE83FF0030
0EFF24FD19F2
0EFC06FCCFC0
0DF808FFF800
08E20AFE5000
00006FF40000
0007FFF10000
006FBFD00000
03FA5F900000
0CD19F500000
3F81EE100000
5F78F8000000
4FFFE1000000
09EC30000000
ENDCHAR
STARTCHAR uni0453
ENCODING 1107
SWIDTH 380 0
DWIDTH 7 0
BBX 10 16 0 0
BITMAP
00000BC100
00004FF200
0000AFA000
0001FE1000
0007F40000
0009800000
0000000000
04BEEB1000
0EFFFF9000
0651BF9000
0006FE2000
03CFB20010
1EF50005F2
4FF213AFD0
2FFFFFFD20
05CEEC7100
ENDCHAR
STARTCHAR uni0454
ENCODING 1108
SWIDTH 379 0
DWIDTH 7 0
BBX 10 9 0 0
BITMAP
005CED6000
06FFFFF200
0EF718E200
4FFFF60000
5FFFF60090
6FF00009F1
2FF912AFB0
0AFFFFFC10
008DFD7000
ENDCHAR
STARTCHAR uni0455
ENCODING 1109
SWIDTH 427 0
DWIDTH 8 0
BBX 11 9 -1 0
BITMAP
00006E800000
0001EF400000
0006FF200000
000DFFB00000
007F8FF70160
03FA09FD0BF0
0DD5ACFFCFB0
1C3AFFFFFE20
0004DFFEA200
ENDCHAR
STARTCHAR uni0456
ENCODING 1110
SWIDTH 246 0
DWIDTH 4 0
BBX 7 13 0 0
BITMAP
00BE8000
04FFD000
01CE6000
00000000
03EA0000
08FA0000
0BF80000
0EF50000
1FF20130
2FF10BB0
1FF4AF70
0DFFFA00
04DE8000
ENDCHAR
STARTCHAR uni0457
ENCODING 1111
SWIDTH 246 0
DWIDTH 4 0
BBX 7 13 0 0
BITMAP
8E60CE20
EFA3FF60
AE41DD20
00000000
03EA0000
08FA0000
0BF80000
0EF50000
1FF20130
2FF10BB0
1FF4AF70
0DFFFA00
04DE8000
ENDCHAR
STARTCHAR uni0458
ENCODING 1112
SWIDTH 254 0
DWIDTH 5 0
BBX 12 22 -5 -9
BITMAP
0000004DD300
000000AFF700
0000005EC200
000000000000
0000004EA000
0000008FB000
000000AF9000
000000CF7000
000000DF5011
000000FF34E7
000001FF8FE3
000003FFFC20
000005FF9100
00002DF90000
0003EFF60000
002ECDF30000
01DD2FE00000
07F45FA00000
0DC0AF500000
1FC4FD000000
0EFFF5000000
05EE60000000
ENDCHAR
STARTCHAR uni0459
ENCODING 1113
SWIDTH 794 0
DWIDTH 14 0
BBX 17 9 0 0
BITMAP
000005ED2000000000
00000DFF4000000000
00004FFF49ED400000
0000AFEFEFFFE10000
6E22FCDFC23FF30440
DF28F7CF401FF32E90
EF6FE1AF928FF4CF40
CFFF606FFFFFFFF600
3DE60008EFCBEC5000
ENDCHAR
STARTCHAR uni045A
ENCODING 1114
SWIDTH 751 0
DWIDTH 14 0
BBX 16 9 0 0
BITMAP
02DA00AE20000000
08F802FF00000000
0BF506FB7EE70000
0EFFFFFFFFFF3000
0FFFFFFE41EF6027
1FF009F800CF60CC
1FF007FC14FF4AF7
0EF001EFFFFFFF90
09C0004CFDAED700
ENDCHAR
STARTCHAR uni045B
ENCODING 1115
SWIDTH 502 0
DWIDTH 9 0
BBX 11 16 1 0
BITMAP
00AE30000000
03FF30000000
07FE00000000
DFFFFFD00000
9FFFEEB00000
1FF400000000
4FF100000000
7FD04CE30000
9FA3FFF60000
BF8DFFF40000
CFBF4FF10000
EFE83FE00310
EFF26FB03E50
EFC08FC4DE20
DF806FFFF400
8E201CEB3000
ENDCHAR
STARTCHAR uni045C
ENCODING 1116
SWIDTH 465 0
DWIDTH 8 0
BBX 11 16 0 0
BITMAP
0000006E4000
000000DF7000
000005FE2000
00000BF50000
00002FA00000
00004D100000
000000000000
02DA08EE5000
08F99FFFD000
0BF8FE3DF000
0EFBF80DB000
0FFEF6010120
1FFFF7000CA0
1FFEFD32BF60
0EF7CFFFFA00
09E11AEE7000
ENDCHAR
STARTCHAR uni045D
ENCODING 1117
SWIDTH 462 0
DWIDTH 8 0
BBX 11 16 0 0
BITMAP
009D10000000
00DF70000000
007FD0000000
000BF5000000
0002EB000000
00005C000000
000000000000
02DB00CC0000
07FA04FC0000
0BF709F90000
0EF40EF60000
0FF25FF30120
1FF1CFF01C90
2FFDDFF3BF50
0EFF7EFFF800
05EA06ED6000
ENDCHAR
STARTCHAR uni045E
ENCODING 1118
SWIDTH 479 0
DWIDTH 9 0
BBX 12 24 -1 -9
BITMAP
000000003300
00054000D900
001FE22AF600
000DFFFFC000
0003CFD81000
000000000000
002DB00CC000
007FA04FC000
00BF709FA000
00EF40EF7000
00FF25FF5022
01FF1CFF34E8
02FFDEFF8FE3
00EFFAFFFC20
005EA5FF9000
00003EF90000
0003EFF50000
003ECDF20000
01DD2FE00000
08F45F900000
0DC0AF400000
1FC4FD000000
0EFFF5000000
05EE60000000
ENDCHAR
STARTCHAR uni045F
ENCODING 1119
SWIDTH 600 0
DWIDTH 11 0
BBX 11 11 0 -2
BITMAP
02DB00CC0000
07FA04FC0000
0BF709F90000
0EF40EF60000
0FF25FF30120
1FF1CFF01C90
2FFDDFF3BF60
0EFF7EFFF800
06FC06ED6000
03F800000000
02E300000000
ENDCHAR
STARTCHAR uni0462
ENCODING 1122
SWIDTH 721 0
DWIDTH 13 0
BBX 13 16 0 0
BITMAP
0004EA00000000
0009FE00000000
0AFFFFFD100000
0CFFFFFC000000
003FF400000000
006FF9CEFD9100
009FFFFFFFFD10
2BFFC6213BFF80
6FFF700001FFB0
01FF600000DFB0
01FF600000FFA0
00FF600003FF60
00CF90000BFF10
008FF513AFF600
001DFFFFFF7000
0002AEFD930000
ENDCHAR
STARTCHAR uni0463
ENCODING 1123
SWIDTH 517 0
DWIDTH 9 0
BBX 12 13 0 0
BITMAP
002730000000
00BF90000000
01FF50000000
8FFFFE400000
6EFFFE400000
0CF800000000
0EF79ED40000
0FFFFFFE1000
1FFD23FF3044
0FF400FF31D9
0DF917FF3CF4
06FFFFFFFF60
007DFDBEC500
ENDCHAR
STARTCHAR uni046A
ENCODING 1130
SWIDTH 1234 0
DWIDTH 22 0
BBX 24 16 0 0
BITMAP
0004EFFFFFFFFFFFFFFFFE60
0006FFFFFFFFFFFFFFFFFE50
0000019FF100000009FD1000
0000001FF50000001EF60000
0000000CF80000008FE10000
00000007FC000004FF800000
00000002FF60027EFC100000
000000005EFFFFFE81000000
00000003CFFFFFFC40000000
0000004EFC4FF7AFE2000000
000001DFD13FF41EF9000000
000007FF305FF209FF100000
17201EFA007FF003FF80006C
7FB19FE2009FD000AFF616FA
4FFFFF6000BFB0002EFFFFC1
06DFD500009F600003BED810
ENDCHAR
STARTCHAR uni046B
ENCODING 1131
SWIDTH 788 0
DWIDTH 14 0
BBX 17 16 0 0
BITMAP
000000000AE6000000
000000005FF9000000
00000000AFF8000000
00000000EDF7000000
00000004FCF5000000
00000008FAF4000000
0000000DF8F4000000
0000BEAFB8F7DE2000
0000EFFF79FFFE2000
000005FF2AFD300000
000005FD0AF4000000
03100CFE1FF4000110
5F706FFE7FF8001D70
AF85FFCFDCFE42BF40
8FFFF68FF4AFFFF800
2CEC404EB01AED7000
ENDCHAR
STARTCHAR uni0472
ENCODING 1138
SWIDTH 816 0
DWIDTH 15 0
BBX 14 16 1 0
BITMAP
000039DFDA4000
0008FFFFFFF700
008FF9213CFF40
04FF700001EFC0
0CFC0000008FF2
2FF50000005FF4
7FFCEE93017FF5
AFFFFFFFFFFFF4
BFD3127DFEEFF2
CFC0000000BFE0
BFE0000001FFA0
9FF2000008FF50
4FF900003FFB00
0CFF8116EFD200
02DFFFFFFD2000
0017CEEC700000
ENDCHAR
STARTCHAR uni0473
ENCODING 1139
SWIDTH 451 0
DWIDTH 8 0
BBX 11 9 0 0
BITMAP
004CED400000
04FFFFE10000
0DF91BF70000
3FF105FC7A50
5FFFFFFFFF70
5FFFFFFFEB20
2FF42CF60000
0AFFFFC10000
019EE9100000
ENDCHAR
STARTCHAR uni0474
ENCODING 1140
SWIDTH 797 0
DWIDTH 14 0
BBX 16 16 2 0
BITMAP
1CE2000000AFFEB4
5FF5000002FFFFFB
7FF3000005FF6373
8FF1000008FF2000
AFF000000BFD0000
BFE000000EF90000
BFD000004FF50000
CFC000008FE10000
BFC00000DFA00000
AFD00004FF400000
9FF0000BFC000000
6FF3004FF5000000
3FF902EFB0000000
0DFFAEFE20000000
05FFFFE300000000
006EEA2000000000
ENDCHAR
STARTCHAR uni0475
ENCODING 1141
SWIDTH 420 0
DWIDTH 8 0
BBX 10 9 0 0
BITMAP
0DD000BFD8
1FF104FEDB
1FF10AF800
1FF22FF200
0FF38FA000
0EF5FF3000
0DFDFA0000
0AFFE20000
03ED400000
ENDCHAR
STARTCHAR uni048A
ENCODING 1162
SWIDTH 890 0
DWIDTH 16 0
BBX 19 26 0 -4
BITMAP
000000063001D6000000
0000004FD22AF6000000
0000001FFFFFC0000000
00000004CFE910000000
00000000000000000000
00000000000000000000
005CED4000003EA00000
09FFFFD000008FF00000
7FB29FF10000AFE00000
EB007FF10000CFC00000
61009FF00000FFA00000
0000CFC00003FF800000
0000FF900006FF500000
0003FF60000AFF300000
0006FF30001FFF100000
0009FE00006FFD000000
000CFB0000DEFB000000
000EF90006EBFA000210
001FF8004F8CFB004F40
000EFE79FD1CFF89FE20
000AFFFFE308FFFFF400
0001AEEA20008EFF5000
0000000000000DF80000
0000000000008FD10000
000000000002FF500000
000000000002EA000000
ENDCHAR
STARTCHAR uni048B
ENCODING 1163
SWIDTH 462 0
DWIDTH 8 0
BBX 11 19 0 -4
BITMAP
000000033000
00D9000D9000
01FF32AF4000
00CFFFFA0000
002BFD800000
000000000000
02DB00CC0000
07FA04FC0000
0BF709F90000
0EF40EF60000
0FF25FF30120
1FF1CFF01C90
2FFDEFF3BF60
0EFF7EFFF900
05EA07FFB000
000005FD1000
00001EF40000
00006FA00000
000016100000
ENDCHAR
STARTCHAR uni048C
ENCODING 1164
SWIDTH 721 0
DWIDTH 13 0
BBX 13 16 0 0
BITMAP
0004EA00000000
0009FE00000000
0AFFFFFD100000
0CFFFFFC000000
003FF400000000
006FF9CEFD9100
009FFFFFFFFD10
2BFFC6213BFF80
6FFF700001FFB0
01FF600000DFB0
01FF600000FFA0
00FF600003FF60
00CF90000BFF10
008FF513AFF600
001DFFFFFF7000
0002AEFD930000
ENDCHAR
STARTCHAR uni048D
ENCODING 1165
SWIDTH 517 0
DWIDTH 9 0
BBX 12 13 0 0
BITMAP
002730000000
00BF90000000
01FF50000000
8FFFFE400000
6EFFFE400000
0CF800000000
0EF79ED40000
0FFFFFFE1000
1FFD23FF3044
0FF400FF31D9
0DF917FF3CF4
06FFFFFFFF60
007DFDBEC500
ENDCHAR
STARTCHAR uni048E
ENCODING 1166
SWIDTH 805 0
DWIDTH 14 0
BBX 16 19 0 -3
BITMAP
0000005BEFEA4000
00002CFFFFFFF700
0003EFB4125EFF30
001DF8000004FF90
008FB02DD000EFC0
01EF208FF044EFB0
06FB00AFD0CFFF90
0AF600DFB01BFFE7
0DF300FF828FFACD
0FF0AEFFEFFF8000
2FE09FFFED930000
2FD008FF10000000
2FD00AFD00000000
1FE00CFB00000000
0EF30FF800000000
09FA4FF600000000
02FFFFF200000000
005EFF9000000000
0001540000000000
ENDCHAR
STARTCHAR uni048F
ENCODING 1167
SWIDTH 481 0
DWIDTH 9 0
BBX 14 18 -3 -9
BITMAP
00008E49EB1000
0000DFDFFFA000
0000DFE47FE000
0000DF804FE000
0000DF606FC000
0000EF6DCF704C
0007FF6EFF26FC
001EFFEFFFFFD2
006EEFEB7EE910
00C9EF30000000
03F4FF20000000
08E1FF00000000
0CB2FD00000000
0F84FA00000000
1F76F700000000
2F9BF200000000
0EFFB000000000
06EC2000000000
ENDCHAR
STARTCHAR uni0490
ENCODING 1168
SWIDTH 645 0
DWIDTH 12 0
BBX 17 21 0 0
BITMAP
00000000000000CA00
00000000000001FF10
00000000000002FE00
00000000000004FC00
00000000000007FA00
00059CEEFFFFFFF700
03DFFFFFFFFFEDA100
0DFD77FF4000000000
4FE107FF1000000000
5FC00AFD0000000000
3FF20DFB0000000000
07701FF80000000000
00003FF50000000000
00006FF30000000000
00008FF10000000000
0000AFE00000000000
0000CFC00000000000
0000EFA00000000000
0002FF800000000000
0003FF700000000000
0001DD200000000000
ENDCHAR
STARTCHAR uni0491
ENCODING 1169
SWIDTH 394 0
DWIDTH 7 0
BBX 8 12 0 0
BITMAP
000000D7
000002FA
000017F8
03EFFFF5
08FFFE90
0BF60000
0EF30000
0FF20000
1FF10000
1FF00000
0EF00000
09C00000
ENDCHAR
STARTCHAR uni0492
ENCODING 1170
SWIDTH 635 0
DWIDTH 11 0
BBX 16 17 0 0
BITMAP
0000000000000110
00059CEEFFFFFFF5
03DFFFFFFFFFFEC3
0EFD78FF40000000
4FE107FF10000000
5FC00AFD00000000
2FF20DFA00000000
05601FF800000000
002DFFFFF9000000
003EFFFFF8000000
00007FF100000000
0000AFE000000000
0000CFC000000000
0000EFA000000000
0001FF8000000000
0003FF7000000000
0001DE3000000000
ENDCHAR
STARTCHAR uni0493
ENCODING 1171
SWIDTH 380 0
DWIDTH 7 0
BBX 10 9 0 0
BITMAP
04BEEB1000
0EFFFF9000
0651BF9000
2207FF3000
8FEFE40010
1EFCF805F2
4FF213AFD0
2FFFFFFD20
05CEEC7100
ENDCHAR
STARTCHAR uni0494
ENCODING 1172
SWIDTH 884 0
DWIDTH 16 0
BBX 18 26 0 -9
BITMAP
000000000000011000
00059CEEFFFFFFF500
02DFFFFFFFFFFEC300
0DFD78FF4000000000
4FE107FF1000000000
5FC00AFD0000000000
3FF10DFB0000000000
09A11FF80000000000
00003FF619DFD60000
00006FF6EFFFFF5000
00008FFEC513EFA000
0000AFFB0000CFC000
0000CFE20000DFB058
0000EFA00000EF99FC
0002FF800001FFFFF6
0003FF700003FFFD40
0001DD200007FFB100
00000000008FFE0000
000000000AFFFB0000
000000009FEEF80000
00000005FE4FF40000
0000000DF65FD00000
0000002FD0AF800000
0000004FC4FE100000
0000002FFFF6000000
00000007ED60000000
ENDCHAR
STARTCHAR uni0495
ENCODING 1173
SWIDTH 441 0
DWIDTH 8 0
BBX 10 15 0 -6
BITMAP
04BEEB1000
0EFFFF9000
0651BF9000
0006EE2000
02CFB20000
1DF5000013
4FF21355EB
3FFFFFFFE5
07EEEFFB20
0008FFA000
00AFBF6000
06F58F3000
0CE3EC0000
0CFFF40000
04ED500000
ENDCHAR
STARTCHAR uni0496
ENCODING 1174
SWIDTH 1234 0
DWIDTH 22 0
BBX 25 22 0 -6
BITMAP
0003BED700009E50002BEE9000
002FFFFF5000EF8000DFFFF700
003D41BFD001FF7007FD28F600
0000002FF403FF500DF7000000
0000000CF804FF306FE1000000
00000008FC06FF03EF80000000
00000002FF58FE6EFC10000000
000000004EFFFFFE8100000000
00000003CFFFFFFD4000000000
0000004FFB3FF79FF300000000
000001EFC13FF41EFA00000000
000007FF305FF109FF20000000
2A301EF9008FE002FFA0000310
7FC19FE100AFD000AFFB859F60
3FFFFF6000BFB0001CFFFFFB10
06DFD500009F600001AFFE6000
000000000000000008FFF70000
0000000000000001CFBDF40000
000000000000000BF91FF10000
000000000000001FF49FA00000
000000000000000FFFFF300000
0000000000000005DFC4000000
ENDCHAR
STARTCHAR uni0497
ENCODING 1175
SWIDTH 803 0
DWIDTH 14 0
BBX 17 15 0 -6
BITMAP
01AEA07E42BEB10000
06FFF7CF3DFFF70000
06F4DDEE7F95F80000
0020BFFCDF15F30000
0420CFEDFE00100000
6F80EDDFFE00000510
AF87F7FFCF8153AF40
8FFFD1FE3FFFFFFA00
1BEB20D805EFFE6000
0000000002BFF30000
000000003ECDE00000
00000000DC2FA00000
00000004F79F500000
00000004FFFC000000
00000000AEA1000000
ENDCHAR
STARTCHAR uni0498
ENCODING 1176
SWIDTH 725 0
DWIDTH 13 0
BBX 12 22 1 -6
BITMAP
0004ADFEC500
008FFFFFFF40
04FF9214FF90
08FC0000BFB0
08FA0000CF80
02A50002FF30
0000002CF700
0001BEFFF910
0004FEA6DFC0
000000005FF4
7D3000003FF6
EF7000006FF4
EFA00001DFE0
AFF5115DFF50
2EFFFFFFE500
029DFFFF7000
0002BFFF5000
002DF6CF2000
00CF72FD0000
01FF4AF80000
01FFFFE20000
006DFC300000
ENDCHAR
STARTCHAR uni0499
ENCODING 1177
SWIDTH 445 0
DWIDTH 8 0
BBX 10 15 0 -6
BITMAP
018DFD7000
0AFFFFF400
0ED31DF500
04305FD100
000EFD3000
04037FE138
5F613FE8FD
4FFFFFFFE4
07DFEFFB10
0006EF9000
009FCF4000
05F7AF1000
09F3EC0000
09FFF50000
02DE700000
ENDCHAR
STARTCHAR uni049A
ENCODING 1178
SWIDTH 937 0
DWIDTH 17 0
BBX 19 22 0 -6
BITMAP
0005ADFED920001CE300
00AFFFFFFF90007FF300
07FE620BFD2000DFD000
0BF7000DFA0005FF6000
0BF6001FF7001DFC0000
07FA003FF501BFE20000
0052005FF46DFD200000
000009FFFFFE81000000
00000AFFFFFA10000000
000000BFB5FFC0000000
000000DF908FF5000000
290001FF602FFB000000
7F6005FF300AFF200290
6FE32DFC0003FFEC8EF0
0DFFFFF400009FFFFD40
019EFC4000001CFF8100
000000000003CFFF1000
00000000005FF9FD0000
0000000002FF46F90000
0000000006FE2DF40000
0000000005FFFFB00000
00000000009EEA100000
ENDCHAR
STARTCHAR uni049B
ENCODING 1179
SWIDTH 531 0
DWIDTH 10 0
BBX 12 15 0 -6
BITMAP
02DA08EE5000
08F99FFFD000
0BF8FE2CF000
0EFBF80DB000
0FFEF6021000
1FFFF6000031
1FFEFC1328F5
0EF7DFFFEFC1
09E229FFF800
00001BFF5000
0002DDDF1000
000BD2EC0000
002F97F60000
002FFFD10000
0009EB200000
ENDCHAR
STARTCHAR uni049C
ENCODING 1180
SWIDTH 937 0
DWIDTH 17 0
BBX 20 16 0 0
BITMAP
0005ADFED920001CE300
00AFFFFFFF90007FF300
07FE620BFD2000CFD000
0BF7000DFA0005FF6000
0BF6001FF7C61DFC0000
07FA003FF6F9BFE20000
0052005FF6FFFD200000
000009FFFFFE81000000
00000AFFFFFA10000000
000000BFBAFFB0000000
000000DF9AFFF5000000
170001FF7CEFFB000060
7F5005FF3CACFF4006F2
6FE32DFD0545FFD58FC0
1DFFFFF40000AFFFFE20
019EFC40000019EEA200
ENDCHAR
STARTCHAR uni049D
ENCODING 1181
SWIDTH 485 0
DWIDTH 9 0
BBX 11 9 0 0
BITMAP
02DA04DE9000
08F81EFFF400
0BFC7F77F500
0EFDCE049000
0FFFEC000180
1FFFFD0009F0
1FFFFF618FA0
0EFA9FFFFC10
09C008EEA100
ENDCHAR
STARTCHAR uni049E
ENCODING 1182
SWIDTH 937 0
DWIDTH 17 0
BBX 20 16 0 0
BITMAP
0005ADFED920001CE300
00AFFFFFFF90007FF300
06FE620BFD2000DFD000
0BF7000DFA0005FF6000
0BF62DFFFFE31DFC0000
08FA3EFFFFE3BFE20000
0194004FF56DFD200000
000009FFFFFE81000000
00000AFFFFFA10000000
000000BFB5FFB0000000
000000DF908FF5000000
170001FF602FFB000060
7F5005FF300AFF4006F2
6FE32DFC0003FFD58FC0
1DFFFFF400009FFFFE20
019EFC40000008EEA200
ENDCHAR
STARTCHAR uni049F
ENCODING 1183
SWIDTH 473 0
DWIDTH 9 0
BBX 10 16 1 0
BITMAP
00AE300000
03FF300000
07FF100000
DFFFFFD000
AFFFFFB000
1FF4000000
4FF1000000
7FD07DE700
9FA7FFFF10
BF8EF3AF20
DFBFA0BD00
EFEF801102
EFFF90009C
EFEFE319F9
CF9AFFFFB1
7E308EE910
ENDCHAR
STARTCHAR uni04A0
ENCODING 1184
SWIDTH 937 0
DWIDTH 17 0
BBX 20 16 0 0
BITMAP
005544568820001CE300
05FFFFFFFF80007FF200
02CEFFEFFC1000DFC000
0000000DF90005FF5000
0000001FF7001DFB0000
0000003FF501BFD20000
0000005FF46DFD200000
000009FFFFFE81000000
00000AFFFFFA10000000
000000BFB5FFB0000000
000000DF908FF5000000
170001FF602FFB000060
7F5005FF300AFF4006F2
6FE32DFC0003FFD58FC0
1DFFFFF400009FFFFE20
019EFC40000008EEA200
ENDCHAR
STARTCHAR uni04A1
ENCODING 1185
SWIDTH 555 0
DWIDTH 10 0
BBX 13 9 0 0
BITMAP
2EFFF52BEB1000
1CFFF4DFFF8000
001FE8FA4F9000
004FCEF24F6000
006FDFF0030100
007FFFF1002E40
007FFEF914EE20
005FF5FFFFF500
001D904CFC4000
ENDCHAR
STARTCHAR uni04A2
ENCODING 1186
SWIDTH 907 0
DWIDTH 16 0
BBX 20 23 -1 -6
BITMAP
000000000000004DE500
0006CEC2000003FFFE00
01BFFFFA00000CF88F20
0BF81AFE00004FE07F10
3F8006FF1000AF808E00
180006FF0000EF40DA00
000008FE0003FF17F300
00000AFD0006FE9F7000
00000CFB001AFFE60000
002DFFFFFFFFFB100000
003EFFFFECAEF8000000
00006FF2000EF8000000
00009FE0000EF9000000
0000DFB0000CFD000011
0001FF700008FFB646E8
0004FF300002EFFFFFD3
0003EA0000002AFFF810
0000000000007EFF9000
00000000001BFCCF6000
00000000009FB1EF2000
0000000000EF67FC0000
0000000000DFFFF40000
00000000004DFD500000
ENDCHAR
STARTCHAR uni04A3
ENCODING 1187
SWIDTH 515 0
DWIDTH 9 0
BBX 12 15 0 -6
BITMAP
02DA00AF1000
08F801FF0000
0BF505FC0000
0EFEEFF90000
0FFFFFF60000
1FF00DF30190
1FF00CFB4DF1
0EF009FFFE60
09C002EFC200
00004EFE0000
0005FBFB0000
002FA3F70000
007F5BF20000
007FFF900000
001CE9000000
ENDCHAR
STARTCHAR uni04A4
ENCODING 1188
SWIDTH 873 0
DWIDTH 16 0
BBX 21 17 -1 0
BITMAP
000000000000004DFFDB60
0006CEC2000003FFFFFFF0
01BFFFFA00000CFA114750
0BF81AFE00004FF2000000
3F8006FF1000AFB0000000
180006FF0000EF60000000
000008FE0003FF20000000
00000AFD0006FE00000000
00000CFB001AFB00000000
002DFFFFFFFFF900000000
003EFFFFECAEF800000000
00006FF2000EF800000000
00009FE0000EF900000000
0000DFB0000CFC0003D000
0001FF700007FF615ED000
0004FF300001DFFFFE2000
0003EA0000002BEE910000
ENDCHAR
STARTCHAR uni04A5
ENCODING 1189
SWIDTH 475 0
DWIDTH 9 0
BBX 11 10 0 0
BITMAP
000000016300
02DA009FFA00
08F801FF6100
0BF505FC0000
0EFEEFF90000
0FFFFFF60160
1FF00CF40BD0
1FF00DF58F80
0EF00BFFFA00
09C004ED7000
ENDCHAR
STARTCHAR uni04A8
ENCODING 1192
SWIDTH 997 0
DWIDTH 18 0
BBX 20 16 1 0
BITMAP
00005BEC000000000000
0009FFFD03ADEC600000
009FFC616FFFFFF90000
04FFA004FFD65CFF4000
0CFD000DFD1002FFB000
3FF6003FF60000AFF000
7FF2008FF200008FF100
AFE0009FF000008FF100
BFD000AFE00000AFE000
CFD0009FF00000EFA000
BFE0007FF30006FF4000
8FF3002FFA003EFA0000
3FFB000AFF76EFD10381
09FFD756FFFFFE68DFF2
009FFFFFFFFFFFFFFE70
0004ADFEDB8ADFEB6100
ENDCHAR
STARTCHAR uni04A9
ENCODING 1193
SWIDTH 574 0
DWIDTH 10 0
BBX 13 9 0 0
BITMAP
004CE300000000
04FFD4AEC20000
0DF80BFEFB0000
3FF13FB0DE0000
5FD06F60DC0120
5FD07F65F81C90
2FF45FCED6DF60
0AFFEFFFFFF700
019EFCCFEA3000
ENDCHAR
STARTCHAR uni04AA
ENCODING 1194
SWIDTH 781 0
DWIDTH 14 0
BBX 15 25 1 -9
BITMAP
000039DFEA200000
0007FFFFFFD10000
007FFB315FF70000
03FF90000CF90000
0CFD00000DF90000
3FF600000DF40000
7FF2000003400000
AFE0000000000000
CFD0000000000000
CFC0000000000000
BFE0000000000000
9FF2000000110000
4FF8000002D906D0
0BFF82128EF9AFC0
01CFFFFFFFFFFA10
0006CEED8EFE6000
000000009FF30000
0000000AFFD00000
0000009FBFA00000
000006F78F600000
00001EB0CF200000
00006F53FC000000
00008F4BF6000000
00007FFFC0000000
00001BEB20000000
ENDCHAR
STARTCHAR uni04AB
ENCODING 1195
SWIDTH 431 0
DWIDTH 8 0
BBX 10 15 0 -6
BITMAP
003BEB1000
03FFFF8000
0CF94F9000
3FF14F5000
5FE0020000
6FE0000033
3FF71347F8
0CFFFFFFD3
02BFFFF910
0008FF8000
00BECF4000
08F4BE0000
0EC4F90000
0EFFE20000
06EC300000
ENDCHAR
STARTCHAR uni04AC
ENCODING 1196
SWIDTH 697 0
DWIDTH 13 0
BBX 17 22 0 -6
BITMAP
00038BDEFFFFFFEB10
02CFFFFFFFFFFFFF20
0DFB521BFD00012100
4FD0000DFA00000000
5FD0001FF800000000
2FF2004FF500000000
0560007FF200000000
0000009FF000000000
000000CFC000000000
000000EFA000000000
000001FF8000000000
000003FF6000000000
000006FF4000000000
000008FF6200000000
000009FFFA00000000
000004FFF800000000
00003CFDF600000000
0003EF5BF300000000
000BF81EE000000000
000FF58F9000000000
000DFFFE2000000000
0004DFC40000000000
ENDCHAR
STARTCHAR uni04AD
ENCODING 1197
SWIDTH 784 0
DWIDTH 14 0
BBX 16 15 0 -6
BITMAP
02DA06EC01AE8000
08F96FFF1CFFB000
0BF7EFFE8FFF9000
0EFBD5FCE8BF7000
0FFE66FFD0DF4000
1FFE17FF80FF1014
1FFB09FF32FF73DE
0EF608FD00DFFFF6
09D103E7004FFD30
0000000005EFD000
000000007FBF9000
00000004F86F5000
00000009F3DE1000
00000009FFF70000
00000002DE700000
ENDCHAR
STARTCHAR uni04AE
ENCODING 1198
SWIDTH 677 0
DWIDTH 12 0
BBX 12 16 2 0
BITMAP
4EB000002CE3
6FF50000BFE1
1FFB0004FF70
0AFF200DFC00
04FF707FF300
00DFD1EF9000
007FFCFE1000
001FFFF60000
000AFFC00000
0004FF400000
0003FF200000
0004FF100000
0005FF100000
0006FF000000
0006FE000000
0004EB000000
ENDCHAR
STARTCHAR uni04AF
ENCODING 1199
SWIDTH 472 0
DWIDTH 9 0
BBX 11 16 0 -7
BITMAP
0CC001CD1000
1FF209FF4000
0EF40DFF3000
0CF60DFF2450
0AF70BFFFFD0
09F92FEDFD50
07FAAF600000
06FDFB000000
04FFE2000000
03FF40000000
02FF20000000
01FF30000000
00FF40000000
00EF50000000
00DF50000000
004600000000
ENDCHAR
STARTCHAR uni04B0
ENCODING 1200
SWIDTH 677 0
DWIDTH 12 0
BBX 12 16 2 0
BITMAP
5EB000002CE3
6FF50000BFE1
1EFB0005FF60
09FF201DFB00
03FF808FF200
00BFE3FF7000
005FFEFC0000
000DFFF30000
0008FF900000
05EFFFFF5000
06FFFFFE4000
0004FF200000
0005FF100000
0005FF000000
0006FE000000
0004EB000000
ENDCHAR
STARTCHAR uni04B1
ENCODING 1201
SWIDTH 472 0
DWIDTH 9 0
BBX 11 16 0 -7
BITMAP
0CD001CD1000
1FF209FF4000
0EF40DFF3000
0CF60DFF2450
0AF70BFFFFD0
09F92FEDFD50
07FAAF600000
06FDFB000000
05FFE2000000
8FFFFF400000
7EFFED300000
01FF30000000
00FF40000000
00EF50000000
00DF50000000
004600000000
ENDCHAR
STARTCHAR uni04B2
ENCODING 1202
SWIDTH 716 0
DWIDTH 13 0
BBX 17 22 -1 -6
BITMAP
0019EEB200007EA000
02DFFFFC0006FF8000
0BE519FF503FFB0000
083001EFA2EFD10000
0000009FECFE200000
0000005FFFF3000000
0000001FFF50000000
0000004FFC00000000
000002EFFF10000000
00001DFEFF40000000
0000BFE3FF80000000
0008FF60CFD0000000
006FF9007FF3000500
03FFC0002FFC85CF10
1EFE200009FFFFF700
2ED4000000CFFB2000
000000002BFFF20000
00000004EF9FE00000
0000001EF56FA00000
0000006FE2DF500000
0000005FFFFC000000
00000009EEA1000000
ENDCHAR
STARTCHAR uni04B3
ENCODING 1203
SWIDTH 601 0
DWIDTH 11 0
BBX 13 15 0 -6
BITMAP
01BEC24CE70000
06FFFDFFFB0000
05E4DFF4E60000
0000BFC0000000
0520CF90000000
6F80EF90000230
AF86FFE2135E90
8FFFFFFFFEFE30
1BFC39FEFFA100
0000007EF90000
00000AFCF50000
00007F59F10000
0000DD3FA00000
0000EFFF300000
00006EC4000000
ENDCHAR
STARTCHAR uni04B4
ENCODING 1204
SWIDTH 1040 0
DWIDTH 19 0
BBX 21 22 0 -6
BITMAP
00048BDEFFEDB307E60000
02CFFFFFFFFFF60CFA0000
0CFC5217FF30000EFA0000
4FE1000AFE00001FF80000
5FC0000DFA00004FF50000
3FF1001FF700007FF30000
09A0005FF40000AFF10000
0000008FF10000EFD00000
000000BFD00003FFB00000
000000EFA00009FF900000
000002FF70001EFF800000
000004FF50008CFF600000
000006FF3003F6FF600000
000004FF815EB1FFEA29D0
000001EFFFFD108EFFEF90
0000003CED810006FFD500
00000000000003CFFE0000
0000000000006FEAFB0000
000000000003FE38F80000
000000000008FC3EF30000
000000000007FFFFA00000
000000000001AEE9100000
ENDCHAR
STARTCHAR uni04B5
ENCODING 1205
SWIDTH 501 0
DWIDTH 9 0
BBX 11 19 0 -6
BITMAP
002DFFFF5000
003EFFFE4000
000000000000
000000000000
02DC00CC0000
07FA04FB0000
0BF709F80000
0EF40EF50000
0FF25FF20000
1FF1CFF00140
2FFDDFF64EC0
0EFF7CFFFE50
05EA05FFC200
00007FFB0000
0008FBF80000
005F77F40000
00BF2DD00000
00BFFF500000
003DD6000000
ENDCHAR
STARTCHAR uni04B6
ENCODING 1206
SWIDTH 804 0
DWIDTH 14 0
BBX 15 22 2 -6
BITMAP
1CE200000CD10000
3FF600003FF40000
4FF600005FF30000
5FF400006FF20000
7FF20000AFF00000
AFE00000EFD00000
DFB00006FFB00000
EFA0002EFF900000
DFE315DFDF700000
AFFFFFF7DF500000
1CFFFF81FF300000
00465204FF200000
00000005FF400230
00000005FFFD6EA0
00000000AEFFFD30
0000000019FF8100
00000006EFFA0000
000000AFDBF70000
000007FD1CF40000
00000CF85FD00000
00000BFFFF600000
000003CFD6000000
ENDCHAR
STARTCHAR uni04B7
ENCODING 1207
SWIDTH 631 0
DWIDTH 11 0
BBX 15 17 -1 -6
BITMAP
0000163000000000
00008FE400000000
0000DEFFFFE20000
0003F99FFFE10000
0008F407FE400000
001ED08FD2000000
009F64FE20000000
05FB0AF800000600
1ED10CF90263CF30
1C3009FFFFFFF800
000001BEEFFD4000
00000004EFF10000
0000005FBEC00000
000001EB2F800000
000005F6AF300000
000006FFFA000000
000001BE91000000
ENDCHAR
STARTCHAR uni04B8
ENCODING 1208
SWIDTH 773 0
DWIDTH 14 0
BBX 12 16 2 0
BITMAP
1CE200000BD2
3FF600002FF4
4FF600004FF3
5FF500006FF1
7FF311009FF0
9FF08D00DFD0
CFC0AE03FFB0
EFA0CC0AFF90
EFB0EA7FFF70
CFF9FEFCDF50
5FFFFFD2FF30
06CFF913FF20
0006F205FF00
0003C008FE00
00000009FC00
00000007F700
ENDCHAR
STARTCHAR uni04B9
ENCODING 1209
SWIDTH 575 0
DWIDTH 10 0
BBX 14 11 -1 0
BITMAP
00000003B00000
00004EAAA00000
0000BFFFB9D700
0001FADFFFF600
0007F6D6DF7000
000DE12DF50000
008F70CF600024
04FC05FD0002DA
1ED206FE338FF5
1A2003FFFFFF60
0000006DFDA300
ENDCHAR
STARTCHAR uni04BA
ENCODING 1210
SWIDTH 755 0
DWIDTH 14 0
BBX 15 16 1 0
BITMAP
006E900000000000
00BFC00000000000
00DFB00000000000
00FF800000000000
02FF600000000000
04FF400000000000
06FF100000000000
08FE05BEEB300000
0BFCAFFFFFD10000
0DFFF9318FF40000
1FFF50003FF60000
3FFA00004FF50020
5FF400006FF207D0
7FF200008FF26FA0
9FF000008FFFFC10
5E9000002CFD7000
ENDCHAR
STARTCHAR uni04BB
ENCODING 1211
SWIDTH 502 0
DWIDTH 9 0
BBX 12 18 0 0
BITMAP
00007EC10000
0005FFF80000
000DE4FB0000
005F91FA0000
00BF43F70000
00EF17F30000
04FD0DB00000
07FA7F300000
09FAE8000000
0BFFC4CE3000
0DFE5FFF6000
0EF5DFFF4000
0FF9F4FF1000
0FFE83FE0031
0FFF26FB03E5
1FFC08FC4DE2
0FF806FFFE40
0CC201CEB300
ENDCHAR
STARTCHAR uni04BC
ENCODING 1212
SWIDTH 808 0
DWIDTH 15 0
BBX 16 16 1 0
BITMAP
00000029DFEA2000
000006FFFFFFD100
00006FFB315FF700
0002FFB0000BFB00
000AFF100009FC00
111FF900000AFB00
DD7FF500000DF900
FFFFFFFFFFFFF600
7DFFFFFFFFFFB100
00AFF10000000000
008FF20000000000
005FF70000000000
000EFE2000000034
0005FFE721137CFB
00006EFFFFFFFFE4
0000028CEFDC9510
ENDCHAR
STARTCHAR uni04BD
ENCODING 1213
SWIDTH 483 0
DWIDTH 9 0
BBX 11 9 0 0
BITMAP
00007DEA0000
0009FFFF6000
004FE37F8000
229F909F5000
BDCFABFB0030
7FFFFD7109F0
029FE414CFB0
002EFFFFFC10
0002AEEC6000
ENDCHAR
STARTCHAR uni04BE
ENCODING 1214
SWIDTH 808 0
DWIDTH 15 0
BBX 16 21 1 -5
BITMAP
00000029DFEA2000
000006FFFFFFD100
00006FFB315FF700
0002FFB0000BFB00
000AFF100009FC00
111FF900000AFB00
DD7FF500000DF900
FFFFFFFFFFFFF600
7DFFFFFFFFFFB100
00AFF10000000000
008FF20000000000
005FF70000000000
001EFE2000000034
0006FFE721137CFB
00007FFFFFFFFFE4
000004FFEFDC9510
00000BF300000000
00002FC000000000
00003FD121000000
00000EFFF8000000
000003CFD3000000
ENDCHAR
STARTCHAR uni04BF
ENCODING 1215
SWIDTH 483 0
DWIDTH 9 0
BBX 11 14 0 -5
BITMAP
00007DE90000
0009FFFF6000
003FE48F8000
108F908F6000
BBBF88FD1010
AFFFFFB205E0
05BFE3007FD0
003FFDADFE30
0006EFFFA200
00002FD10000
00007F500000
00009F500000
00006FECE100
000008EEA000
ENDCHAR
STARTCHAR uni04C0
ENCODING 1216
SWIDTH 495 0
DWIDTH 9 0
BBX 11 16 -1 0
BITMAP
001BFFFFFFC0
001FFFFFFFB0
000019FE1100
00000BFC0000
00000DFA0000
00000FF80000
00002FF50000
00005FF30000
00007FF10000
00009FD00000
0000CFB00000
0000EF900000
0001FF700000
0004FF610000
1CFFFFFFC000
3EFFFFFFA000
ENDCHAR
STARTCHAR uni04C1
ENCODING 1217
SWIDTH 1234 0
DWIDTH 22 0
BBX 24 21 0 0
BITMAP
0000000000172002E4000000
00000000006FB01BF3000000
00000000003FFEEFA0000000
000000000006DFD800000000
000000000000000000000000
0003BED700009E50002BEE90
002FFFFF5000EF8000DFFFF7
003D41BFD001FF7007FD28F6
0000003FF403FF500DF70000
0000000CF804FF306FF10000
00000008FC06FF03EF800000
00000002FF58FE6EFC100000
000000005EFFFFFE81000000
00000003CFFFFFFC40000000
0000004EFC4FF7AFE2000000
000001DFD13FF41EF9000000
000007FF305FF209FF100000
17201EFA007FF003FF80006C
7FB19FE2009FD000AFF616FA
4FFFFF6000BFB0002EFFFFC1
06DFD500009F600003BED810
ENDCHAR
STARTCHAR uni04C2
ENCODING 1218
SWIDTH 717 0
DWIDTH 13 0
BBX 16 15 0 0
BITMAP
0000000000600000
0000271006F20000
00009F915EE00000
00005FFFFF500000
000007EEC4000000
0000000000000000
01AEA07E42BEB100
06FFF7CF3DFFF700
06F4DDEE7F95F800
0020BFFCDF15F300
0420CFEDFE001040
6F80EDDFFE0005F3
AF87F7FFBF815EE1
8FFFD1FE2EFFFE30
1BEB20D803CEB300
ENDCHAR
STARTCHAR uni04C3
ENCODING 1219
SWIDTH 937 0
DWIDTH 17 0
BBX 19 22 0 -6
BITMAP
0005ADFED920001CE300
00AFFFFFFF90007FF300
07FE620BFD2000DFD000
0BF7000DFA0005FF6000
0BF6001FF7001DFC0000
07FA003FF501BFE20000
0052005FF46DFD200000
000009FFFFFE81000000
00000AFFFFFA10000000
000000BFB5FFC0000000
000000DF908FF5000000
290001FF602FFB000000
7F6005FF300AFF200290
6FE32DFC0003FFEC8EF0
0DFFFFF400009FFFFD40
019EFC4000001CFF8100
000000000003CFFF1000
00000000005FF9FD0000
0000000002FF46F90000
0000000006FE2DF40000
0000000005FFFFB00000
00000000009EEA100000
ENDCHAR
STARTCHAR uni04C4
ENCODING 1220
SWIDTH 531 0
DWIDTH 10 0
BBX 12 15 0 -6
BITMAP
02DA08EE5000
08F99FFFD000
0BF8FE2CF000
0EFBF80DB000
0FFEF6021000
1FFFF6000031
1FFEFC1328F5
0EF7DFFFEFC1
09E229FFF800
00001BFF5000
0002DDDF1000
000BD2EC0000
002F97F60000
002FFFD10000
0009EB200000
ENDCHAR
STARTCHAR uni04C5
ENCODING 1221
SWIDTH 861 0
DWIDTH 16 0
BBX 18 20 0 -4
BITMAP
00000000009E900000
0000000004FFD00000
0000000009FFC00000
000000000EFFB00000
000000003FFFA00000
000000008FFFA00000
00000000DFDF900000
00000003FEBF900000
00000009F9CF900000
0000001EF4CFA00000
0000007FD0BFB00000
130001EF709FD00003
BF2009FE107FF200AC
BFA17FF6002FFB5BF8
4FFFFF90000AFFFFB0
05CFD70000019FFC10
0000000000006FE200
000000000001EF6000
000000000009FC0000
000000000008E30000
ENDCHAR
STARTCHAR uni04C6
ENCODING 1222
SWIDTH 549 0
DWIDTH 10 0
BBX 12 12 0 -3
BITMAP
000005ED1000
00000DFF4000
00004FFF3000
0000AFFF3000
3912FDDF2003
CF38F8DF307E
EF5EF2CF76FA
CFFF70AFFFC1
4DE7003EFD10
0000001DE200
000000AF7000
000000DA0000
ENDCHAR
STARTCHAR uni04C7
ENCODING 1223
SWIDTH 907 0
DWIDTH 16 0
BBX 20 23 -1 -6
BITMAP
000000000000004DE500
0006CEC2000003FFFE00
01BFFFFA00000CF88F20
0BF81AFE00004FE07F10
3F8006FF1000AF808E00
180006FF0000EF40DA00
000008FE0003FF17F300
00000AFD0006FE9F7000
00000CFB001AFFE60000
002DFFFFFFFFFB100000
003EFFFFECAEF8000000
00006FF2000EF8000000
00009FE0000EF9000000
0000DFB0000CFD000011
0001FF700008FFB646E8
0004FF300002EFFFFFD3
0003EA0000002AFFF810
0000000000007EFF9000
00000000001BFCCF6000
00000000009FB1EF2000
0000000000EF67FC0000
0000000000DFFFF40000
00000000004DFD500000
ENDCHAR
STARTCHAR uni04C8
ENCODING 1224
SWIDTH 515 0
DWIDTH 9 0
BBX 12 15 0 -6
BITMAP
02DA00AF1000
08F801FF0000
0BF505FC0000
0EFEEFF90000
0FFFFFF60000
1FF00DF30190
1FF00CFB4DF1
0EF009FFFE60
09C002EFC200
00004EFE0000
0005FBFB0000
002FA3F70000
007F5BF20000
007FFF900000
001CE9000000
ENDCHAR
STARTCHAR uni04C9
ENCODING 1225
SWIDTH 873 0
DWIDTH 16 0
BBX 19 21 -1 -4
BITMAP
000000000000004DE500
0006CEC2000003FFFE00
01BFFFFA00000CF88F20
0BF81AFE00004FE07F10
3F8006FF1000AF808E00
180006FF0000EF40DA00
000008FE0003FF17F300
00000AFD0006FE9F7000
00000CFB001AFFE60000
002DFFFFFFFFFB100000
003EFFFFECAEF8000000
00006FF2000EF8000000
00009FE0000DF9000000
0000DFB0000BFC0004E0
0001FF700007FF837FD0
0004FF300001EFFFFE20
0003EA0000002AFFE300
00000000000003FF5000
0000000000000CFA0000
0000000000006FE10000
0000000000006E500000
ENDCHAR
STARTCHAR uni04CA
ENCODING 1226
SWIDTH 475 0
DWIDTH 9 0
BBX 11 13 0 -4
BITMAP
02DA00AF1000
08F801FF0000
0BF505FC0000
0EFEEFF90000
0FFFFFF60260
1FF00CF40CD0
1FF00DF8BF70
0EF00BFFFA00
09C005FFC100
000002EE2000
00000BF70000
00002FD00000
000006200000
ENDCHAR
STARTCHAR uni04CB
ENCODING 1227
SWIDTH 773 0
DWIDTH 14 0
BBX 12 22 2 -6
BITMAP
1CE200000CD2
3FF600003FF4
4FF600005FF3
5FF400006FF1
7FF20000AFF0
AFE00000EFD0
DFB00006FFB0
EFA0002EFF90
DFE315DFDF70
AFFFFFF7EF50
1CFFFF81FF30
00465204FF20
00000006FF00
00000019FE00
000000EFFC00
00002BFFF700
0006EFFC0000
009FC6F90000
05FE19F60000
09FA3EF10000
08FFFF800000
01BFE8000000
ENDCHAR
STARTCHAR uni04CC
ENCODING 1228
SWIDTH 555 0
DWIDTH 10 0
BBX 14 13 -1 -2
BITMAP
00001630000000
00008FE4000000
0000DEFFFFE200
0003F99FFFE100
0009F407FE4000
001ED08FD20000
009F65FE200041
05FB0BF80005F4
1ED10CF913AFD1
1B2008FFFFFD20
0000019EFFF100
000000000ED000
000000000B7000
ENDCHAR
STARTCHAR uni04CD
ENCODING 1229
SWIDTH 1133 0
DWIDTH 20 0
BBX 23 20 0 -4
BITMAP
00000000AEA00006EC100000
00000004FFF0001EFF300000
00000007FFF0007FFF200000
0000000AFFE000DFFF000000
0000000DFFE004FFFE000000
0000001FFFE00AFCFD000000
0000004FCFF01FF8FC000000
0000007F9FF06FC8FC000000
000000BF6EF1AF69FB000000
000000EF3DF3FF19FB000000
000004FE0CF8FB09FC000000
010009FA0BFDF608FD000010
AF201EF409FFF206FF1009A0
CF91AFC007FFC002FF819F80
6FFFFF3003FF7000AFFFFB00
07DFC40000BD10001AFFC100
000000000000000008FE1000
00000000000000003FF50000
0000000000000000BFB00000
0000000000000000AD200000
ENDCHAR
STARTCHAR uni04CE
ENCODING 1230
SWIDTH 734 0
DWIDTH 13 0
BBX 16 12 0 -3
BITMAP
00000CE403DD1000
00005FF70DFF2000
0000AFF76FFF2000
0000EEF7CECF1000
3A24FAFBF9CF1022
CF39F5FFF3DF10C7
EF6FE0FFD0DF59F3
CFFF60CF70BFFF60
4DE7007D204FF700
00000000007FA000
0000000003FE1000
0000000005E40000
ENDCHAR
STARTCHAR uni04CF
ENCODING 1231
SWIDTH 222 0
DWIDTH 4 0
BBX 5 16 0 0
BITMAP
000560
004FF0
007FC0
00AFA0
00DF70
00FF40
03FF20
05FE00
08FC00
0AFA00
0CF700
0FF500
2FF300
4FF100
5FE000
4FA000
ENDCHAR
STARTCHAR uni04D0
ENCODING 1232
SWIDTH 786 0
DWIDTH 14 0
BBX 16 21 1 0
BITMAP
000000064000C800
0000001FE107F800
0000000EFEEFE100
00000003BFEA2000
0000000000000000
0000016ADEFDB700
00006EFFFFFFFF10
000AFFE954469600
009FFA1002A90000
05FFA00007FF2000
0DFE10000AFE0000
4FF600000DFA0000
9FF200001FF70000
CFD000005FF40000
EFB00000AFF20000
FFA00001EFF00000
EFC00006FFE00021
BFF1001EFFE002D6
6FFC56DEAFF75DF3
0BFFFFF63FFFFF60
008DEC5005DEC500
ENDCHAR
STARTCHAR uni04D1
ENCODING 1233
SWIDTH 470 0
DWIDTH 8 0
BBX 11 15 0 0
BITMAP
000000015000
0046000AD000
00DF517FA000
009FFFFE2000
001AEEA20000
000000000000
0006DE310000
009FFFFC0000
06FF78FB0000
0DF80AF80000
3FF10DF50010
5FE01FF309B0
4FF39FF59F80
1EFFFCFFFB00
05DE71BE9000
ENDCHAR
STARTCHAR uni04D2
ENCODING 1234
SWIDTH 786 0
DWIDTH 14 0
BBX 16 20 1 0
BITMAP
0000000BE32DD100
0000003FF67FF300
0000001DD24EB000
0000000000000000
0000016ADEFDB700
00006EFFFFFFFF10
000AFFE954469600
009FFA1002A90000
05FFA00007FF2000
0DFE10000AFE0000
4FF600000DFA0000
9FF200001FF70000
CFD000005FF40000
EFB00000AFF20000
FFA00001EFF00000
EFC00006FFE00021
BFF1001EFFE002D6
6FFC56DEAFF75DF3
0BFFFFF63FFFFF60
008DEC5005DEC500
ENDCHAR
STARTCHAR uni04D3
ENCODING 1235
SWIDTH 470 0
DWIDTH 8 0
BBX 11 13 0 0
BITMAP
002DD15E9000
006FF2AFE000
003EB06E8000
000000000000
0006DE310000
009FFFFC0000
06FF78FB0000
0DF80AF80000
3FF10DF50010
5FE01FF309B0
4FF39FF59F80
1EFFFCFFFB00
05DE71BE9000
ENDCHAR
STARTCHAR uni04D4
ENCODING 1236
SWIDTH 1015 0
DWIDTH 18 0
BBX 20 16 1 0
BITMAP
0000028DF709EFFFFF40
00008FFFFA6FFFFFFF30
000AFFE850BFB1111000
00AFFA1000FF70000000
05FFA00004FF40000000
0DFE100008FF10000000
4FF700000BFD00000000
9FF200001FFFFFFFE100
CFD000004FFFFFFFD100
EFB000009FF511110000
FFA00000EFF300000000
EFB00005FFF400000000
BFE1000DFFF900000052
6FFA23BF7BFF83137DF7
0BFFFFFB02DFFFFFFFC1
007DFD810018CEFDA500
ENDCHAR
STARTCHAR uni04D5
ENCODING 1237
SWIDTH 653 0
DWIDTH 12 0
BBX 15 9 0 0
BITMAP
0005BEA6DEA10000
00AFFFFFFFF70000
07FF75FF57F90000
0EF608FA08F60000
3FF10CFAAFC00300
5FE01FFFD7108F10
4FF38FFE524CFC00
1EFFFADFFFFFC100
04CEA119EEC60000
ENDCHAR
STARTCHAR uni04D6
ENCODING 1238
SWIDTH 686 0
DWIDTH 12 0
BBX 15 21 0 0
BITMAP
00000172002E5000
000005FB01BF4000
000003FFEEFB0000
0000005DFD800000
0000000000000000
000028CEFEA30000
0005FFFFFFFF4000
003FFD6214DFB000
009FF300009FC000
00AFF10000AF9000
005FFA3100361000
0005EFFF80000000
003BFFFF70000000
04EFD62100000000
1DFC100000000000
4FF5000000000000
6FF4000000000000
4FF9000000001740
0DFFA421247BFF80
02DFFFFFFFFFFC20
0006ADEFEDB73000
ENDCHAR
STARTCHAR uni04D7
ENCODING 1239
SWIDTH 393 0
DWIDTH 7 0
BBX 10 15 0 0
BITMAP
0000000600
0271006F20
09F915ED00
06FFFFF500
008EEC4000
0000000000
004CEC3000
04FFFFC000
0DF83FE000
3FE03FB000
5FD8EE3021
5FFE9204E5
2FF8239FE2
0AFFFFFE40
008DFD9200
ENDCHAR
STARTCHAR uni04D8
ENCODING 1240
SWIDTH 792 0
DWIDTH 14 0
BBX 13 16 1 0
BITMAP
00039DEEC71000
009FFFFFFFD200
06FE83128FFC00
07C2000007FF50
0000000000EFA0
0000000000CFC0
0000000000BFD0
6EFFFFFFFFFFC0
DFFFFFFFFFFFB0
EFB1111114FF90
CFC0000008FF40
AFE100001DFE00
5FF600008FF600
0CFF7229FFA000
02DFFFFFFA0000
0018DFEB500000
ENDCHAR
STARTCHAR uni04D9
ENCODING 1241
SWIDTH 455 0
DWIDTH 8 0
BBX 11 9 0 0
BITMAP
04BEEC600000
0BFFFFF60000
02312AFC1420
2DFFFFFFFF80
6FFFFFFFFD40
8F6007FC0000
7F913DF70000
3FFFFFD10000
04CFE9200000
ENDCHAR
STARTCHAR uni04DA
ENCODING 1242
SWIDTH 792 0
DWIDTH 14 0
BBX 13 20 1 0
BITMAP
00006E80AE5000
0000CFC1FF9000
00008E60CE3000
00000000000000
00039DEEC71000
009FFFFFFFD200
06FE83128FFC00
07C2000007FF50
0000000000EFA0
0000000000CFC0
0000000000BFD0
6EFFFFFFFFFFC0
DFFFFFFFFFFFB0
EFB1111114FF90
CFC0000008FF40
AFE100001DFE00
5FF600008FF600
0CFF7229FFA000
02DFFFFFFA0000
0018DFEB500000
ENDCHAR
STARTCHAR uni04DB
ENCODING 1243
SWIDTH 455 0
DWIDTH 8 0
BBX 11 13 0 0
BITMAP
00CE23DC0000
03FF57FF1000
01DD14EA0000
000000000000
04BEEC600000
0BFFFFF60000
02312AFC1420
2DFFFFFFFF80
6FFFFFFFFD40
8F6007FC0000
7F913DF70000
3FFFFFD10000
04CFE9200000
ENDCHAR
STARTCHAR uni04DC
ENCODING 1244
SWIDTH 1234 0
DWIDTH 22 0
BBX 24 20 0 0
BITMAP
00000000003EC06E90000000
00000000008FF2BFD0000000
00000000004EB07E70000000
000000000000000000000000
0003BED700009E50002BEE90
002FFFFF5000EF8000DFFFF7
003D41BFD001FF7007FD28F6
0000003FF403FF500DF70000
0000000CF804FF306FF10000
00000008FC06FF03EF800000
00000002FF58FE6EFC100000
000000005EFFFFFE81000000
00000003CFFFFFFC40000000
0000004EFC4FF7AFE2000000
000001DFD13FF41EF9000000
000007FF305FF209FF100000
17201EFA007FF003FF80006C
7FB19FE2009FD000AFF616FA
4FFFFF6000BFB0002EFFFFC1
06DFD500009F600003BED810
ENDCHAR
STARTCHAR uni04DD
ENCODING 1245
SWIDTH 717 0
DWIDTH 13 0
BBX 16 13 0 0
BITMAP
00000BE32DD10000
00002FF66FF20000
00001DD23EB00000
0000000000000000
01AEA07E42BEB100
06FFF7CF3DFFF700
06F4DDEE7F95F800
0020BFFCDF15F300
0420CFEDFE001040
6F80EDDFFE0005F3
AF87F7FFBF815EE1
8FFFD1FE2EFFFE30
1BEB20D803CEB300
ENDCHAR
STARTCHAR uni04DE
ENCODING 1246
SWIDTH 725 0
DWIDTH 13 0
BBX 12 20 1 0
BITMAP
00007E80AE40
0000DFC2FF80
00009E60CE30
000000000000
0004ADFEC500
008FFFFFFF40
04FF9214FF90
08FC0000BFB0
08FA0000CF80
02A50002FF30
0000002CF700
0001BEFFF910
0004FEA6DFC0
000000005FF4
7D3000003FF6
EF7000006FF5
EFA00001DFE1
AFF5115DFF60
2EFFFFFFF700
029DFEC82000
ENDCHAR
STARTCHAR uni04DF
ENCODING 1247
SWIDTH 435 0
DWIDTH 8 0
BBX 11 22 -1 -9
BITMAP
006E80AE4000
00CFC1FF8000
008E60CE3000
000000000000
0008DFD40000
008FFFFE0000
007B41CF2000
000000CE0000
00001AF80000
0039EF800790
00EFA203CFA0
00CFE77FF810
0007FFFD3000
0002DFC10000
003EFFB00000
02EE7FB00000
0BF37F900000
4F80BF500000
9F23FE100000
BF3CF8000000
9FFFC0000000
2CEA10000000
ENDCHAR
ENDFONT
